<?xml version="1.0" encoding="UTF-8"?><svg xmlns="http://www.w3.org/2000/svg" viewBox="0 0 618.1 467.55"><defs><style>.e{stroke-linejoin:round;}.e,.f,.g,.h,.i{fill:none;stroke:#4fd1d9;stroke-width:2px;}.j{fill:#fff;}.f{stroke-dasharray:0 0 7.94 7.94;}.f,.g,.h{stroke-linecap:round;}.f,.g,.h,.i{stroke-miterlimit:10;}.k,.l{fill:#4fd1d9;}.g{stroke-dasharray:0 0 7.95 7.95;}.m{opacity:.48;}.l{opacity:.28;}.n{fill:#414042;}</style></defs><g id="a"/><g id="b"><g><g><path class="l" d="M479.03,228.35c0,31.51-8.68,60.98-23.78,86.16H167.26c-15.11-25.18-23.79-54.66-23.79-86.16,0-92.67,75.12-167.78,167.78-167.78s167.78,75.11,167.78,167.78Z"/><g><path class="j" d="M224.34,107.44h-91.14c-3.63,0-6.57-2.94-6.57-6.57h0c0-3.63,2.94-6.57,6.57-6.57h91.14c3.63,0,6.57,2.94,6.57,6.57h0c0,3.63-2.94,6.57-6.57,6.57Z"/><rect class="j" x="329.18" y="73.2" width="104.28" height="13.14" rx="6.57" ry="6.57"/><path class="j" d="M507.98,182.76h-91.14c-3.63,0-6.57-2.94-6.57-6.57h0c0-3.63,2.94-6.57,6.57-6.57h91.14c3.63,0,6.57,2.94,6.57,6.57h0c0,3.63-2.94,6.57-6.57,6.57Z"/><path class="j" d="M546.09,203.66h-91.14c-3.63,0-6.57-2.94-6.57-6.57h0c0-3.63,2.94-6.57,6.57-6.57h91.14c3.63,0,6.57,2.94,6.57,6.57h0c0,3.63-2.94,6.57-6.57,6.57Z"/><path class="j" d="M230.44,168.92h-91.14c-3.63,0-6.57-2.94-6.57-6.57h0c0-3.63,2.94-6.57,6.57-6.57h91.14c3.63,0,6.57,2.94,6.57,6.57h0c0,3.63-2.94,6.57-6.57,6.57Z"/></g><g><path class="h" d="M472.03,310.98c-.61,1.19-1.23,2.36-1.87,3.53h-4"/><line class="f" x1="458.22" y1="314.51" x2="160.3" y2="314.51"/><path class="h" d="M156.32,314.51h-4c-.64-1.17-1.26-2.35-1.87-3.53"/><path class="g" d="M146.97,303.83c-10.57-22.97-16.47-48.54-16.47-75.48,0-99.82,80.92-180.75,180.74-180.75s180.75,80.93,180.75,180.75c0,28.36-6.53,55.19-18.17,79.07"/></g></g><g><line class="h" x1="116.63" y1="106.6" x2="107.63" y2="115.6"/><line class="h" x1="107.63" y1="106.6" x2="116.63" y2="115.6"/></g><g><line class="h" x1="41.45" y1="290.17" x2="32.46" y2="299.17"/><line class="h" x1="32.46" y1="290.17" x2="41.45" y2="299.17"/></g><g><line class="h" x1="275.84" y1="84.82" x2="266.85" y2="93.81"/><line class="h" x1="266.85" y1="84.82" x2="275.84" y2="93.81"/></g><g><line class="h" x1="549.15" y1="260.86" x2="540.16" y2="269.86"/><line class="h" x1="540.16" y1="260.86" x2="549.15" y2="269.86"/></g><g><line class="h" x1="537.88" y1="106.6" x2="528.88" y2="115.6"/><line class="h" x1="528.88" y1="106.6" x2="537.88" y2="115.6"/></g><g><line class="h" x1="454.66" y1="51.73" x2="445.67" y2="60.72"/><line class="h" x1="445.67" y1="51.73" x2="454.66" y2="60.72"/></g><circle class="h" cx="71.87" cy="175.27" r="5.65"/><path class="h" d="M103.21,249.6c2.35,2.06,2.58,5.63,.51,7.98-2.06,2.35-5.63,2.58-7.98,.51-2.35-2.06-2.58-5.63-.51-7.98s5.63-2.58,7.98-.51Z"/><circle class="h" cx="611.44" cy="300.32" r="5.65"/><path class="h" d="M395.06,104.57c0,3.12-2.53,5.65-5.65,5.65s-5.65-2.53-5.65-5.65,2.53-5.65,5.65-5.65,5.65,2.53,5.65,5.65Z"/><circle class="h" cx="248.25" cy="6.65" r="5.65"/><circle class="h" cx="524.6" cy="198.66" r="5.65"/><g><g><g class="m"><path class="k" d="M389.41,241.57c0,1.36-.45,2.51-1.34,3.43-.9,.92-2.19,1.38-3.89,1.38h-2.55v7.22c0,3.93-2.01,5.9-6.04,5.9-3.4,0-5.1-2.12-5.1-6.38v-6.74h-22.42c-5.19,0-7.79-1.4-7.79-4.21,0-1.12,.42-2.39,1.28-3.79,.85-1.4,1.54-2.51,2.08-3.31l17.72-27.44c1.43-2,2.93-3.49,4.5-4.45,1.56-.96,3.38-1.44,5.44-1.44,3.31,0,5.86,.84,7.65,2.53,1.79,1.68,2.68,4.49,2.68,8.42v24.07h2.55c1.7,0,3,.48,3.89,1.44,.89,.96,1.34,2.09,1.34,3.37Zm-18.93-4.81v-24.79l-15.57,24.79h15.57Z"/><path class="k" d="M265.41,241.57c0,1.36-.45,2.51-1.34,3.43-.9,.92-2.19,1.38-3.89,1.38h-2.55v7.22c0,3.93-2.01,5.9-6.04,5.9-3.4,0-5.1-2.12-5.1-6.38v-6.74h-22.42c-5.19,0-7.79-1.4-7.79-4.21,0-1.12,.42-2.39,1.28-3.79,.85-1.4,1.54-2.51,2.08-3.31l17.72-27.44c1.43-2,2.93-3.49,4.5-4.45,1.56-.96,3.38-1.44,5.44-1.44,3.31,0,5.86,.84,7.65,2.53,1.79,1.68,2.68,4.49,2.68,8.42v24.07h2.55c1.7,0,3,.48,3.89,1.44,.89,.96,1.34,2.09,1.34,3.37Zm-18.93-4.81v-24.79l-15.57,24.79h15.57Z"/><path class="k" d="M325.74,224.87h-3.57c-.58-2.32-1.49-4.5-2.69-6.5l2.52-2.52c.84-.84,.84-2.2,0-3.03l-5.2-5.2c-.84-.84-2.2-.84-3.03,0l-2.52,2.52c-1.99-1.2-4.18-2.11-6.5-2.69v-3.57c0-1.18-.96-2.14-2.14-2.14h-7.35c-1.18,0-2.14,.96-2.14,2.14v3.57c-2.32,.58-4.5,1.49-6.5,2.69l-2.52-2.52c-.84-.84-2.2-.84-3.03,0l-5.2,5.2c-.84,.84-.84,2.2,0,3.03l2.52,2.52c-1.2,1.99-2.11,4.18-2.69,6.5h-3.57c-1.18,0-2.14,.96-2.14,2.14v7.35c0,1.18,.96,2.14,2.14,2.14h3.57c.58,2.32,1.49,4.5,2.69,6.5l-2.52,2.52c-.84,.84-.84,2.2,0,3.03l5.2,5.2c.84,.84,2.2,.84,3.03,0l2.52-2.52c1.99,1.2,4.18,2.11,6.5,2.69v3.57c0,1.18,.96,2.14,2.14,2.14h7.35c1.18,0,2.14-.96,2.14-2.14v-3.57c2.32-.58,4.5-1.49,6.5-2.69l2.52,2.52c.84,.84,2.2,.84,3.03,0l5.2-5.2c.84-.84,.84-2.2,0-3.03l-2.52-2.52c1.2-1.99,2.11-4.18,2.69-6.5h3.57c1.18,0,2.14-.96,2.14-2.14v-7.35c0-1.18-.96-2.14-2.14-2.14Zm-26.8,20.31c-8.01,0-14.5-6.49-14.5-14.5s6.49-14.5,14.5-14.5,14.5,6.49,14.5,14.5-6.49,14.5-14.5,14.5Z"/><path class="k" d="M350.09,207.22l-1.87-.17c-.2-1.24-.57-2.43-1.11-3.53l1.44-1.2c.48-.4,.54-1.11,.14-1.59l-2.48-2.96c-.4-.48-1.11-.54-1.59-.14l-1.44,1.2c-.99-.72-2.09-1.3-3.28-1.71l.17-1.87c.06-.62-.4-1.17-1.02-1.22l-3.85-.34c-.62-.06-1.17,.4-1.22,1.02l-.17,1.87c-1.24,.2-2.43,.57-3.53,1.11l-1.2-1.44c-.4-.48-1.11-.54-1.59-.14l-2.96,2.48c-.48,.4-.54,1.11-.14,1.59l1.2,1.44c-.72,.99-1.3,2.09-1.71,3.28l-1.87-.17c-.62-.06-1.17,.4-1.22,1.02l-.34,3.85c-.06,.62,.4,1.17,1.02,1.22l1.87,.17c.2,1.24,.57,2.43,1.11,3.53l-1.44,1.2c-.48,.4-.54,1.11-.14,1.59l2.48,2.96c.4,.48,1.11,.54,1.59,.14l1.44-1.2c.99,.72,2.09,1.3,3.28,1.71l-.17,1.87c-.06,.62,.4,1.17,1.02,1.22l3.85,.34c.62,.06,1.17-.4,1.22-1.02l.17-1.87c1.24-.2,2.43-.57,3.53-1.11l1.2,1.44c.4,.48,1.11,.54,1.59,.14l2.96-2.48c.48-.4,.54-1.11,.14-1.59l-1.2-1.44c.72-.99,1.3-2.09,1.71-3.28l1.87,.17c.62,.06,1.17-.4,1.22-1.02l.34-3.85c.06-.62-.4-1.17-1.02-1.22Zm-14.99,9.4c-4.19-.37-7.29-4.08-6.92-8.27,.37-4.19,4.08-7.29,8.27-6.92,4.19,.37,7.29,4.08,6.92,8.27-.37,4.19-4.08,7.29-8.27,6.92Z"/></g><g><path class="i" d="M250.38,238.12v-24.79l-15.57,24.79h15.57Z"/><path class="i" d="M302.84,246.41c-8.01,0-14.5-6.49-14.5-14.5s6.49-14.5,14.5-14.5,14.5,6.49,14.5,14.5-6.49,14.5-14.5,14.5Z"/><path class="i" d="M354,208.58l-1.87-.17c-.2-1.24-.57-2.43-1.11-3.53l1.44-1.2c.48-.4,.54-1.11,.14-1.59l-2.48-2.96c-.4-.48-1.11-.54-1.59-.14l-1.44,1.2c-.99-.72-2.09-1.3-3.28-1.71l.17-1.87c.06-.62-.4-1.17-1.02-1.22l-3.85-.34c-.62-.06-1.17,.4-1.22,1.02l-.17,1.87c-1.24,.2-2.43,.57-3.53,1.11l-1.2-1.44c-.4-.48-1.11-.54-1.59-.14l-2.96,2.48c-.48,.4-.54,1.11-.14,1.59l1.2,1.44c-.72,.99-1.3,2.09-1.71,3.28l-1.87-.17c-.62-.06-1.17,.4-1.22,1.02l-.34,3.85c-.06,.62,.4,1.17,1.02,1.22l1.87,.17c.2,1.24,.57,2.43,1.11,3.53l-1.44,1.2c-.48,.4-.54,1.11-.14,1.59l2.48,2.96c.4,.48,1.11,.54,1.59,.14l1.44-1.2c.99,.72,2.09,1.3,3.28,1.71l-.17,1.87c-.06,.62,.4,1.17,1.02,1.22l3.85,.34c.62,.06,1.17-.4,1.22-1.02l.17-1.87c1.24-.2,2.43-.57,3.53-1.11l1.2,1.44c.4,.48,1.11,.54,1.59,.14l2.96-2.48c.48-.4,.54-1.11,.14-1.59l-1.2-1.44c.72-.99,1.3-2.09,1.71-3.28l1.87,.17c.62,.06,1.17-.4,1.22-1.02l.34-3.85c.06-.62-.4-1.17-1.02-1.22Zm-14.99,9.4c-4.19-.37-7.29-4.08-6.92-8.27,.37-4.19,4.08-7.29,8.27-6.92,4.19,.37,7.29,4.08,6.92,8.27s-4.08,7.29-8.27,6.92Z"/><path class="i" d="M428.27,260.86h-36.76c-5.02,0-6.07-1.96-6.07-5.9v-7.22h2.55c1.7,0,3-.46,3.89-1.38,.89-.92,1.34-2.06,1.34-3.43,0-1.28-.45-2.41-1.34-3.37-.9-.96-2.19-1.44-3.89-1.44h-2.55v-24.07c0-3.93-.9-6.74-2.68-8.42-1.79-1.68-4.34-2.53-7.65-2.53-2.06,0-3.87,.48-5.44,1.44-1.57,.96-3.07,2.45-4.5,4.45l-17.72,27.44c-.54,.8-1.23,1.91-2.08,3.31-.85,1.4-1.28,2.67-1.28,3.79,0,2.81,2.59,4.21,7.79,4.21h22.42v6.74c0,4.25-.52,6.38-7.44,6.38h-55.64c-1.98,0-2.55-.96-2.55-2.14v-3.57c2.32-.58,4.5-1.49,6.5-2.69l2.52,2.52c.84,.84,2.2,.84,3.03,0l5.2-5.2c.84-.84,.84-2.2,0-3.03l-2.52-2.52c1.2-1.99,2.11-4.18,2.69-6.5h3.57c1.18,0,2.14-.96,2.14-2.14v-7.35c0-1.18-.96-2.14-2.14-2.14h-3.57c-.58-2.32-1.49-4.5-2.69-6.5l2.52-2.52c.84-.84,.84-2.2,0-3.03l-5.2-5.2c-.84-.84-2.2-.84-3.03,0l-2.52,2.52c-1.99-1.2-4.18-2.11-6.5-2.69v-3.57c0-1.18-.96-2.14-2.14-2.14h-7.35c-1.18,0-2.14,.96-2.14,2.14v3.57c-2.32,.58-4.5,1.49-6.5,2.69l-2.52-2.52c-.84-.84-2.2-.84-3.03,0l-5.2,5.2c-.84,.84-.84,2.2,0,3.03l2.52,2.52c-1.2,1.99-2.11,4.18-2.69,6.5h-3.57c-1.18,0-2.14,.96-2.14,2.14v7.35c0,1.18,.96,2.14,2.14,2.14h3.57c.58,2.32,1.49,4.5,2.69,6.5l-2.52,2.52c-.84,.84-.84,2.2,0,3.03l5.2,5.2c.84,.84,2.2,.84,3.03,0l2.52-2.52c1.99,1.2,4.18,2.11,6.5,2.69v3.57c0,1.72-1.89,2.14-4.08,2.14h-25.35c-5.02,0-6.07-1.96-6.07-5.9v-7.22h2.55c1.7,0,3-.46,3.89-1.38,.89-.92,1.34-2.06,1.34-3.43,0-1.28-.45-2.41-1.34-3.37-.9-.96-2.19-1.44-3.89-1.44h-2.55v-24.07c0-3.93-.9-6.74-2.68-8.42-1.79-1.68-4.34-2.53-7.65-2.53-2.06,0-3.87,.48-5.44,1.44-1.57,.96-3.07,2.45-4.5,4.45l-17.72,27.44c-.54,.8-1.23,1.91-2.08,3.31-.85,1.4-1.28,2.67-1.28,3.79,0,2.81,2.59,4.21,7.79,4.21h22.42v6.74c0,4.25-.52,6.38-7.44,6.38h-48.72m180.07-22.74v-24.79l-15.57,24.79h15.57Z"/></g></g><g><g><path class="i" d="M184.87,127.36h252.75c6.92,0,12.54,5.62,12.54,12.54v174.61H172.33V139.9c0-6.92,5.62-12.54,12.54-12.54Z"/><rect class="i" x="184.87" y="139.04" width="252.75" height="163.61"/></g><g><rect class="i" x="138.47" y="314.51" width="345.55" height="12.16"/><path class="e" d="M468.71,334.46H153.78c-3.44,0-6.78-1.15-9.5-3.26l-5.81-4.53H484.02l-5.81,4.53c-2.71,2.12-6.06,3.26-9.5,3.26Z"/></g></g></g></g></g><g id="c"><g id="d"><g><path class="n" d="M73.83,404.27c0,19.9-15.8,35.01-36.97,35.01S0,424.27,0,404.27s15.8-34.62,36.87-34.62,36.97,14.83,36.97,34.62Zm-56.08,.1c0,11.51,8.88,20.38,19.31,20.38s18.92-8.88,18.92-20.38-8.39-20.19-18.92-20.19-19.31,8.68-19.31,20.19Z"/><path class="n" d="M135.97,412.17c0,16.19-11.51,26.92-28.68,26.92s-28.77-10.73-28.77-26.92,11.51-26.82,28.77-26.82,28.68,10.63,28.68,26.82Zm-40.48,.2c0,8.19,4.78,13.65,11.8,13.65s11.7-5.46,11.7-13.65-4.78-13.65-11.7-13.65-11.8,5.56-11.8,13.65Z"/><path class="n" d="M202.78,412.47c0,16-9.56,26.63-24.29,26.63-6.83,0-12.39-2.73-16.09-7.61v25.94h-16.87v-71.49h16.87v6.92c3.71-4.78,9.07-7.51,15.7-7.51,14.83,0,24.68,10.83,24.68,27.11Zm-16.97-.49c0-8-4.78-13.65-11.8-13.65s-11.61,5.66-11.61,13.65,4.78,13.75,11.61,13.75,11.8-5.66,11.8-13.75Z"/><path class="n" d="M252.33,391.11l-5.75,10.92c-6.34-3.41-12.19-5.27-16.58-5.27-3.02,0-5.17,1.17-5.17,3.61,0,7.22,27.7,3.71,27.6,22.04,0,10.83-9.46,16.78-22.14,16.78-8.78,0-17.26-2.54-23.6-7.41l5.36-10.73c5.95,4.19,12.78,6.53,18.63,6.53,3.32,0,5.75-1.17,5.75-3.61,0-7.71-27.21-3.71-27.11-22.14,0-10.83,9.17-16.68,21.36-16.68,7.61,0,15.22,2.15,21.65,5.95Z"/><path class="n" d="M276.13,431.09c0,4.88-3.41,8.19-8.19,8.19s-8.1-3.32-8.1-8.19,3.41-8.1,8.1-8.1,8.19,3.32,8.19,8.1Zm-2.83-16h-10.14l-2.93-27.11v-17.36h16v17.36l-2.93,27.11Z"/></g><g><path class="n" d="M320.36,401.97l-3.92-12.88-3.96,12.88h-2.88l-5.47-16.51h3l4.01,13.42,3.99-13.4,2.74-.02,4.01,13.42,3.99-13.42h2.88l-5.52,16.51h-2.85Z"/><path class="n" d="M340.27,396.73h-9.48c.42,1.93,1.91,3.14,3.89,3.14,1.37,0,2.62-.52,3.54-1.46l1.44,1.53c-1.23,1.34-3.02,2.12-5.19,2.12-3.87,0-6.42-2.57-6.42-6.35s2.62-6.37,6.35-6.39c4.41,0,6.2,2.88,5.87,7.41Zm-2.36-1.98c-.09-2.03-1.44-3.26-3.49-3.26s-3.37,1.25-3.68,3.26h7.17Z"/><path class="n" d="M359.52,391.38l-1.49,1.75c-.87-.9-2.08-1.44-3.59-1.42-2.17,0-3.73,1.63-3.73,4.01s1.56,4.01,3.73,4.01c1.58,0,2.85-.52,3.7-1.51l1.51,1.51c-1.13,1.49-2.95,2.34-5.33,2.34-3.73,0-6.32-2.57-6.32-6.35s2.59-6.39,6.32-6.39c2.26,0,4.03,.73,5.19,2.05Z"/><path class="n" d="M369.5,400.43c-.9,1.11-2.34,1.65-4.15,1.65-2.71,0-4.41-1.68-4.41-3.89s1.72-3.75,4.74-3.77h3.8v-.38c0-1.58-1.01-2.52-3-2.52-1.2,0-2.45,.42-3.7,1.27l-1.11-1.89c1.75-1.04,3.02-1.58,5.4-1.58,3.23,0,5.05,1.65,5.07,4.41l.02,8.23h-2.67v-1.53Zm-.02-2.88v-1.16h-3.4c-1.77,0-2.59,.47-2.59,1.67,0,1.13,.92,1.86,2.43,1.86,1.93,0,3.42-1.01,3.56-2.38Z"/><path class="n" d="M387.81,394.16v7.81h-2.71v-7.05c0-1.89-1.13-3.04-3.02-3.04-2.08,.02-3.37,1.46-3.56,3.42v6.68h-2.71v-12.55h2.71v2.41c.9-1.75,2.5-2.5,4.62-2.5,2.92,0,4.67,1.84,4.67,4.84Z"/><path class="n" d="M393.45,386.96c0,.47-.17,.85-.42,1.23l-1.34,2.03h-1.39l.9-2.03c-.42-.28-.64-.73-.64-1.23,0-.9,.61-1.51,1.46-1.51,.75,0,1.44,.54,1.44,1.51Z"/><path class="n" d="M403.59,401.17c-.99,.59-2.03,.92-3.09,.92-1.89,0-3.52-1.09-3.52-3.66v-6.51h-1.77v-2.03h1.77v-3.44h2.69v3.44h3.7v2.03h-3.7v6.02c0,1.3,.5,1.7,1.34,1.7,.57,0,1.16-.19,1.89-.54l.68,2.08Z"/><path class="n" d="M420.32,390.57l-.99,2.01c-1.11-.68-2.5-1.11-3.61-1.11s-1.84,.35-1.84,1.25c0,2.31,6.68,1.06,6.65,5.61,0,2.57-2.29,3.73-4.81,3.73-1.84,0-3.8-.61-5.05-1.75l.97-1.93c1.09,.97,2.83,1.56,4.2,1.56,1.16,0,2.05-.4,2.05-1.34,0-2.57-6.6-1.13-6.58-5.66,0-2.55,2.22-3.63,4.62-3.63,1.58,0,3.26,.47,4.39,1.27Z"/><path class="n" d="M434.3,396.73h-9.48c.42,1.93,1.91,3.14,3.89,3.14,1.37,0,2.62-.52,3.54-1.46l1.44,1.53c-1.23,1.34-3.02,2.12-5.19,2.12-3.87,0-6.42-2.57-6.42-6.35s2.62-6.37,6.35-6.39c4.41,0,6.2,2.88,5.87,7.41Zm-2.36-1.98c-.09-2.03-1.44-3.26-3.49-3.26s-3.37,1.25-3.68,3.26h7.17Z"/><path class="n" d="M448.18,396.73h-9.48c.42,1.93,1.91,3.14,3.89,3.14,1.37,0,2.62-.52,3.54-1.46l1.44,1.53c-1.23,1.34-3.02,2.12-5.19,2.12-3.87,0-6.42-2.57-6.42-6.35s2.62-6.37,6.35-6.39c4.41,0,6.2,2.88,5.87,7.41Zm-2.36-1.98c-.09-2.03-1.44-3.26-3.49-3.26s-3.37,1.25-3.68,3.26h7.17Z"/><path class="n" d="M471.98,394.16v7.81h-2.71v-7.05c0-1.91-1.13-3.07-2.97-3.07-2.15,.07-3.44,1.72-3.44,3.92v6.2h-2.71v-7.05c0-1.91-1.11-3.07-2.95-3.07-2.17,.07-3.49,1.72-3.49,3.92v6.2h-2.69v-12.55h2.69v2.43c.87-1.77,2.48-2.52,4.55-2.52,2.24,0,3.77,1.11,4.36,3.02,.8-2.1,2.48-3.02,4.77-3.02,2.88,0,4.6,1.84,4.6,4.84Z"/><path class="n" d="M488.8,401.17c-.99,.59-2.03,.92-3.09,.92-1.89,0-3.52-1.09-3.52-3.66v-6.51h-1.77v-2.03h1.77v-3.44h2.69v3.44h3.7v2.03h-3.7v6.02c0,1.3,.5,1.7,1.34,1.7,.57,0,1.16-.19,1.89-.54l.68,2.08Z"/><path class="n" d="M503.07,395.69c0,3.77-2.67,6.37-6.53,6.37s-6.56-2.59-6.56-6.37,2.67-6.37,6.56-6.37,6.53,2.57,6.53,6.37Zm-10.38,.02c0,2.43,1.58,4.08,3.85,4.08s3.82-1.65,3.82-4.08-1.58-4.06-3.82-4.06-3.85,1.65-3.85,4.06Z"/><path class="n" d="M512.51,388.66c0-3,2.22-4.32,4.32-4.32,.85,0,1.67,.19,2.34,.57l-.09,2.36c-.73-.33-1.51-.54-2.17-.54-.97,0-1.7,.45-1.7,1.67v1.46h3.28v2.03h-3.28v10.07h-2.69v-10.07h-1.65v-2.03h1.65v-1.2Zm7.34-2.83c0-.97,.68-1.65,1.58-1.65s1.58,.68,1.58,1.65-.68,1.63-1.58,1.63-1.58-.68-1.58-1.63Zm2.92,3.59v12.55h-2.69v-12.55h2.69Z"/><path class="n" d="M538.79,394.16v7.81h-2.71v-7.05c0-1.89-1.13-3.04-3.02-3.04-2.08,.02-3.37,1.46-3.56,3.42v6.68h-2.71v-12.55h2.71v2.41c.9-1.75,2.5-2.5,4.62-2.5,2.92,0,4.67,1.84,4.67,4.84Z"/><path class="n" d="M554.38,401.97h-2.71v-2.15c-.9,1.46-2.41,2.26-4.41,2.26-3.61,0-6.02-2.62-6.02-6.44s2.43-6.35,5.97-6.35c2.03,0,3.54,.83,4.46,2.29v-7.12h2.71v17.5Zm-2.71-6.23c0-2.43-1.58-4.13-3.85-4.13s-3.85,1.72-3.87,4.13c.02,2.38,1.58,4.08,3.87,4.08s3.85-1.7,3.85-4.08Z"/><path class="n" d="M571.7,401.17c-.99,.59-2.03,.92-3.09,.92-1.89,0-3.52-1.09-3.52-3.66v-6.51h-1.77v-2.03h1.77v-3.44h2.69v3.44h3.7v2.03h-3.7v6.02c0,1.3,.5,1.7,1.34,1.7,.57,0,1.16-.19,1.89-.54l.68,2.08Z"/><path class="n" d="M586.34,394.16v7.81h-2.71v-7.05c0-1.89-1.13-3.04-3.02-3.04-2.24,.02-3.59,1.7-3.59,3.92v6.18h-2.71v-17.5h2.71v7.41c.9-1.77,2.5-2.55,4.65-2.55,2.92,0,4.67,1.84,4.67,4.84Z"/><path class="n" d="M601.02,396.73h-9.48c.42,1.93,1.91,3.14,3.89,3.14,1.37,0,2.62-.52,3.54-1.46l1.44,1.53c-1.23,1.34-3.02,2.12-5.19,2.12-3.87,0-6.42-2.57-6.42-6.35s2.62-6.37,6.35-6.39c4.41,0,6.2,2.88,5.87,7.41Zm-2.36-1.98c-.09-2.03-1.44-3.26-3.49-3.26s-3.37,1.25-3.68,3.26h7.17Z"/><path class="n" d="M319.28,424.05c0,3.75-2.36,6.32-5.94,6.32-2.01,0-3.52-.8-4.44-2.26v6.75h-2.71v-17.13h2.71v2.17c.92-1.46,2.43-2.26,4.39-2.26,3.56,0,5.99,2.59,5.99,6.42Zm-2.74-.09c0-2.33-1.58-4.06-3.82-4.06s-3.82,1.7-3.82,4.06,1.58,4.1,3.82,4.1,3.82-1.7,3.82-4.1Z"/><path class="n" d="M329.63,428.74c-.9,1.11-2.34,1.65-4.15,1.65-2.71,0-4.41-1.67-4.41-3.89s1.72-3.75,4.74-3.77h3.8v-.38c0-1.58-1.01-2.52-3-2.52-1.2,0-2.45,.42-3.7,1.27l-1.11-1.89c1.75-1.04,3.02-1.58,5.4-1.58,3.23,0,5.05,1.65,5.07,4.41l.02,8.23h-2.67v-1.53Zm-.02-2.88v-1.16h-3.4c-1.77,0-2.59,.47-2.59,1.67,0,1.13,.92,1.86,2.43,1.86,1.93,0,3.42-1.01,3.56-2.38Z"/><path class="n" d="M347.26,429.05c0,3.61-2.57,5.87-6.51,5.87-1.96,0-3.68-.61-5.21-1.65l1.16-1.96c1.18,.87,2.41,1.37,3.94,1.37,2.38,0,3.94-1.39,3.94-3.56v-1.58c-.85,1.37-2.26,2.12-4.15,2.12-3.4,0-5.66-2.45-5.66-6.06s2.24-5.95,5.57-5.97c1.93-.02,3.37,.75,4.25,2.12v-2.03h2.69v11.32Zm-2.69-5.38c0-2.26-1.49-3.84-3.61-3.84s-3.63,1.6-3.66,3.84c.02,2.26,1.49,3.87,3.66,3.87s3.61-1.6,3.61-3.87Z"/><path class="n" d="M362.07,425.04h-9.48c.42,1.93,1.91,3.14,3.89,3.14,1.37,0,2.62-.52,3.54-1.46l1.44,1.53c-1.23,1.34-3.02,2.12-5.19,2.12-3.87,0-6.42-2.57-6.42-6.35s2.62-6.37,6.35-6.39c4.41,0,6.2,2.88,5.87,7.41Zm-2.36-1.98c-.09-2.03-1.44-3.25-3.49-3.25s-3.37,1.25-3.68,3.25h7.17Z"/><path class="n" d="M375.92,432c-.78,1.98-2.19,2.97-4.08,2.97-1.13,0-2.03-.33-2.9-1.06l1.16-2.1c.59,.42,1.06,.61,1.63,.61,.83,0,1.49-.45,1.91-1.39l.42-.94-5.19-12.36h2.81l3.75,9.51,3.49-9.51h2.71l-5.71,14.27Z"/><path class="n" d="M394.96,424c0,3.77-2.67,6.37-6.53,6.37s-6.56-2.6-6.56-6.37,2.67-6.37,6.56-6.37,6.53,2.57,6.53,6.37Zm-10.38,.02c0,2.43,1.58,4.08,3.85,4.08s3.82-1.65,3.82-4.08-1.58-4.06-3.82-4.06-3.85,1.65-3.85,4.06Z"/><path class="n" d="M409.18,430.28h-2.71v-2.45c-.85,1.75-2.43,2.52-4.48,2.55-2.88,0-4.6-1.84-4.6-4.84v-7.81h2.71v7.05c0,1.89,1.11,3.04,2.93,3.04,2.17-.05,3.44-1.72,3.44-3.92v-6.18h2.71v12.55Z"/><path class="n" d="M415.2,415.27c0,.47-.17,.85-.42,1.23l-1.34,2.03h-1.39l.9-2.03c-.42-.28-.64-.73-.64-1.23,0-.9,.61-1.51,1.46-1.51,.75,0,1.44,.54,1.44,1.51Z"/><path class="n" d="M420.95,420.23c.85-1.7,2.36-2.59,4.34-2.59v2.59c-2.52-.14-4.13,1.34-4.34,3.49v6.56h-2.71v-12.55h2.71v2.5Z"/><path class="n" d="M438.57,425.04h-9.48c.42,1.93,1.91,3.14,3.89,3.14,1.37,0,2.62-.52,3.54-1.46l1.44,1.53c-1.23,1.34-3.02,2.12-5.19,2.12-3.87,0-6.42-2.57-6.42-6.35s2.62-6.37,6.35-6.39c4.41,0,6.2,2.88,5.87,7.41Zm-2.36-1.98c-.09-2.03-1.44-3.25-3.49-3.25s-3.37,1.25-3.68,3.25h7.17Z"/><path class="n" d="M447.61,430.28v-17.5h2.71v17.5h-2.71Z"/><path class="n" d="M466.36,424c0,3.77-2.67,6.37-6.53,6.37s-6.56-2.6-6.56-6.37,2.67-6.37,6.56-6.37,6.53,2.57,6.53,6.37Zm-10.38,.02c0,2.43,1.58,4.08,3.85,4.08s3.82-1.65,3.82-4.08-1.58-4.06-3.82-4.06-3.85,1.65-3.85,4.06Z"/><path class="n" d="M481.11,424c0,3.77-2.67,6.37-6.53,6.37s-6.56-2.6-6.56-6.37,2.67-6.37,6.56-6.37,6.53,2.57,6.53,6.37Zm-10.38,.02c0,2.43,1.58,4.08,3.85,4.08s3.82-1.65,3.82-4.08-1.58-4.06-3.82-4.06-3.85,1.65-3.85,4.06Z"/><path class="n" d="M486.77,426.76v3.51h-2.71v-17.5h2.71v10.57l5.54-5.61h3.11l-4.65,4.86,5,7.69h-3.21l-3.68-5.76-2.12,2.24Z"/><path class="n" d="M500.9,414.14c0,.94-.68,1.63-1.58,1.63s-1.58-.68-1.58-1.63,.68-1.65,1.58-1.65,1.58,.68,1.58,1.65Zm-2.92,16.14v-12.55h2.69v12.55h-2.69Z"/><path class="n" d="M516.68,422.47v7.81h-2.71v-7.05c0-1.89-1.13-3.04-3.02-3.04-2.08,.02-3.37,1.46-3.56,3.42v6.68h-2.71v-12.55h2.71v2.41c.9-1.75,2.5-2.5,4.62-2.5,2.92,0,4.67,1.84,4.67,4.84Z"/><path class="n" d="M531.64,429.05c0,3.61-2.57,5.87-6.51,5.87-1.96,0-3.68-.61-5.21-1.65l1.16-1.96c1.18,.87,2.41,1.37,3.94,1.37,2.38,0,3.94-1.39,3.94-3.56v-1.58c-.85,1.37-2.26,2.12-4.15,2.12-3.4,0-5.66-2.45-5.66-6.06s2.24-5.95,5.57-5.97c1.93-.02,3.37,.75,4.25,2.12v-2.03h2.69v11.32Zm-2.69-5.38c0-2.26-1.49-3.84-3.61-3.84s-3.63,1.6-3.66,3.84c.02,2.26,1.49,3.87,3.66,3.87s3.61-1.6,3.61-3.87Z"/><path class="n" d="M544.71,416.71v1.49h3.28v2.03h-3.28v10.05h-2.69v-10.05h-1.65v-2.03h1.65v-1.23c0-2.93,2.15-4.32,4.32-4.32,1.01,0,2.03,.28,2.83,.87l-1.04,2.08c-.52-.38-1.16-.59-1.72-.59-.92,0-1.7,.52-1.7,1.7Z"/><path class="n" d="M561.27,424c0,3.77-2.67,6.37-6.53,6.37s-6.56-2.6-6.56-6.37,2.67-6.37,6.56-6.37,6.53,2.57,6.53,6.37Zm-10.38,.02c0,2.43,1.58,4.08,3.85,4.08s3.82-1.65,3.82-4.08-1.58-4.06-3.82-4.06-3.85,1.65-3.85,4.06Z"/><path class="n" d="M566.81,420.23c.85-1.7,2.36-2.59,4.34-2.59v2.59c-2.52-.14-4.13,1.34-4.34,3.49v6.56h-2.71v-12.55h2.71v2.5Z"/><path class="n" d="M575.45,428.91c0,.92-.64,1.58-1.49,1.58s-1.49-.66-1.49-1.58,.64-1.53,1.49-1.53,1.49,.64,1.49,1.53Z"/></g><g><path class="n" d="M306.65,456.19v4.14h6.36v1.39h-6.36v4.32h7.35v1.37h-8.79v-12.6h8.55v1.39h-7.11Z"/><path class="n" d="M318.13,460.02c.63-1.39,1.8-2.14,3.4-2.16v1.42c-2-.04-3.24,1.21-3.4,3.08v5.04h-1.4v-9.49h1.4v2.11Z"/><path class="n" d="M324.82,460.02c.63-1.39,1.8-2.14,3.4-2.16v1.42c-2-.04-3.24,1.21-3.4,3.08v5.04h-1.4v-9.49h1.4v2.11Z"/><path class="n" d="M338.78,462.65c0,2.84-2,4.81-4.81,4.81s-4.81-1.96-4.81-4.81,2-4.77,4.81-4.77,4.81,1.94,4.81,4.77Zm-8.21,.02c0,2.09,1.42,3.53,3.4,3.53s3.4-1.44,3.4-3.53-1.42-3.51-3.4-3.51-3.4,1.44-3.4,3.51Z"/><path class="n" d="M342.64,460.02c.63-1.39,1.8-2.14,3.4-2.16v1.42c-2-.04-3.24,1.21-3.4,3.08v5.04h-1.4v-9.49h1.4v2.11Z"/><path class="n" d="M360.27,459.29l-.77,.99c-.72-.68-1.67-1.1-2.83-1.1-1.96,0-3.37,1.42-3.37,3.49s1.4,3.51,3.37,3.51c1.24,0,2.27-.43,2.93-1.22l.81,.86c-.85,1.03-2.16,1.64-3.8,1.64-2.75,0-4.7-1.96-4.7-4.79s1.96-4.79,4.7-4.79c1.53-.02,2.79,.5,3.66,1.4Z"/><path class="n" d="M371.18,462.65c0,2.84-2,4.81-4.81,4.81s-4.81-1.96-4.81-4.81,2-4.77,4.81-4.77,4.81,1.94,4.81,4.77Zm-8.21,.02c0,2.09,1.42,3.53,3.4,3.53s3.4-1.44,3.4-3.53-1.42-3.51-3.4-3.51-3.4,1.44-3.4,3.51Z"/><path class="n" d="M382.35,467.41h-1.4v-2.03c-.7,1.33-2,2.11-3.69,2.11-2.7,0-4.57-2-4.57-4.83s1.87-4.81,4.56-4.81c1.69,0,3.01,.77,3.71,2.12v-5.92h1.4v13.36Zm-1.4-4.72c0-2.07-1.42-3.56-3.42-3.56s-3.44,1.49-3.44,3.56,1.42,3.53,3.44,3.53,3.42-1.48,3.42-3.53Z"/><path class="n" d="M394.04,463.21h-7.74c.25,1.85,1.6,3.03,3.44,3.03,1.17,0,2.2-.42,2.94-1.19l.77,.83c-.9,1.01-2.23,1.58-3.82,1.58-2.79,0-4.72-1.96-4.72-4.79s1.94-4.79,4.7-4.79c3.06-.02,4.57,2.11,4.43,5.33Zm-1.26-1.15c-.09-1.82-1.31-2.97-3.17-2.97s-3.1,1.17-3.31,2.97h6.48Z"/><path class="n" d="M397.4,461.27c0,.54-.38,.94-.86,.94s-.88-.4-.88-.94,.38-.94,.88-.94,.86,.4,.86,.94Zm0,5.35c0,.54-.38,.94-.86,.94s-.88-.4-.88-.94,.38-.94,.88-.94,.86,.4,.86,.94Z"/><path class="n" d="M409.8,462.71v-3.33h1.35v3.33h1.91v1.39h-1.91v3.31h-1.35v-3.31h-6.05v-1.19l4.52-8.1h1.42l-4.39,7.9h4.5Z"/><path class="n" d="M424.94,461.1c0,4.07-1.85,6.34-5.2,6.34s-5.2-2.27-5.2-6.34,1.85-6.34,5.2-6.34,5.2,2.27,5.2,6.34Zm-8.95,0c0,3.4,1.3,5.11,3.75,5.11s3.75-1.71,3.75-5.11-1.3-5.11-3.75-5.11-3.75,1.69-3.75,5.11Z"/><path class="n" d="M432.5,462.71v-3.33h1.35v3.33h1.91v1.39h-1.91v3.31h-1.35v-3.31h-6.05v-1.19l4.52-8.1h1.42l-4.39,7.9h4.5Z"/></g></g></g></svg>