<?xml version="1.0" encoding="UTF-8"?><svg id="a" xmlns="http://www.w3.org/2000/svg" viewBox="0 0 553.9 562.82"><defs><style>.b{fill:#45205e;}.c{fill:#cf8d6d;}.d{fill:#fe8b92;}.e{fill:#fad2db;}.f{fill:#fac1a5;}.g{fill:#fe8b93;}.h{fill:#472361;}.i{fill:#4b2665;}.j{fill:#fec5aa;}.k{fill:#4a2564;}.l{fill:#d08f6f;}.m{fill:#44205c;}.n{fill:#ce8d6d;}.o{fill:#50266b;}.p{fill:#080605;}.q{fill:#fceaee;}.r{fill:#e07a7c;}.s{fill:#c88564;}.t{fill:#0f0a0f;}.u{fill:#3d6084;}.v{fill:#562f72;}.w{fill:#c98665;}.x{fill:#6d438e;}.y{fill:#ca8767;}.a`{fill:#d18a70;}.aa{fill:#6d428e;}.ab{fill:#855893;}.ac{fill:#472261;}.ad{fill:#4e246b;}.ae{fill:#d29171;}.af{fill:#6f448f;}.ag{fill:#482461;}.ah{fill:#fc6601;}.ai{fill:#790094;opacity:.05;}.aj{fill:#44205e;}.ak{fill:#e2a486;}.al{fill:#cd8b6b;}.am{fill:#d39272;}.an{fill:#ce8c6c;}.ao{fill:#cc8a6a;}.ap{fill:#4f2a69;}.aq{fill:#f2b79b;}.ar{fill:#875caa;}.as{fill:#cb8969;}.at{fill:#c88665;}.au{fill:#c78564;}.av{fill:#6e438e;}.aw{fill:#fefefe;}</style></defs><circle class="ai" cx="276.95" cy="276.95" r="276.95"/><path class="e" d="M476.09,506.82c10.73,2.82,21.72,4.58,32.23,8.24,4.7,1.64,9.45,3.21,13.52,6.24,6.08,4.52,5.98,9.67-.43,13.84-9.08,5.92-19.53,8.16-29.84,10.65-17.4,4.21-35.14,6.46-52.84,8.78-11.81,1.55-23.73,2.32-35.61,3.22-18.66,1.41-37.34,2.74-56.02,3.89-6.31,.39-12.66,.12-18.99,.16-5.54,1.03-11.14,.15-16.7,.47-1.77,.1-3.62-.49-5.32,.5h-63.98c-5.36-1.16-10.79-.18-16.18-.53-1.95-.13-3.95,.46-5.83-.44-17.77,.33-35.5-1.06-53.19-2.21-30.35-1.96-60.68-4.62-90.68-9.93-14.33-2.54-28.69-5.15-42.28-10.78-2.63-1.09-5.12-2.32-7.46-3.94-5.96-4.13-6.15-9.28-.25-13.57,6.16-4.48,13.47-6.34,20.6-8.52,3.95-1.21,8.01-2.1,12.05-3,1.28-.29,2.22-.64,2.34-2.08,2.18-.14,3.13,1.66,4.4,2.88,18.54,17.88,41,26.46,66.38,28.74,28.69,2.58,56.68-2.74,84.81-6.62,15-2.07,30.04-4.25,45.15-4.27,16.77-.03,33.56,1.19,50.12,4.27,12.45,2.32,24.94,4.21,37.67,3.59,1.42,.03,2.85,.03,4.27,.03,25.18,.59,50.22-.44,74.76-6.8,11.44-2.96,22.78-6.27,32.97-12.59,3.83-2.38,7.5-4.92,10.67-8.16,1-1.02,1.84-2.47,3.68-2.08Z"/><path class="q" d="M306.07,562.82c5.07-2.21,10.39-.49,15.57-.97,2.13-.2,4.3-.01,6.45,0-.02,.32-.02,.65-.02,.97h-21.99Z"/><path class="q" d="M220.08,561.85c5.79,0,11.58-.05,17.36,0,1.59,.01,3.35-.54,4.65,.97h-21.99c0-.32,0-.65-.02-.97Z"/><path class="j" d="M350.14,537.74c-14.9,1.23-29.34-2.15-43.91-4.31-7.52-1.12-15.1-1.86-22.67-2.55-4.45-.41-8.9-.29-13.39-.82-9.43-1.12-18.93,.3-28.31,1.18-13.81,1.29-27.49,3.81-41.27,5.53-14.76,1.84-29.53,3.96-44.37,4.83-16.93,1-33.78-.41-50.15-5.57-15.45-4.87-29.34-12.3-40.95-23.73-1.41-1.39-2.62-2.97-3.93-4.47-13.12-17.87-5.27-36.1,12.03-46.54,10.05-6.07,21.33-8.01,32.72-9.36,13.22-1.57,26.55-1.62,39.79-.85,12.53,.73,24.99,2.68,37.48,4.09-.23,1.91-1.79,2.74-3.14,3.63-3.32,2.19-5.68,5.13-6.93,8.86-1.06,3.17-3.05,4.31-6.38,4.23-8.77-.21-17.56-.82-26.29,.86-3.09,.59-6.03,1.62-9.04,2.24,23.63-5.95,46.94-3.91,70.03,3.07,16.92,5.11,32.66,13.22,49.11,19.52,8.7,3.33,17.51,6.32,26.85,7.36,9.82,1.52,19.45,.12,29.02-1.87,7.77-1.61,15.57-2.97,23.41-4.18,1.43-.36,2.9-.38,4.37-.42,7.09,.36,14.26-.89,21.27,1.09,2.59,.73,4.99,1.79,7.04,3.54,5.75,4.91,5.02,9.65-1.94,12.61-3.11,.26-6.24,.01-9.34,.17-.3,.05-.75-.11-.9,.03-.56,.5-.31,.49,.21,.27,1.05-.44,2.18-.3,3.28-.34,2.72-.21,5.49,.49,8.15-.54,1.43-.23,3.35-2.25,4.14,.24,.8,2.54-.12,5.23-2.96,6.03-3.25,.92-6.66,1.74-9.66,.66,1.67,.71,3.8,.45,6,.18,1.79-.21,4.48-1.43,4.87,1.55,.38,2.93-1.84,3.95-4.55,3.86-2.75,0-5.49,.05-8.24-.03,2.61,.13,5.23-.03,7.85,.1,.99,.05,2.1,.12,2.53,1.17,.51,1.25-.34,2.2-1.12,3.03-2.67,2.82-6.06,1.89-9.29,1.68-.46-.06-.9-.24-1.35-.38-.63-.2-1,.22-.35,.06s.27,.68,.29,.03c1.24,.75,3.63-.17,3.74,1.77,.12,2.23-2.85,1.07-3.77,2.5Z"/><path class="j" d="M476.09,506.82c-9.97,12.11-23.86,17.48-38.2,21.82-27.38,8.29-55.51,10.18-83.93,9.06,.18-2.3,2.35-2.52,3.77-3.34,2.69-1.55,4.58-3.58,5.38-6.6,2.86-5.59,3.35-11.6,3.16-17.72-.12-3.95-2.66-6.3-5.82-8.02-4.61-2.51-9.64-3.31-14.84-3.19-2.42,0-4.84,0-7.26,0-2.18,.09-4.39-.25-6.53,.42-1.69,.02-3.29,.71-5,.58-10.16,1.25-20.07,3.89-30.19,5.44-5.3,.81-10.57,.33-15.85,.55-12.42-1.01-23.93-5.28-35.37-9.85-13.72-5.48-26.99-12.1-41.11-16.63-5.87-1.88-11.86-3.21-17.79-4.84-.69-.38-1.04-1.02-1.36-1.69-1.11-1.96-3.14-1.52-4.87-1.81-2.19-.36-4.18-1.06-5.63-2.84-1.28-1.57-.91-3.08,.26-4.5,1.36-1.64,2.61-.9,3.75,.29,3.32,3.47,7.95,2.58,11.37,3.17-2-1.05-5.09,.2-7.86-1.09-2.05-.95-4.12-1.83-4.48-4.12-.37-2.34,1.91-3.34,3.49-4.41,3.52-2.39,7.72-2.83,11.76-3.55,1.63-.29,3.21-.73,4.84-1.02,6.12,.19,10.87,3.8,15.98,6.46,2.35,1.22,4.57,2.74,6.65,4.38,5.77,4.57,12.38,5.59,19.32,4.31,9.7-1.78,18.43-.15,26.28,6.02,10.19,8.01,21.99,7.45,33.82,5.79,12.83-1.8,25.39-5.1,38.13-7.48,7.28-.52,14.18-2.99,21.35-4.09,2.63-.4,5.31-.07,7.87-.87,1.42-.02,2.77-.57,4.19-.6,6.82-.21,13.64-.76,20.47-.52,6.42,.56,12.89,.9,19.13,2.68,6.23,1.78,12.15,4.27,15.07,6.71-7.04-5.5-17.78-8.26-29.23-8.91-9.15-1.07-18.28-.34-27.41,.24-1.7,.24-3.37,.7-5.1,.75-6.48,.34-12.73,2-19.02,3.42-1.15,.26-2.23,.64-3.41,.34-1.99-1.07-1.23-2.72-.35-3.77,5.2-6.23,10.41-12.5,18.69-14.88,22.11-4.97,44.6-4.54,66.97-3.79,13.86,.47,27.06,4.85,38.49,13.45,13.79,10.37,20.75,27.07,10.39,44.21Z"/><path class="j" d="M375.05,236.98c12.26,15.79,16.2,34.65,19.96,53.63,4.07,20.49,8.55,40.9,12.49,61.42,1.61,8.4,4.05,16.87,1.82,25.6-2.24,8.74-7.76,12.97-16.84,13.3-12.16,.44-23.17-3.92-34.21-8.04-5.75-2.15-11.3-4.86-16.92-7.37-1.51-.67-2.96-1.81-4.13,.41-2.22-2.03-4.76-3.54-7.47-4.86-13.76-6.69-27.39-13.63-40.63-21.32-2.99-1.74-6.23-3.26-7.77-6.71-.76-3.61-1.74-7.16-2.53-10.77-.55-17.91-.09-35.81-.09-53.72,0-1.7-.25-3.71,1.96-4.62,1.61,1.17,1.17,2.98,1.58,4.48,.29,1.73,.72,3.44,.78,5.2,.09,3.75-.12,7.51,.12,11.26,.63,.06,.2,.06,.16-.22-.68-4.54,.22-9.14-.58-13.69-.13-1.37-.47-2.69-.66-4.05,.02-3.62-3.85-5.87-3.37-9.67,.28-2.19-.82-5.57,1.82-6.05,2.86-.52,2.91,3.05,3.53,5.1,1.3,4.28,1.98,8.72,2.24,13.19,.22,2.11,.68,4.2,.78,6.33-.11-2.79-.71-5.53-1.01-8.31-.7-6.12-1.16-12.29-4.88-17.56-1.21-1.71-1.41-3.56,.32-4.9,2.12-1.64,3.77-.18,5.05,1.47,1.45,1.86,2.23,4.05,2.86,6.32,2.41,8.72,3.39,17.56,2.29,26.57-.24,4.78-.33,9.52,.22,14.34,.88,7.67,4.87,13.2,10.46,17.96,11.1,9.47,24.35,14.57,38.04,18.77,1.33,.41,2.64-.09,3.93,.21,6.95,3.47,14.6,4.35,22.05,5.95,1.57,.34,2.81-.13,2.41-2.03-3.77-17.82-5.18-36.18-12.19-53.32-.09-.22-1.03,3.36-3.07,3.83-2.14-.75-2.79-2.75-3.73-4.48-7.07-12.98-10.05-27.11-11.13-41.66-.65-8.78-1.61-17.57-1.11-26.41,.11-1.99-.11-4.01,.63-5.92,1.68-2.53,3.87-1.19,5.77-.56,6.75,2.27,13.18,5.26,19.07,9.31,.43,.22,.85,.48,1.24,.76,4.07,3.1,8.38,5.99,10.73,10.81Z"/><path class="ah" d="M282.05,342.81c3.98,4.72,9.62,7.05,14.83,9.86,12.01,6.48,24.21,12.6,36.35,18.83,1.92,.98,4.12,1.63,3.99,4.42-1.32,19.24,1.58,37.9,7.73,56.11-1.46,2.69-4.25,3.09-6.77,3.72-13.78,3.43-27.78,5.25-41.98,5.61-25.03,.63-49.9-1.18-74.61-5.13-3.95-.63-8.43-.48-11.32-4.22,6.46-18.5,9.09-37.51,7.66-57.06,.18-3.05,2.97-3.28,4.86-4.23,14.93-7.52,29.82-15.12,44.26-23.57,2.75-1.61,5.2-3.52,7.27-5.93,1.44-1.38,2.04-3.2,2.82-4.97,.8-1.84,1.87-2.23,2.81,0,.08,2.38,1.65,4.29,2.1,6.55Z"/><path class="j" d="M275.09,341.95c-4.88,6.59-12.56,9.13-19.29,12.91-12.46,6.99-25.23,13.43-37.86,20.09-10.87,3.64-20.92,9.34-31.98,12.5-6.89,1.97-13.76,3.64-21.02,3.49-12.97-.26-21.44-10.94-19.46-23.86,2.83-18.37,6.76-36.51,10.74-54.63,3.84-17.48,6.12-35.31,11.9-52.37,2.53-7.47,6.94-13.96,10.16-21.05,1.77-3.43,3.9-6.5,7.88-7.67,2.37,.67,3.43,3.32,5.9,3.85,6.08,5.05,12.73,8.66,20.93,8.57,.98-.01,1.92,.4,2.62,1.2,1.97,4.6,.49,9.2-.14,13.75-1.47,10.6-4.05,20.9-9.4,30.31-.89,1.57-1.5,3.38-3.41,4.11-4.55-2.16-4.75-2.14-6.14,2.88-4.28,15.49-6.52,31.41-9.58,47.15-.36,1.87,.38,3.59,.39,5.4-3.95,1.68-8.36,1.52-12.37,3.12-3.16,1.26-6.14,2.73-8.84,4.76,4.86-3.68,10.44-5.57,16.37-6.63,1.72-.31,3.71,.09,5.08-1.5,2.32-2.25,5.49-2.02,8.3-2.72,5.26-1.32,10.58-2.41,15.77-4.01,15.63-3.92,30.4-9.6,42.96-20.17,6.66-5.6,10.45-12.3,10.24-21.15-.1-3.98-.36-7.99,.44-11.95,.96-4.67,.24-9.4,.47-14.09,.02-1.4,.07-2.81,.38-4.19,.99-4.74,2.11-9.44,4.87-13.53,1.19-1.77,2.81-3.33,4.93-1.78,1.9,1.39,1.71,3.59,.33,5.34-2.71,3.43-3.37,7.52-4.14,11.6,0,1.03-.44,1.97-.59,2.96-.78,3.68-.17,7.48-.95,10.36,.22-1.92,.73-4.62,.55-7.38-.09-1.32,.42-2.54,.64-3.8,.53-3.42,1.15-6.81,2.42-10.05,.48-1.21,.81-2.95,2.31-2.81,1.86,.17,1.82,2.11,1.9,3.54,.15,2.79,.26,5.57-1.73,7.97-1.43,1.73-1.43,3.97-1.57,6.1,.04,1.05-.4,2.01-.56,3.02-.89,3.54-.18,7.14-.42,10.03,0-1.01,0-2.69,0-4.38-.08-2.27,.03-4.5,.73-6.68,.41-1.78,.24-3.64,.75-5.41,.29-1,.59-2.1,1.71-2.16,1.6-.08,1.7,1.34,1.73,2.48,.16,6.13,.41,12.29-.02,18.39-.76,10.93-.35,21.87-.34,32.79,0,5.46-1.16,10.47-3.56,15.28Z"/><path class="ar" d="M215.13,245.01c-9.4,.69-17.22-2.78-23.96-9.1-4.96-6.61-6.89-14.05-6.09-22.24,1.86-10.36,8.4-17.95,15.3-25.21,6.65-6.99,13.76-13.54,18.66-22.01,2.02-3.49,3.6-7.12,4.27-11.11,2.17-12.17-1.74-23.25-6.18-34.21-1.56-3.85-2.84-7.78-3.84-11.8-1.95-10.63,1.45-19.18,9.91-25.88,2.86-2.26,5.71-4.53,8.68-6.64,10.74-7.61,17.1-17.79,18.34-31.01,1.01-3.21,.67-6.59,1.17-9.88,.77-5.11,3.35-8.54,7.67-10.96,18.14-7.94,48.35,6.01,50.04,30.86,.48,.55,.79,1.17,.81,1.91-.02,.48-.12,.95-.27,1.41-.64,1.33-1.27,2.67-2.86,3.13-1.09-.06-1.85-.64-2.43-1.52-1.64-4.4-4.17-8.31-6.99-11.99-8.8-11.46-25.03-9.61-31.97,3.73-3.55,6.82-5.5,14.19-5.98,21.9-.02,1.59-.03,3.18-.4,4.74-.74,6.68-1.22,13.35,.31,19.98,.98,1.96,.07,4.05,.41,6.05-.18,2.23-.35,4.46-.6,6.69-1.25,7.29-4.63,13.59-9.03,19.42-2.57,3.28-5.16,6.54-7.77,9.79-5.95,6.5-5.77,14.19-3.99,22,1.77,7.76,5.4,14.94,7.51,22.61,1.19,4.31,2.25,8.65,3.28,13.01,3.52,16.36-3.16,28.77-15.13,39.15-4.09,3.24-8.61,5.68-13.64,7.13-1.74,.5-3.49,1.33-5.25,.02Z"/><path class="u" d="M210.27,432.01c10.67,3.47,21.8,4.37,32.85,5.61,19.04,2.13,38.15,3.16,57.29,2.13,15.12-.82,30.13-2.62,44.54-7.71,4.64,7.3,9.23,14.63,15.28,20.91-7.57,4.84-14.55,10.33-19.61,17.92,.05,1.84-1.47,2.2-2.68,2.86-15.63,3.11-31.03,7.37-47.04,8.47-9.33,.64-18-.96-25.4-6.76-7.75-6.08-16.04-8.13-25.69-5.82-7.34,1.75-14.02-.19-20.26-4.58-6.89-4.85-13.68-10.14-22.52-11.17-1.43,.38-1.42-.47-1.25-1.46,5.44-6.36,10.24-13.17,14.48-20.38Z"/><path class="av" d="M309.16,58.07c-.02-.75-.04-1.49-.06-2.24,19.31,2.64,29.84,14.58,32.03,35.52,1.29,12.28,.89,24.6,1.68,36.9,1.02,15.95,7.36,28.74,19.9,38.6,4.31,3.39,8.69,6.79,12.52,10.68,10.6,10.76,15.75,23.72,14.14,38.91-.99,9.34-6.63,15.71-14.31,20.53-3.68-3.32-7.36-6.63-11.04-9.95-.66-2.88,1.74-4.51,2.92-6.5,3.86-6.48,4.65-13.28,3.16-20.51-3.34-10.17-10.63-17.03-19.1-22.92-4.77-3.31-10.03-6.01-13.92-10.45-7.57-8.63-9.15-18.96-7.97-29.92,.96-8.91,2.69-17.72,4.04-26.58,.38-1.27,.61-2.56,.55-3.89,.03-3.5,0-7,0-10.49-1.03-11.45-4.23-22-12.55-30.47-2.49-2.54-5.23-4.55-8.82-5.14-1.36-.23-2.54-.73-3.16-2.09Z"/><path class="ar" d="M200.79,159.67c9.69-5.73,12.59-12.4,9.98-23.4-1.5-6.3-3.37-12.5-4.83-18.81-2.98-12.92,.55-23.98,9.97-33.21,3.44-3.38,6.97-6.67,10.39-10.08,6.42-6.4,10.45-13.91,11.92-23.03,1.56-9.71,6.31-17.73,14.93-23.06,.33,4.7-2.43,8.93-2.07,13.63-.53,15.58-7.52,27.53-20.23,36.37-4.22,2.93-8.51,5.81-11.89,9.79-5.59,6.58-7.32,13.98-4.94,22.31,1.97,8.22,5.62,15.85,8.22,23.86,2.04,6.3,1.87,12.68,1.84,19.11-1.33,11.19-8.04,19.39-15.42,27.1-5.39,5.63-10.94,11.1-15.69,17.29-3.46,4.51-6.19,9.41-7.2,15.11-1.32,4.34-.25,8.54,.79,12.72,.33,1.34,.72,2.92-.81,3.46-1.14,.4-1.94-.99-2.6-1.95-7.62-10.99-9.52-22.75-4.7-35.38,1.3-3.41,2.69-6.78,4.28-10.06,4.09-6.99,9.81-12.64,15.22-18.56,.96-1.06,2.53-1.6,2.85-3.22Z"/><path class="av" d="M200.79,159.67c1.88,2.02-.62,2.56-1.36,3.32-5.49,5.67-10.63,11.63-15.35,17.96-10.81,18.47-10.72,31.41,.74,48.02,.63,.91,1.86,1.52,1.26,2.94-3.18,1.75-4.53,5.51-7.83,7.12-15.46-8.54-24.71-20.97-24.1-39.28,.43-12.96,6.07-22.9,17.91-28.91,9.21-4.68,19.11-7.54,28.72-11.18Z"/><path class="as" d="M195.79,452.39c.42,.49,.84,.97,1.25,1.46-3.39,1.89-7.39,.99-10.89,2.43-3.03,1.24-7.65,2.09-7.35,5.53,.34,4.02,5.07,4.1,8.5,4.02,3.1-.08,5.07,1.73,7.33,3.37-5.15-2.07-11.22-.22-15.91-4.11-.93-.77-1.75-3.03-3.38-.7-1.46,2.09-.27,3.23,1.46,4.35,3.02,1.96,6.86,.36,9.82,2.42,.05,.04-.02,.32-.1,.46-.08,.14-.24,.23-.36,.34-2.5,1.29-4.96,.4-7.42-.16-.67-.47-1.49-.39-2.24-.59,.62,.34,1.41,.1,2.01,.56,2.42,1.19,5.4,.14,7.65,1.97,19.1,3.43,36.46,11.76,54.16,19.17,12.82,5.36,25.64,10.81,39.72,12.04-.39,2.37-1.88,1.19-3.08,.96-11.17-.54-21.28-4.88-31.43-8.92-18.17-7.24-35.71-16.15-54.98-20.48-16.94-3.81-33.95-5.44-51.22-2.63-4.24,.69-8.04,2.77-13.38,4.44,3.14-3.79,6.49-4.45,9.61-5.34,9.74-2.78,19.75-2.36,29.69-2.02,3.79,.13,5.93-.45,7.09-4.69,1.48-5.39,6.22-8.39,10.89-11.07,4.19-.92,8.38-1.85,12.56-2.77Z"/><path class="ap" d="M250.2,42.02c0-4.85,1.38-9.41,2.96-13.93,1.78-1.39,3.1-3.66,5.91-3.11-5.61,4.87-7.15,11.28-7.06,18.36,.01,.92-.54,1.86-.83,2.78-1.21-1.16,0-2.89-.97-4.1Z"/><path class="an" d="M363.92,528.78c-1.88,4.59-5.72,6.98-9.96,8.92-1.27,.01-2.54,.02-3.81,.04-.13-2.27,2.18-1.49,3.15-2.48-1.77-.51-3.48-1.01-5.19-1.51-.05-1.85,.96-1.47,2.03-.97,3.93-.35,8.67,1.84,11.28-3.57-4.23-1.17-8.69,.8-13.61-2.26h12.31c1.18,.78,3.19-.14,3.8,1.82Z"/><path class="ao" d="M363.92,528.78c-1.27-.61-2.53-1.22-3.8-1.83,2.09-.1,3.9-1.13,3.39-3.23-.41-1.67-2.69-1.01-3.91-.65-3.2,.94-6.05-.11-9.02-1.35,2.76,0,5.55,.26,8.27-.08,2.31-.29,5.2-.1,6.16-3.16,.89-2.8,0-3.81-2.85-2.61-1.05,.46-2.1,.92-2.05-.96,6.18-2.28,7.01-6.2,2.12-10.49-3.79-3.32-8.46-4.39-13.32-4.56-4.96-.18-9.93-.11-14.89-.15-.56-.61-1.62-.14-2.09-.96,1.91-1.49,4.11-.75,6.21-.81,2.63,.65,5.25,.66,7.88-.01,3.38-.44,6.61,.53,9.78,1.35,10.73,2.76,13.99,9.37,10.79,21.5-.72,2.71-1.76,5.34-2.66,8Z"/><path class="an" d="M276.95,505.89c1.09-.13,2.3,.17,3.08-.96,15.1,1.08,29.51-3.22,44.16-5.66,.97-.16,1.96-.21,2.94-.32,.85,.81,2.23-.08,3.02,.93-16.58,2.77-32.84,7.92-49.95,6.93-1.16-.07-2.34-.01-3.26-.92Z"/><path class="ae" d="M360.11,514.92c.46,.79,1.25,.89,2.05,.96-2.91,1.83-6.1,.72-9.16,.84-.85-.84-2.26,.09-3.05-.97,3.26-1.82,6.78-.56,10.17-.84Z"/><path class="s" d="M330.16,499.88c-1.06-.13-2.26,.17-3.02-.93,1.6-.06,3.19-.13,4.79-.19,.69,.32,1.39,.64,2.09,.96-1.28,.05-2.57,.11-3.85,.16Z"/><path class="s" d="M349.94,515.75c1.06,.18,2.29-.16,3.05,.97-1.14,.05-2.42,.45-3.39,.06-1.67-.66-.28-.83,.35-1.03Z"/><path class="am" d="M350.14,532.79c-.8,.06-1.58,.17-2.04,.97-.76-.27-1.93-.9-1.33-1.5,1-1,2.36-.47,3.37,.53Z"/><path class="n" d="M398,465.95c12.34,1.22,24.12,3.78,32.45,14.28-2.68-1.89-5.22-4.03-8.06-5.63-7.49-4.21-15.7-6.07-24.21-6.78-1.78-.15-3.69,.42-5.27-.91,1.52-1.27,3.53,.09,5.09-.96Z"/><path class="l" d="M337.94,473.72c.89-.95,1.79-1.91,2.68-2.86,6.54-1.19,13.09-2.4,19.64-3.56,1.27-.22,2.58-.24,3.87-.35,.85,.84,2.24-.08,3.03,.95-9.74,1.94-19.48,3.88-29.22,5.82Z"/><path class="al" d="M398,465.95c-1.46,1.55-3.4,.61-5.09,.96-7.3,.28-14.6,.55-21.9,.83-.56-.62-1.62-.15-2.09-.97,5.79-1.99,11.77-.69,17.66-1,3.79-.2,7.61,.1,11.42,.18Z"/><path class="aq" d="M186.15,473.73c-2.74-.38-5.56-.41-8.04-1.87-.34-.17-.45-.35-.35-.54,.1-.19,.21-.29,.32-.29,2.59,1.17,5.37,.67,8.07,.91,0,.6,0,1.19,0,1.78Z"/><path class="at" d="M346.01,497.94c-2.62,1.42-5.25,1.41-7.88,.01,2.63,0,5.25,0,7.88-.01Z"/><path class="au" d="M368.92,466.77c.7,.32,1.39,.65,2.09,.97-1.28,.05-2.56,.11-3.85,.16-1.06-.15-2.27,.17-3.03-.95,1.6-.06,3.19-.12,4.79-.18Z"/><path class="ah" d="M343.8,340.78c-.75,.83-1.26,1.67-2.81,1.21-15.31-4.62-30.02-10.32-41.92-21.59-9.04-8.57-10.06-19.16-8.06-30.59-.18-1.21,.34-2.1,1.27-2.8,.55-.37,1.12-.74,1.75-.93,16.64-4.93,23.11-17.62,25.66-33.41,2.49-15.37,.21-30.42-2.9-45.42,2.62-2.55,4.79-.12,7.11,.64,.9,.44,1.79,.91,2.7,1.35,2.99,1.41,6.11,2.49,9.14,3.78,1.37,.58,3.46,.54,3.36,2.9-.13,17.59,.16,35.16,3.99,52.43,2.1,9.44,5.51,18.4,10.93,26.5,1.55,1.52,1.09,3.38,.72,5.13-2.61,12.29-5.33,24.54-8.47,36.71-.41,1.58-.79,3.25-2.48,4.09Z"/><path class="av" d="M339.1,215.92c-4.38-1.93-8.75-3.86-13.13-5.79-9.89-14.26-9.96-30.14-7.73-46.43,2.1-15.33,6.7-30.18,8.85-45.49,2.1-14.94-.17-29.13-8.06-42.21-1.67-2.76-3.81-5.03-6.87-6.27-2.62-2.01-5-4.19-5.08-7.86,.61-1,1.22-2.01,1.82-3.01,15.8,2.94,20.31,15.48,24.06,28.52,1.91,6.63,.95,13.51,1.08,20.28-1.92,10.43-4.01,20.87-4.79,31.42-1.06,14.4,3.43,26.53,16.66,34.24,6.5,3.79,12.42,8.31,17.36,14.06,3.64,4.23,6.48,8.82,7.72,14.31,1.69,9.69-2.12,17.63-7.92,24.94-7.54-4.6-15.39-8.49-23.97-10.75Z"/><path class="aw" d="M343.8,340.78c3.24-13.84,6.49-27.68,9.69-41.53,.33-1.43,.36-2.93,.54-4.4-.11-2.39,.03-5.65,2.26-6.02,2.66-.44,2.98,3.14,3.52,5.11,3.02,11.01,5.35,22.19,7.27,33.45,1.06,6.19,2.25,12.36,3.5,18.52,.36,1.79,.45,3.16-1.93,2.63-7.43-1.65-14.84-3.36-22.25-5.1-1.35-.32-2.4-1.13-2.59-2.67Z"/><path class="y" d="M292.2,287.76c-.4,.69-.79,1.37-1.19,2.05-1.12-5.63,.39-11.34-.81-17.03-1.13-5.34-1.69-10.8-4.62-15.56-.72-1.16-1.69-2.95-3.47-1.67-1.43,1.03-1.05,2.47-.1,3.94,3.62,5.6,4.32,12.02,4.96,18.44-.61,.56-.15,1.6-.95,2.08-.77-4.19-1.39-8.41-2.37-12.54-.48-2.01-.79-4.26-2.68-5.8-3.23,5.65,1.58,10.19,1.96,15.28-.56,.57-.12,1.57-.9,2.05-1.37-1-.43-2.85-1.89-4.56v59.31c.23,1.21,1.42,2.74-1.01,3.08-.03-.16,0-.36-.1-.48-.17-.21-.41-.37-.62-.55-.71,2.26-.8,4.85-3.32,6.13,2.75-8.55,1.86-17.37,2.03-26.12,.23-12.43,.59-24.86,.81-37.3,.03-1.54,.53-3.19-.53-4.86-2.53,2.01-.25,5.35-2.28,7.31-.76-.48-.33-1.5-.93-2.04-.13-5.85,5.12-10.88,2.32-17.32-3.37,3.45-2.48,8.45-4.4,12.36-.75-.47-.33-1.47-.9-2.02,.82-4.2,1.43-8.45,4.1-12.03,1.1-1.47,1.46-3.47,.02-4.47-1.96-1.36-2.76,.82-3.62,2.15-2.45,3.79-3.12,8.24-4.56,12.4-.89-.22-1.47-.77-1.76-1.63-.29-4.72,1.73-8.74,4.04-12.6,1.21-2.02,2.87-3.88,5.58-3.51,2.52,.35,3.4,2.37,3.77,4.69,.08,.55,.91-.26,.28-.04-.25,.09-.34-.06-.25-.43,1.1-4.64,3.88-5.68,7.39-2.66,4.06,3.48,5.25,8.43,6.18,13.34,1.3,6.85,2.17,13.76-.18,20.61Z"/><path class="k" d="M363.08,226.67c.23-.94,.17-2.11,.72-2.78,5.25-6.45,7.7-13.66,6.31-22,.67-.51,.2-1.56,.97-2.02,2.97,9.28,.03,17.3-5.31,24.8-.57,.8-1.16,1.57-1.75,2.36-.31-.12-.63-.24-.94-.36Z"/><path class="w" d="M283.12,280.79c1.87,5.37,.62,10.8,.32,16.24-1.85-4.28-1.11-8.78-1.23-13.2,.79-.87-.09-2.23,.91-3.04Z"/><path class="s" d="M286.02,280.02c.32-.69,.63-1.39,.95-2.08-.09,4.1,2.11,8.15,.07,13.56-1.45-4.54-.82-8.06-1.02-11.48Z"/><path class="a`" d="M279.13,336.84c1.17-.75,.87-1.99,1.01-3.08,.88,2.97,2.53,5.77,1.9,9.05-1.67-1.65-2.58-3.67-2.91-5.97Z"/><path class="au" d="M283.12,280.79c-.11,1.07,.17,2.26-.91,3.04-.06-1.61-.12-3.22-.18-4.84,.3-.68,.6-1.36,.9-2.04,.06,1.28,.12,2.56,.19,3.84Z"/><path class="ah" d="M215.13,245.01c6.67-1.13,12.61-3.93,18.01-7.94,2.28,4.77,1.35,10.02,2.24,15,2.22,12.43,6.24,23.68,17.82,30.67,3.62,2.18,7.71,2.93,11.57,4.39,.74,.41,1.23,1,1.37,1.85,0,2.5-.21,5.02,.04,7.49,1.35,13.29-4.9,22.32-15.39,29.68-11.81,8.29-24.95,13.06-38.67,16.7-1.51-1.2-2.16-2.87-2.63-4.67-3.36-12.84-6.34-25.77-9.13-38.75-.51-2.38-1.21-5.01,1.77-6.54,7.08-10.3,10.06-22.04,11.94-34.14,.71-4.55,1.4-9.12,1.06-13.75Z"/><path class="aw" d="M202.13,292.91c-.96,1.82-1.11,3.64-.6,5.71,3.59,14.73,7.07,29.49,10.59,44.24-8.36,2.02-16.73,4.04-25.09,6.06h.01c-1.34-1.29-2.29-2.63-1.83-4.74,3.49-16.18,5.65-32.64,9.96-48.66,.22-.8,.42-1.63,.83-2.34,.9-1.54,.66-4.37,2.51-4.55,2.3-.23,2.46,2.73,3.61,4.27Z"/><path class="ag" d="M186.09,231.92c-5.3-6.69-9.75-13.92-10.56-22.57-.98-10.49,1.65-20.15,8.56-28.39-1.94,5.09-4.28,10.07-5.75,15.29-3.31,11.75,.06,22.2,7.9,32.77-.63-3.65-.79-6.29-1.58-8.74-.94-2.94,.25-5.57,.53-8.33,.92-.16,1.48,0,1,1.11-1.06,8.22,2.62,15.4,4.98,22.87-2.7-.06-3.21-2.89-5.08-4Z"/><path class="n" d="M187.03,348.93c-2.02,1.73-4.61,1.59-6.99,2.2-5.99,1.54-11.54,4.06-16.56,8.64,2.67-6.52,13.52-11.29,23.56-10.83h-.02Z"/><path class="w" d="M266.14,288.99l-1.08-1.08c-2.33-5.22-2.08-10.48-.22-15.76,2.19-1.29,1.4,1.14,2.11,1.7-.39,5.04,1.1,10.19-.81,15.15Z"/><path class="c" d="M271.95,277.82c-.38,4.18-.75,8.35-1.13,12.53l-1.5-.12c.66-5.14,.1-10.34,1.7-15.44,1.02,.79,.13,2.17,.92,3.03Z"/><path class="am" d="M274.99,287.82c-.07,3.15,.64,6.37-1.08,9.4-.78-5.15-1.63-10.27,.12-15.41,1.3,1.85-.17,4.13,.95,6.01Z"/><path class="s" d="M274.99,287.82c-1.7-1.78-.51-4.02-.95-6.01,.05-.96,.1-1.92,.16-2.87,.31,.68,.62,1.36,.93,2.04-.04,2.28-.09,4.56-.13,6.84Z"/><path class="s" d="M271.95,277.82c-1.09-.77-.78-1.97-.92-3.03,.06-.95,.12-1.9,.18-2.84,.3,.67,.6,1.35,.9,2.02-.05,1.28-.11,2.57-.16,3.85Z"/><path class="s" d="M266.94,273.84c-.3-.69-.61-1.38-.91-2.07-.82-1-.77-1.96,.15-2.87,.32,.37,.64,.73,.96,1.1-.07,1.28-.13,2.56-.2,3.84Z"/><path class="j" d="M266.18,268.9c-.05,.96-.1,1.92-.15,2.87-2.04,5.27-.45,10.77-.98,16.13-14.44-1.74-23.1-10.39-27.97-23.51-3.28-8.82-4.06-18.01-3.94-27.33,11.54-10.09,18.02-22.18,14.98-38.02,1.5-3.68,2.89-7.43,6.46-9.74,2.17-.3,3.77,.97,5.45,1.98,12.16,7.34,24.29,7.61,36.39-.15,1.25-.8,2.51-1.61,4.07-1.66,1.08,.1,1.83,.79,2.37,1.61,3.66,5.53,7.75,10.66,13.37,14.37,.56,.37,.84,1,.94,1.68,2.95,3.76,2.64,8.42,3.29,12.74,2.35,15.5,2.92,30.94-2.8,45.97-4.53,11.9-12.9,19.35-25.47,21.91-.18-8.95,.68-18.01-2.9-26.59-.45-1.07-.7-2.25-1.3-3.23-1.29-2.13-2.62-4.69-5.32-4.82-3.05-.15-2.74,3.27-4.07,5.07-1.28-1.8-1.01-5.15-3.97-5.08-2.79,.06-4.08,2.65-5.14,4.92-1.61,3.46-3.12,6.98-3.32,10.88Z"/><path class="j" d="M307.08,61.89c1.66,2.34,3.32,4.68,4.98,7.02,.97,.49,1.78,1.16,2.38,2.08,12.75,26.25,11.68,51.96-3.22,77.02-3.09,5.19-7.67,9.14-12.31,12.95-13.48,9.1-27.07,9.4-40.76,.48-3.59-2.46-6.36-5.8-9.44-8.81-.63-.7-1.18-1.46-1.71-2.23-2.16-3.22-5.09-6.08-5.05-10.38,2.41-3.03,4.81-6.07,7.22-9.1,.99-.85,2.16-.62,3.3-.51,4.18,.4,7.65-.99,9.43-4.84,1.77-3.83,1.46-7.72-1.6-11.01-.79-.85-1.52-1.73-2.13-2.71-.04-2.23-.38-4.51,.91-6.55,1.16-2.74,2.73-5.52-.88-7.73-.2-4.33-.06-8.65-.08-12.98,.02-.79,.05-1.59,.39-2.33,.87-.73,3.28-.86,.99-2.83-.54-.47-.31-1.54-.18-2.34,3.38-9.62,7.61-18.59,17.81-22.92,1.45-.48,2.97-.73,4.43-1.19,2.59-.47,5.18-.53,7.77-.03,.97,.24,1.89,.65,2.8,1.04,3.95,.94,7.35,3.04,10.81,5.05,.85,.43,1.41,1.2,2.1,1.82l2.05,1.03Z"/><path class="ad" d="M241.93,140.03c1.96,3.33,3.93,6.65,5.89,9.98,2.38,10.84,6.64,21.13,9.14,31.94,.42,3.1,.02,5.93-2.67,8-1.78,3.23-3.27,6.64-6.18,9.1-2.9-11.59-7.19-22.75-10.66-34.15-2.64-8.68-3.5-17.76,4.48-24.87Z"/><path class="h" d="M281.19,53.99c-.93,1.98-2.7,.63-4.03,1.02-.28,.19-.58,.34-.91,.38-8.55,1.18-14.18,5.25-14.6,14.6-.05,1.14-.52,2.26-.91,3.36-.22,.5-.58,.84-1.09,1.03-.54,.09-1.02-.05-1.42-.43,.7-9.23,2.88-18.05,8.36-25.64,6.96-9.63,18.86-11.35,28.01-3.92,5.2,4.22,9.1,9.62,10.42,16.47-.8,.11-1.55,.06-2.07-.69-2.88-3.83-4.96-8.22-8.5-11.62-6.07-5.83-11.36-6.96-19.33-3.71,5.82,.17,11.21,1.52,15.76,5.28,2.46,2.03,2.58,2.87,1.04,5.01l-1.88-1.09c-3.28-1.92-6.57-3.89-10.38-4.56-4.69-.82-8.85,.4-13.05,4.18,3.61-1.05,6.47-2.04,9.49-1.91,1.95,.08,4.09-.11,5.07,2.23Z"/><path class="g" d="M258.16,111.86c5.46,2.7,7.72,8.21,5.56,13.56-2.14,5.32-7.59,7.38-14.57,5.51,3.98-5.89,7.27-12.12,9-19.07Z"/><path class="k" d="M250.2,42.02c1.38,1.12,.69,2.72,.97,4.1-.57,14.15-8.13,24.16-19.04,32.2-1.47,1.08-2.91,2.22-4.43,3.21-9.85,6.43-15.25,15.05-13.5,27.23,.49,1.12-.08,1.3-1.02,1.16-2.96-10.78,.66-20.4,10.59-27.8,5.19-3.86,10.43-7.6,15.08-12.19,7.86-7.76,10.49-17.42,11.35-27.91Z"/><path class="k" d="M186.19,213.04c-.33-.37-.67-.74-1-1.11,2.17-11.21,10.03-18.78,17.26-26.68,5.58-6.09,11.76-11.62,16.07-18.83,2.34-3.91,3.82-8.04,4.72-12.44,1.88,.02,1.31,1.12,.94,2.13-.82,7.44-4.89,13.3-9.55,18.71-5.83,6.78-11.97,13.3-18.07,19.84-4.94,5.31-8.33,11.45-10.37,18.37Z"/><path class="h" d="M333.12,107.96c.07-9.58,.4-19.16-3.28-28.35-4-10-10.34-17.48-20.94-20.73,.12-.26,.2-.53,.26-.81,16.51,3.22,21.1,16.33,24.85,30.07,.6,2.2,.68,4.55,1,6.83-.76,3.98-.74,7.95-.01,11.93,.03,1.14,.19,2.31-.89,3.13-.77-.48-.33-1.54-.99-2.08Z"/><path class="i" d="M224.18,156.12c-.31-.71-.63-1.42-.94-2.13,1.36-12.84-3.22-24.4-7.65-36.02-.99-2.61-1.61-5.36-2.41-8.05,.34-.38,.68-.77,1.02-1.15,3.17,9.15,6.6,18.23,9.44,27.48,1.99,6.47,2.55,13.19,.53,19.88Z"/><path class="k" d="M258.92,83.9c.07,5.05,.13,10.1,.2,15.16l.09,.64c-.86-.03-1.95-.21-1.94-1.14,.08-6.58-1.11-13.22,.76-19.73,1.89,1.41-.14,3.51,.89,5.07Z"/><path class="t" d="M259.2,99.7c.14-.24,.11-.45-.09-.64,.86-.65,1.62-1.87,2.88-.87,.84,.67,.76,1.65,.5,2.67-.5,2.01-1.58,3.51-3.43,4.45-1.88-1.92,.34-3.73,.14-5.61Z"/><path class="m" d="M258.92,83.9c-1.43-1.49-.55-3.39-.89-5.07,.07-1.62,.14-3.25,.2-4.87,.29,0,.57,0,.86,0,1.07,2.69,.77,5.38,.03,8.08-.07,.62-.14,1.25-.2,1.87Z"/><path class="ac" d="M333.12,107.96c.8,.47,.93,1.26,.99,2.07-1.14,8.5-2.16,17.02-3.44,25.49-2.1,13.92,1.3,28.34,14.99,36.54,8.84,5.3,17.12,11.37,22.53,20.51,1.34,2.27,2.93,4.46,2.89,7.28-.04,.81-.17,1.57-.97,2.02-3.37-12.94-12.85-20.9-23.63-27.02-13.38-7.59-19.81-22.06-17.76-37.97,1.24-9.7,2.95-19.29,4.41-28.94Z"/><path class="ac" d="M335,106.9c-1.48-3.98-1.5-7.96,.01-11.93,0,3.98,0,7.95-.01,11.93Z"/><path class="f" d="M178.07,471.03c.02,.27,.03,.55,.04,.82-1.7-.38-4.07,1.08-5.14-2.08,2.11-.57,3.44,1.16,5.1,1.26Z"/><path class="ad" d="M298.07,159.94c14.44-10.96,20.78-26.23,23.02-43.61,2.05-15.92-.87-31.01-7.82-45.39,3.5-.61,4.52,2.52,5.75,4.44,8.44,13.18,10.56,27.77,8.47,43.02-2.14,15.59-7.13,30.64-8.9,46.31-1.62,14.32-2.19,28.51,5.48,41.62,.53,.91,.74,1.85-.05,2.75-2.41-.19-4.22-2.54-6.85-1.95-7.2-4.03-12.39-9.93-16.12-17.21-1.19-.74-1.95-1.84-2.31-3.14-2.46-8.89-3.53-17.82-.66-26.84Z"/><path class="b" d="M324.02,209.08c-1.66-4.1-3.76-8.09-4.89-12.34-4.36-16.29-1.88-32.48,1.37-48.6,3.04-15.03,7.97-29.82,6.52-45.45-1.11-12.02-3.92-23.44-13.76-31.75-.4-.67-.81-1.35-1.21-2.02,4.12-.49,5.87,2.93,7.46,5.4,8.59,13.38,11.42,28.24,8.87,43.79-2.56,15.64-6.56,31.05-8.94,46.71-2.2,14.52-2.2,29.09,6.17,42.26,.54,.85,1.67,1.88,.36,3.05-.65-.35-1.3-.7-1.96-1.05Z"/><path class="ak" d="M298.07,159.94c-.76,10.17-.44,20.22,2.98,29.98-6.92,4.13-13.6,8.35-22.33,8.18-7.43-.15-13.91-2.21-20-6.1-1.39-.89-2.69-1.92-4.42-2.05,.62-2.65,2.12-5.08,1.99-7.92-.26-1.66-.18-3.34-.28-5.01,.94-3.56,.5-7.21,.64-10.82,.08-2.11-.29-4.33,1.24-6.15,13.42,8.4,26.82,9.19,40.19-.1Z"/><path class="d" d="M300.61,110.9c6.78-.02,10.5,3.68,10.5,10.43,0,6.11-4.27,10.59-10.09,10.58-5.81,0-10.81-4.92-10.92-10.76-.12-5.64,4.6-10.24,10.51-10.25Z"/><path class="x" d="M291.94,55.14c-.18-3.28-4.45-7-9.34-8.1-1.77-.4-3.56-.9-5.34-.94-1.75-.05-3.52,.42-5.41,.67,3.48-5.02,11.16-6.93,17.19-3.75,6.96,3.67,11.86,9.35,13.93,17.15-3.8-1.4-6.93-4.27-11.02-5.04Z"/><path class="aa" d="M281.19,53.99c-5.66-2.53-10.87-.11-16.55,1.78,1.38-5.33,5.47-6.88,9.59-7.55,6.17-1,11.75,.63,15.82,5.83-2.96-.02-5.91-.04-8.87-.06Z"/><path class="o" d="M257.88,160.05c.04,5.97,.93,11.98-.86,17.86-.74,.12-1.34-.16-1.53-.86-2.09-7.56-5.11-14.84-6.81-22.53-.22-1-.4-1.93,.46-2.72,2.91,2.75,5.83,5.49,8.74,8.24Z"/><path class="af" d="M260.05,73.92c.04-2,.66-3.97,.75-5.88,.48-10.19,7.06-13.2,16.37-13.03-9.1,4.73-13.33,13.2-16.98,22.12-.84-1.03-.73-2.11-.14-3.21Z"/><path class="p" d="M298.62,106.17c-3.21-.13-5.58-2.04-6.43-5.73-.23-.98-.18-2.06,1.03-2.44,1.18-.38,1.56,.38,2.12,1.36,2.86,4.97,5.12,4.99,8.41,.13,.68-1.01,1.09-2.2,2.52-1.59,1.49,.64,.96,2.01,.52,3-1.44,3.26-3.76,5.38-8.16,5.29Z"/><path class="aj" d="M249.14,151.81c1.66,8.99,4.89,17.51,7.89,26.1,.12,1.44,.32,2.89-.73,4.12-3.52-9.93-6.88-19.91-9.12-30.23-.11-.52,.42-1.19,.66-1.79,.44,.6,.87,1.2,1.31,1.8Z"/><path class="r" d="M285.8,129.77c-1.05,4.12-3.71,7.04-7.9,6.9-3.79-.13-7.22-2.04-7.91-7.62,2.84,2.6,4.41,5.79,7.98,5.8,3.71,.01,5.36-3.11,7.83-5.07Z"/><path class="ab" d="M293.47,81.61c5.18-2.82,9.64-1.69,12.94,3.22-3.93-2.73-8.33-3.37-12.94-3.22Z"/><path class="n" d="M283.39,117.18c-4.24,5-7.58,4.8-11.68-1.48,4.29,3.4,7.85,4.02,11.68,1.48Z"/><path class="v" d="M260.05,73.92c.05,1.07,.09,2.14,.14,3.21,.05,.94-.27,2.22,.22,2.75,2.32,2.51-.33,1.77-1.29,2.14,0-2.69-.02-5.39-.03-8.08,.32,0,.64,0,.95-.03Z"/></svg>