<?xml version="1.0" encoding="UTF-8"?><svg xmlns="http://www.w3.org/2000/svg" viewBox="0 0 774.21 634.12"><defs><style>.d{fill:#92acef;}.e{fill:#fff;}.f{fill:#e79f33;}.g{fill:#111;}.h{fill:#ef4910;}.i{fill:#003f5a;}.j{fill:#fbb348;}</style></defs><g id="a"/><g id="b"><g id="c"><g transform="translate(320.0 186.0) rotate(0.0 280.0 214.0)  scale(0.28476077298311825 0.2849579487288745)"><path class="j" d="M300.49,457.98l32.47,4.62-6.23,61.39-50-9.58,23.76-56.44Z"/><path class="g" d="M326.73,525.05c-.06,0-.12,0-.17-.02l-50-9.58c-.54-.1-.89-.65-.8-1.22,.01-.09,.04-.17,.07-.25l23.76-56.44c.18-.43,.6-.68,1.03-.61l32.47,4.62c.53,.08,.91,.59,.85,1.16l-6.23,61.4c-.05,.54-.48,.94-.98,.94h0Zm-48.58-11.43l47.72,9.14,6.02-59.25-30.79-4.38-22.94,54.49Z"/><path class="j" d="M469.41,457.98l-32.47,4.62,6.23,61.39,50-9.58-23.76-56.44Z"/><path class="g" d="M443.18,525.05c-.5,0-.92-.41-.98-.94l-6.23-61.39c-.06-.57,.32-1.09,.85-1.16l32.47-4.62c.43-.06,.85,.19,1.03,.61l23.76,56.44c.22,.53,0,1.16-.49,1.4-.07,.04-.15,.06-.23,.08l-50,9.58c-.06,.01-.11,.02-.17,.02h0Zm-5.15-61.54l6.01,59.25,47.71-9.14-22.94-54.49-30.79,4.38Z"/><path class="e" d="M385.57,438.65v194.41s-79.08-15.49-66.34-110.42c1.87-13.99,9.37-20.61,10.11-34.14,1.15-21-7.08-27.59-7.08-27.59,0,0,37.83-29.92,63.31-22.26h0Z"/><path class="g" d="M385.57,634.12c-.06,0-.12,0-.18-.02-.2-.04-20.23-4.1-38.39-19.83-10.68-9.25-18.66-20.67-23.69-33.93-6.28-16.55-7.99-36.01-5.06-57.85,.91-6.8,3.11-11.86,5.23-16.76,2.31-5.34,4.5-10.38,4.87-17.29,.57-10.51-1.28-17.21-2.94-20.99-1.79-4.06-3.73-5.68-3.75-5.7-.43-.35-.52-1.02-.19-1.48,.06-.08,.12-.15,.2-.21,7.04-5.35,14.49-10.07,22.26-14.1,17-8.77,31.1-11.57,41.9-8.33,.43,.13,.72,.54,.72,1.02v194.41c0,.58-.44,1.06-.98,1.06h0Zm-61.76-173.1c2.23,2.52,7.45,10.33,6.51,27.54-.4,7.31-2.66,12.53-5.05,18.06-2.06,4.76-4.2,9.69-5.07,16.17-2.88,21.46-1.22,40.56,4.93,56.75,4.91,12.93,12.69,24.06,23.11,33.09,15.29,13.24,31.87,18.02,36.34,19.13v-192.3c-22.48-6.06-54.79,17.07-60.77,21.56h0Z"/><path class="e" d="M386.51,438.65v194.41s79.08-15.49,66.34-110.42c-1.88-13.99-9.37-20.61-10.11-34.14-1.14-21,7.08-27.59,7.08-27.59,0,0-37.83-29.92-63.31-22.26h0Z"/><path class="g" d="M386.51,634.12c-.54,0-.98-.47-.98-1.06v-194.41c0-.47,.29-.89,.72-1.02,10.8-3.25,24.9-.44,41.9,8.33,7.77,4.03,15.21,8.75,22.26,14.1,.44,.35,.53,1.01,.21,1.48-.06,.08-.13,.16-.2,.22-.02,.01-1.96,1.63-3.74,5.69-1.66,3.77-3.52,10.48-2.95,20.99,.38,6.91,2.56,11.95,4.88,17.29,2.12,4.9,4.32,9.97,5.23,16.76,2.93,21.84,1.23,41.3-5.06,57.85-5.04,13.26-13.01,24.68-23.69,33.93-18.16,15.73-38.19,19.79-38.39,19.83-.06,.01-.12,.02-.18,.02h0Zm.98-194.66v192.3c4.48-1.11,21.12-5.92,36.4-19.18,10.41-9.03,18.17-20.16,23.07-33.08,6.14-16.18,7.79-35.26,4.91-56.7-.87-6.49-3-11.41-5.07-16.17-2.39-5.53-4.66-10.75-5.06-18.06-.94-17.21,4.28-25.02,6.51-27.54-5.98-4.49-38.3-27.62-60.77-21.56Z"/><path class="d" d="M369.57,626.4s3.62,1.68,7.46,3c3.84,1.32,7.89,2.29,7.89,2.29l-.05-192.86s-7.62-1.82-15.26-.37l-.04,187.93Z"/><path class="d" d="M402.64,626.4s-3.62,1.68-7.46,3c-3.83,1.32-7.89,2.29-7.89,2.29l.05-192.86s7.62-1.82,15.26-.37l.04,187.93Z"/><path class="e" d="M369.53,627.53l.03-189.52-.03,189.52Z"/><path class="g" d="M369.53,628.58c-.54,0-.98-.47-.98-1.06l.03-189.52c0-.58,.44-1.06,.98-1.06s.98,.47,.98,1.06l-.03,189.52c0,.58-.44,1.06-.98,1.06Z"/><path class="e" d="M402.55,627.53l-.03-189.52,.03,189.52Z"/><path class="g" d="M402.55,628.58c-.54,0-.98-.47-.98-1.06l-.03-189.52c0-.58,.44-1.06,.98-1.06s.98,.47,.98,1.06l.03,189.52c0,.58-.44,1.06-.98,1.06Z"/><path class="e" d="M332.33,595.76s3.17-14.97,18.41-16.02l-18.41,16.02Z"/><path class="g" d="M332.33,596.82c-.54,0-.98-.47-.99-1.05,0-.08,0-.16,.02-.23,.03-.16,3.51-15.75,19.31-16.84,.54-.04,1.01,.4,1.05,.99,.03,.58-.38,1.08-.92,1.12-14.35,.99-17.49,15.06-17.52,15.2-.1,.48-.5,.82-.96,.82Z"/><path class="e" d="M439.75,595.76s-3.17-14.97-18.41-16.02l18.41,16.02Z"/><path class="g" d="M439.75,596.82c-.46,0-.86-.34-.96-.82-.12-.58-3.21-14.22-17.52-15.2-.54-.04-.95-.54-.92-1.12,.03-.58,.5-1.02,1.05-.99,15.8,1.09,19.28,16.68,19.31,16.84,.12,.57-.21,1.13-.74,1.26-.07,.02-.14,.03-.22,.03h0Z"/><path class="e" d="M325.05,580.94s3.16-14.97,18.41-16.02l-18.41,16.02Z"/><path class="g" d="M325.05,582c-.54,0-.99-.48-.98-1.06,0-.08,0-.15,.02-.23,.03-.16,3.51-15.75,19.31-16.84,.54-.04,1.01,.4,1.05,.99,.03,.58-.38,1.08-.92,1.12h0c-14.35,.99-17.48,15.06-17.51,15.2-.1,.48-.5,.82-.96,.82h0Z"/><path class="e" d="M447.03,580.94s-3.17-14.97-18.41-16.02l18.41,16.02Z"/><path class="g" d="M447.03,582c-.46,0-.86-.34-.96-.82-.12-.58-3.21-14.22-17.51-15.2-.54-.04-.95-.54-.92-1.12,.03-.58,.5-1.02,1.05-.99,15.8,1.09,19.27,16.68,19.31,16.84,.12,.57-.21,1.14-.75,1.26-.07,.02-.14,.03-.21,.03h0Z"/><path class="e" d="M320.09,564.93s3.16-14.97,18.41-16.02l-18.41,16.02Z"/><path class="g" d="M320.09,565.99c-.54,0-.98-.47-.99-1.05,0-.08,0-.16,.02-.23,.03-.16,3.51-15.75,19.31-16.84,.54-.04,1.01,.4,1.05,.99,.03,.58-.38,1.08-.92,1.12h0c-14.35,.99-17.48,15.06-17.51,15.2-.1,.48-.5,.82-.96,.82Z"/><path class="e" d="M451.99,564.93s-3.17-14.97-18.41-16.02l18.41,16.02Z"/><g><path class="g" d="M451.99,565.99c-.46,0-.86-.34-.96-.82-.13-.59-3.22-14.21-17.51-15.2-.54-.04-.95-.54-.92-1.12s.5-1.02,1.05-.99c15.79,1.09,19.27,16.68,19.31,16.84,.12,.57-.21,1.13-.74,1.26-.07,.02-.15,.03-.22,.03h0Z"/><path class="g" d="M369.79,607.53c-.54,0-.99-.47-.99-1.05,0-.58,.44-1.06,.98-1.06l15.27-.16h0c.54,0,.99,.47,.99,1.05,0,.58-.44,1.06-.98,1.06l-15.27,.16h0Z"/><path class="g" d="M370.32,581.7c-.54,0-.99-.47-.99-1.05,0-.58,.44-1.06,.98-1.06l15.27-.16h.01c.54,0,.99,.47,.99,1.05,0,.58-.44,1.06-.98,1.06h0l-15.27,.16h-.01Z"/><path class="g" d="M370.11,573.31c-.54,0-.99-.47-.99-1.05,0-.58,.44-1.06,.98-1.06l15.27-.16h.01c.54,0,.99,.47,.99,1.05,0,.58-.44,1.06-.98,1.06l-15.27,.16h0Z"/><path class="g" d="M370.78,506.34c-.54,0-.99-.47-.99-1.05,0-.58,.44-1.06,.98-1.06l15.27-.16c.54,0,.99,.46,.99,1.04,0,.58-.43,1.06-.97,1.07l-15.27,.16h-.01Z"/><path class="g" d="M370.27,496.57c-.54,0-.99-.47-.99-1.05,0-.58,.44-1.06,.98-1.06h0l15.27-.16h0c.54,0,.99,.47,.99,1.05,0,.58-.44,1.06-.98,1.06l-15.27,.16h-.01Z"/><path class="g" d="M370.8,485.01c-.54,0-.99-.47-.99-1.05,0-.58,.44-1.06,.98-1.06l15.27-.16h.01c.54,0,.99,.47,.99,1.05,0,.58-.44,1.06-.98,1.06l-15.27,.16h0Z"/><path class="g" d="M370.64,465.57c-.54,0-.99-.47-.99-1.05,0-.58,.44-1.06,.98-1.06h0l15.27-.16h0c.54,0,.99,.47,.99,1.05,0,.58-.44,1.06-.98,1.06h0l-15.27,.16h0Z"/><path class="g" d="M386.97,477.39c-.54,0-.99-.47-.99-1.05,0-.58,.44-1.06,.98-1.06l15.27-.16h.01c.54,0,.99,.47,.99,1.05s-.44,1.06-.98,1.06l-15.27,.16h-.01Z"/><path class="g" d="M386.81,499.57c-.54,0-.99-.47-.99-1.05,0-.58,.44-1.06,.98-1.06l15.27-.16h.01c.54,0,.99,.47,.99,1.05,0,.58-.44,1.06-.98,1.06l-15.27,.16h-.01Z"/><path class="g" d="M387.06,528.67c-.54,0-.99-.47-.99-1.05,0-.58,.44-1.06,.98-1.06l15.27-.16h.01c.54,0,.99,.47,.99,1.05s-.44,1.06-.98,1.06l-15.27,.16h0Z"/><path class="g" d="M386.72,539.65c-.54,0-.99-.47-.99-1.05,0-.58,.44-1.06,.98-1.06l15.27-.16h0c.54,0,.99,.47,.99,1.05,0,.58-.44,1.06-.98,1.06l-15.27,.16h0Z"/><path class="g" d="M387.18,574.96c-.54,0-.99-.47-.99-1.05,0-.58,.44-1.06,.98-1.06l15.27-.16h0c.54,0,.99,.47,.99,1.05s-.44,1.06-.98,1.06h0l-15.27,.16h-.01Z"/><path class="g" d="M386.83,604.43c-.54,0-.99-.47-.99-1.05,0-.58,.44-1.06,.98-1.06l15.27-.16h.01c.54,0,.99,.47,.99,1.05,0,.58-.44,1.06-.98,1.06l-15.27,.16h0Z"/><path class="g" d="M387.08,617.84c-.54,0-.99-.47-.99-1.05,0-.58,.44-1.06,.98-1.06l15.27-.16h0c.54,0,.99,.47,.99,1.05,0,.58-.44,1.06-.98,1.06l-15.27,.16h-.01Z"/></g><path class="i" d="M371.45,99.7s-37.6,64.72-60.65,72.72-42.31,1.81-54.47,10.96c-16.02,12.05-16.4,25.07-26.89,38.29-14.92,18.81-55.95,1.55-68.25,29.57-9.9,22.54-3.62,60.58,59.88,68.58,63.5,8,399.25,43.06,398.59-51.17-.46-65.69-58.63-44.92-77.78-58.53-15.41-10.95-14.14-22.84-29.05-31-18.87-10.32-58.65,7.7-77.78-32.81-19.13-40.51-63.61-46.61-63.61-46.61h0Z"/><path class="g" d="M421.1,333.86c-2.89,0-5.81-.01-8.76-.03-89.34-.66-175.09-10.92-191.38-12.97-38.15-4.8-53.58-20.15-59.81-32.18-5.93-11.45-6.25-25.62-.85-37.9,7.06-16.07,22.99-17.72,38.4-19.31,12.14-1.25,23.6-2.43,29.99-10.49,3.95-4.98,6.48-10,8.93-14.87,3.97-7.88,8.07-16.02,18.15-23.6,6.69-5.03,15.35-5.58,25.39-6.21,8.74-.55,18.66-1.18,29.35-4.89,22.45-7.79,59.74-71.63,60.12-72.27,.2-.35,.58-.54,.96-.49,.46,.06,11.42,1.62,24.91,8.2,12.47,6.08,29.44,17.78,39.45,38.98,12.56,26.61,34.03,27.43,52.97,28.15,9.24,.35,17.97,.69,24.38,4.19,7.95,4.35,11.42,9.71,15.08,15.38,3.34,5.17,6.8,10.52,14.07,15.68,5.44,3.87,14.53,4.9,24.15,6,23.94,2.73,53.73,6.12,54.06,53.41,.08,10.79-4.19,20.4-12.68,28.56-14.21,13.66-40.7,23.65-78.73,29.67-29.3,4.65-65.65,6.99-108.14,6.99Zm-49.16-233.02c-1.81,3.07-10.52,17.66-21.39,32.86-16.42,22.97-29.69,36.34-39.45,39.72-10.93,3.79-20.97,4.43-29.84,4.99-9.74,.61-18.14,1.14-24.38,5.83-9.7,7.29-13.51,14.86-17.55,22.88-2.5,4.96-5.08,10.09-9.16,15.23-6.91,8.71-18.75,9.93-31.3,11.23-14.86,1.53-30.23,3.12-36.81,18.11-5.13,11.67-4.83,25.12,.79,35.98,6.01,11.6,21,26.41,58.32,31.11,16.27,2.05,101.93,12.3,191.16,12.96,46.18,.34,85.4-1.99,116.6-6.94,37.64-5.97,63.78-15.78,77.71-29.16,8.05-7.74,12.1-16.81,12.02-26.97-.14-20.24-5.81-33.86-17.33-41.66-10.09-6.83-23.31-8.33-34.98-9.66-9.87-1.12-19.19-2.19-25.03-6.34-7.58-5.39-11.15-10.9-14.6-16.23-3.52-5.45-6.85-10.6-14.36-14.7-6.02-3.29-14.54-3.62-23.56-3.96-9.3-.35-19.83-.76-29.47-4.51-11.11-4.33-19.35-12.44-25.18-24.8-9.74-20.63-26.29-32.04-38.45-37.98-7.58-3.73-15.58-6.4-23.79-7.95h0Z"/><path class="g" d="M562.81,201.51c-4.02,0-8-.81-11.74-2.37-7.68-3.18-11.73-9.81-15.66-16.22-4.09-6.69-7.96-13.02-15.68-15.92-8.65-3.25-15.74-1.79-23.95-.1-6.34,1.3-13.53,2.78-22.49,2.22-13.92-.87-32.43-12.6-33.21-13.1-.47-.3-.62-.95-.34-1.45s.88-.67,1.35-.37c.19,.12,18.88,11.96,32.32,12.8,8.72,.55,15.78-.9,22.01-2.19,8.49-1.75,15.82-3.25,24.97,.18,8.35,3.14,12.58,10.06,16.68,16.75,3.93,6.42,7.63,12.48,14.72,15.41,14.38,5.96,26.42-2.12,26.54-2.2,.46-.31,1.07-.16,1.36,.33,.28,.49,.15,1.13-.29,1.44-5.03,3.13-10.75,4.78-16.57,4.77h0Z"/><path class="h" d="M385.71,294.37s231.37-9.85,231,102.48c-.34,99.42-136.29,166.52-149.55,96.56-11.91-62.81,45.94-50.1,26.66-91.99-16.27-35.36-83.81-39.07-109.04-38.53-24.49,.52-95.75,8.75-107.87,41.64-15.83,42.98,40.51,40.39,30.95,78.45-19.85,79.03-156.38,18.23-156.38-78.33,0-112.39,159.74-107.79,234.23-110.28h0Z"/><path class="g" d="M502.7,523.31c-19.73,0-32.89-10.57-36.52-29.69-6.38-33.67,7.18-46.27,18.08-56.4,9.75-9.06,17.46-16.22,8.67-35.33-6.89-14.98-23.88-25.8-50.49-32.17-24.97-5.97-50.43-5.93-57.65-5.78-13.63,.29-37.09,2.73-58.34,8.65-18.66,5.2-42.25,15.02-48.63,32.33-8.05,21.85,2.89,31.29,14.47,41.29,10.43,9,21.22,18.31,16.51,37.05-3.57,14.23-10.93,24.6-21.86,30.81-9.84,5.59-22.39,7.51-36.29,5.54-23.11-3.28-48.2-17.04-67.11-36.82-21.31-22.29-33.05-50.03-33.05-78.13,0-24.69,7.77-45.44,23.09-61.7,13.09-13.89,32.1-24.88,56.51-32.65,44.53-14.19,98.91-15.53,138.62-16.51,6.02-.15,11.71-.29,16.96-.46,.63-.03,39.21-1.56,84.16,4.04,26.5,3.3,50.01,8.4,69.88,15.16,24.9,8.47,44.12,19.59,57.13,33.05,13.9,14.37,20.91,31.63,20.84,51.28-.11,30.92-13.45,61.78-37.57,86.89-20.9,21.76-48.12,36.79-71.02,39.22-2.2,.23-4.33,.35-6.39,.35h0Zm-113.74-161.52c10.41,0,32.34,.71,53.91,5.87,27.22,6.51,44.66,17.71,51.83,33.29,9.46,20.57,.84,28.58-9.14,37.86-11.06,10.28-23.59,21.92-17.44,54.38,1.97,10.41,6.76,18.06,14.23,22.76,6.87,4.32,16.05,6.01,26.56,4.9,22.48-2.38,49.24-17.18,69.84-38.63,23.74-24.72,36.87-55.04,36.98-85.38,.06-19.06-6.75-35.8-20.24-49.76-12.79-13.23-31.76-24.19-56.36-32.56-19.74-6.72-43.13-11.79-69.51-15.08-44.95-5.6-83.48-4.05-83.86-4.03h0c-5.27,.18-10.96,.32-16.98,.46-39.6,.98-93.83,2.31-138.1,16.43-24.09,7.68-42.83,18.49-55.69,32.13-14.93,15.84-22.5,36.1-22.5,60.2,0,27.53,11.53,54.74,32.45,76.62,18.62,19.47,43.29,33.02,66,36.24,13.49,1.91,25.63,.08,35.11-5.31,10.43-5.93,17.46-15.85,20.88-29.49,4.37-17.41-5.45-25.89-15.84-34.86-11.63-10.04-23.65-20.41-15.07-43.71,5.36-14.55,22.17-25.86,49.96-33.59,21.42-5.96,45.06-8.42,58.8-8.72,1.04-.02,2.47-.04,4.21-.04h0Z"/><path class="d" d="M384.54,195.96s-41.51-34.05-89.76,18.23c-48.25,52.29-40.66,49.96-68.51,74.81-35.14,31.34-115.23,27.1-96.7,99.89,16.39,64.38,78.45,30.42,148.45-40.9,70.01-71.32,50.2-93.82,108.98-94.17,58.78-.34,45.49,27.03,106.13,96.43,55.7,63.75,130,93.05,149.65,45.6,23.99-57.94-21.34-61.66-101.99-114.77-49.79-32.79-81.94-126.91-156.25-85.13Z"/><path class="g" d="M164.54,424.1c-3.37,.03-6.73-.44-9.98-1.39-12.49-3.74-21.21-15.02-25.93-33.54-12.93-50.78,21.7-64.93,55.2-78.61,15.18-6.2,30.88-12.61,41.82-22.37,15.42-13.75,20-19.24,29.14-30.17,7.53-9,17.83-21.31,39.3-44.57,11.11-12.04,22.8-20.5,34.75-25.16,9.27-3.69,19.21-5.02,29.04-3.87,14.65,1.77,24.45,8.56,26.76,10.3,51.86-28.78,83.61,8.14,114.32,43.85,13.37,15.55,27.2,31.63,42.36,41.62,19.08,12.56,35.96,22.23,50.86,30.77,23.91,13.7,41.19,23.59,50.45,35.84,9.77,12.9,10.09,27.7,1.06,49.49-5.4,13.05-14.9,20.89-28.22,23.3-15.9,2.89-36.18-2.24-58.64-14.81-22.3-12.49-44.57-31.09-64.41-53.79-20.87-23.89-32.76-42.43-42.32-57.33-17.69-27.58-25-38.99-63.09-38.77-17.98,.1-28.61,2.27-36.7,7.46-7.99,5.13-13.44,13.1-21.7,25.16-9.94,14.52-23.55,34.4-49.91,61.25-26.07,26.56-49.54,46.43-69.76,59.07-17.32,10.83-32.21,16.27-44.41,16.28h0Zm186.45-237.99c-7.36,.03-14.65,1.45-21.55,4.19-11.65,4.55-23.07,12.84-33.95,24.63-21.43,23.22-31.72,35.52-39.23,44.5-9.2,11-13.82,16.53-29.35,30.38-11.19,9.99-27.05,16.46-42.38,22.72-16.47,6.72-33.49,13.68-44.37,24.91-5.79,5.99-9.45,12.69-11.19,20.51-1.96,8.82-1.45,18.85,1.56,30.66,4.52,17.75,12.78,28.54,24.56,32.06,25.36,7.59,67.64-17.81,122.27-73.45,26.23-26.72,39.78-46.52,49.68-60.97,16.57-24.21,22.77-33.27,59.97-33.48,.36,0,.72,0,1.07,0,18.34,0,30.11,2.8,39.24,9.31,9.09,6.48,15.51,16.51,24.41,30.38,9.52,14.84,21.36,33.31,42.13,57.08,19.69,22.54,41.78,40.99,63.89,53.36,22.07,12.36,41.92,17.41,57.4,14.6,12.63-2.29,21.63-9.72,26.75-22.08,8.68-20.96,8.44-35.11-.79-47.31-9.02-11.91-26.15-21.72-49.85-35.3-14.92-8.55-31.83-18.24-50.96-30.83-15.39-10.14-29.32-26.33-42.78-41.98-15.18-17.65-30.88-35.91-48.84-45.78-9.61-5.28-19.08-7.79-28.96-7.71-11.12,.11-22.47,3.5-34.7,10.39-.34,.19-.75,.15-1.05-.1-.1-.08-10.42-8.4-26.4-10.29-2.18-.26-4.37-.39-6.56-.39h0Z"/><path class="d" d="M332.02,244.57c6.98,7.73,11.19,37.13,24.98,49.15s40.55,17.11,58.92,1.84c16.02-13.3,15.69-40.98,25.03-54.2"/><path class="g" d="M388.62,306.1c-12.17,0-24.13-4.49-32.24-11.56-8.48-7.39-13.45-21.26-17.44-32.41-2.67-7.45-4.97-13.88-7.63-16.82-.38-.42-.37-1.09,.02-1.49,.39-.41,1.01-.39,1.39,.02h0c2.93,3.24,5.3,9.86,8.05,17.53,3.91,10.91,8.78,24.5,16.84,31.53,6.9,6.02,17.07,10.1,27.2,10.92,8.13,.66,20.02-.38,30.5-9.09,9.31-7.74,12.92-20.34,16.41-32.54,2.35-8.22,4.57-15.99,8.45-21.47,.32-.47,.94-.57,1.38-.23,.44,.34,.53,1,.21,1.48l-.02,.03c-3.66,5.18-5.83,12.78-8.13,20.81-3.41,11.92-7.28,25.44-17.08,33.59-8.18,6.8-18.11,9.7-27.9,9.7Z"/><path class="j" d="M106.75,377.66s47.88-31.58,59.6-6.96c11.72,24.61-21.21,53.49-52.58,69.6-31.36,16.11-91.41,33.03-95.8,13.62,0,0-1.94-7.46,8.5-9.74,0,0-23.83-4.5-25.4-15.46-1.57-10.96,21.29-8.63,33.03-5.99,0,0-11.16-5.37-11.53-20.43-.38-15.06,19.02-31.66,27.19-22.76,5.32,5.79,1.61,10.66-4.34,14.6-8.54,5.64-4.69,22.8,28.11,8.2,28.81-12.82,12.53-27.21-6.35-20.92-18.97,6.32-16.55-4.93-15.45-7.81,3.16-8.29,32.84-30.91,55.04,4.06h0Z"/><path class="g" d="M36.41,463.64c-5.58,0-10.27-.76-13.64-2.47-3.13-1.59-5.07-3.95-5.76-7-.4-1.99-.07-4.07,.92-5.81,.97-1.69,2.51-3.03,4.62-4-6.95-1.81-21.18-6.57-22.46-15.48-.33-2.31,.26-4.25,1.75-5.77,2.49-2.53,7.49-3.75,14.83-3.63,4.35,.11,8.69,.54,12.99,1.3-3.43-3.13-7.85-8.97-8.09-18.46-.26-10.29,8.31-21.19,16.47-24.92,4.82-2.2,9.05-1.85,11.99,.97-.13-1.76,.13-3.54,.76-5.17,1.76-4.6,11.62-13.93,24.2-15.34,8.54-.96,20.96,1.49,32.03,18.39,5.16-3.28,32.86-20.14,49.8-15.04,4.73,1.42,8.23,4.46,10.4,9.01,2.97,6.24,3.33,13.06,1.06,20.26-6.38,20.23-32.12,39.49-54.09,50.77-21.56,11.07-56.23,22.39-77.79,22.39Zm-20.71-42.05c-6.22,0-10.53,1.05-12.5,3.06-1,1-1.44,2.48-1.16,3.92,.74,5.16,7.3,8.83,12.67,11.01,3.88,1.54,7.87,2.73,11.93,3.57,.54,.1,.89,.65,.8,1.22-.07,.43-.38,.76-.77,.85-3.48,.76-5.85,2.18-7.03,4.21-.74,1.25-.99,2.76-.71,4.21,.56,2.47,2.09,4.29,4.69,5.62,7.05,3.59,21.48,2.95,40.64-1.8,16.48-4.08,35.3-11.03,49.1-18.11,32.95-16.92,49.02-36.69,53.07-49.55,2.09-6.64,1.77-12.9-.95-18.62-1.91-4.01-5-6.68-9.18-7.94-17.51-5.27-48.72,15.11-49.04,15.32-.45,.3-1.03,.16-1.33-.3-5.88-9.27-15.98-19.96-30.73-18.3-11.64,1.31-21.03,9.96-22.59,14.04-.61,1.61-1.24,4.82,.31,6.63,1.34,1.57,4.85,2.8,13.93-.23,11.37-3.79,21.03-.33,22.92,5.28,.93,2.76,1.24,10-15.9,17.63-9.18,4.09-16.81,6.04-22.7,5.81-6.68-.27-9.11-3.31-9.96-5.11-1.73-3.62-.15-8.26,3.67-10.77,3.98-2.63,6.13-5.19,6.41-7.61,.2-1.74-.54-3.49-2.25-5.35-3.15-3.43-7.76-2.05-10.23-.93-7.57,3.46-15.52,13.49-15.28,22.92,.36,14.18,10.52,19.29,10.96,19.5,.5,.24,.72,.86,.49,1.4-.19,.45-.65,.7-1.1,.6-5.68-1.27-11.45-2-17.25-2.17-.32,0-.64,0-.95,0Zm37.38-38.23c.21,.82,.26,1.68,.17,2.53-.35,3.13-2.75,6.13-7.33,9.15-2.93,1.94-4.2,5.38-2.95,8.02,2.13,4.47,11.3,6.71,30.16-1.69,8.35-3.71,16.62-9.59,14.81-14.96-1.55-4.59-10.35-7.36-20.49-3.98-6.66,2.22-11.48,2.53-14.37,.93Z"/><path class="j" d="M667.46,377.66s-47.88-31.58-59.6-6.96c-11.72,24.61,21.21,53.49,52.58,69.6,31.37,16.11,91.41,33.03,95.8,13.62,0,0,1.94-7.46-8.5-9.74,0,0,23.83-4.5,25.4-15.46,1.58-10.96-21.29-8.63-33.03-5.99,0,0,11.16-5.37,11.54-20.43,.38-15.06-19.02-31.66-27.19-22.76-5.32,5.79-1.61,10.66,4.34,14.6,8.54,5.64,4.69,22.8-28.11,8.2-28.81-12.82-12.53-27.21,6.35-20.92,18.97,6.32,16.55-4.93,15.45-7.81-3.17-8.29-32.84-30.91-55.04,4.06h0Z"/><path class="g" d="M737.8,463.64c-21.56,0-56.23-11.31-77.79-22.39-21.97-11.28-47.71-30.55-54.09-50.77-2.27-7.2-1.91-14.01,1.06-20.26,2.17-4.56,5.67-7.59,10.4-9.01,16.94-5.1,44.64,11.76,49.8,15.04,11.07-16.9,23.49-19.35,32.03-18.39,12.58,1.41,22.45,10.74,24.2,15.34,.63,1.63,.89,3.41,.76,5.17,2.93-2.82,7.16-3.17,11.98-.97,8.17,3.73,16.74,14.63,16.48,24.92-.24,9.48-4.65,15.33-8.09,18.46,4.29-.76,8.63-1.19,12.99-1.3,7.35-.12,12.35,1.1,14.83,3.63,1.49,1.52,2.08,3.46,1.75,5.77-1.28,8.9-15.51,13.67-22.46,15.48,2.1,.97,3.65,2.31,4.62,4,1,1.75,1.33,3.84,.91,5.84-.68,3.02-2.62,5.37-5.75,6.97-3.37,1.71-8.07,2.47-13.64,2.47h0Zm-113.41-101.27c-2.19-.03-4.37,.26-6.48,.87-4.18,1.26-7.26,3.93-9.18,7.94-2.72,5.72-3.04,11.98-.95,18.62,4.05,12.86,20.12,32.62,53.08,49.55,13.8,7.09,32.61,14.03,49.1,18.11,19.16,4.75,33.59,5.39,40.64,1.8,2.6-1.32,4.13-3.15,4.68-5.59,.29-1.46,.03-2.98-.71-4.24-1.18-2.04-3.54-3.45-7.03-4.21-.53-.12-.88-.67-.77-1.24,.08-.43,.4-.75,.79-.83,.23-.04,23.15-4.5,24.6-14.58,.28-1.43-.16-2.92-1.16-3.92-2.07-2.11-6.71-3.16-13.45-3.05-5.8,.17-11.57,.89-17.25,2.17-.53,.12-1.05-.24-1.17-.82-.1-.49,.14-.98,.56-1.18,.43-.21,10.6-5.32,10.95-19.5,.24-9.43-7.71-19.47-15.29-22.92-2.47-1.13-7.07-2.5-10.22,.93-1.71,1.86-2.44,3.61-2.25,5.35,.27,2.42,2.43,4.98,6.41,7.61,3.82,2.52,5.39,7.15,3.67,10.77-.86,1.79-3.29,4.84-9.96,5.11-5.89,.23-13.52-1.72-22.7-5.81-17.15-7.63-16.83-14.87-15.9-17.63,1.89-5.61,11.55-9.06,22.92-5.28,9.09,3.03,12.6,1.8,13.94,.23,1.55-1.82,.93-5.02,.31-6.63-1.56-4.08-10.94-12.73-22.59-14.04-8.14-.91-20.07,1.52-30.73,18.3-.3,.47-.88,.6-1.33,.3-.27-.18-24.79-16.19-42.55-16.19h0Zm73.54,18.55c-6.05,0-10.59,2.3-11.66,5.48-1.81,5.37,6.46,11.25,14.81,14.96,18.85,8.39,28.03,6.15,30.16,1.69,1.26-2.63-.01-6.08-2.95-8.02-4.58-3.02-6.97-6.02-7.33-9.15-.09-.85-.04-1.7,.17-2.53-2.9,1.6-7.72,1.29-14.38-.93-2.85-.97-5.83-1.48-8.82-1.5h0Z"/><path class="g" d="M37.04,445.69c-6.57,0-10.96-.42-11.02-.43-.54-.06-.93-.58-.88-1.16,.05-.57,.52-.99,1.06-.95,.37,.04,36.94,3.43,58.28-10.2,.47-.3,1.07-.13,1.35,.37,.28,.5,.12,1.15-.34,1.45h0c-11.46,7.32-27.03,9.78-38.08,10.55-3.78,.26-7.31,.35-10.37,.35Z"/><path class="g" d="M737.17,445.69c-3.06,0-6.58-.09-10.37-.36-11.04-.77-26.61-3.23-38.07-10.55-.47-.3-.62-.95-.34-1.45,.28-.5,.88-.67,1.35-.37,21.33,13.63,57.91,10.23,58.28,10.19,.54-.05,1.02,.39,1.06,.97,.04,.57-.35,1.08-.88,1.14-.06,0-4.45,.43-11.02,.43h0Z"/><path class="g" d="M48.95,426.62c-9.94,0-15.4-2.99-15.79-3.21-.48-.27-.66-.91-.41-1.43,.25-.52,.85-.71,1.33-.44,.16,.09,16.19,8.76,43.91-4.41,.5-.24,1.08,0,1.3,.54,.22,.53,0,1.16-.5,1.39-12.32,5.85-22.35,7.55-29.84,7.55Z"/><path class="g" d="M725.26,426.62c-7.49,0-17.52-1.69-29.85-7.55-.5-.24-.72-.86-.5-1.39,.22-.53,.8-.77,1.3-.54h0c27.73,13.17,43.76,4.49,43.92,4.41,.48-.27,1.08-.07,1.33,.44,.25,.52,.07,1.15-.41,1.43-.39,.22-5.85,3.21-15.79,3.21Z"/><path class="j" d="M288.09,135.86c0-12.78,11.64-23.15,26-23.15s26,10.36,26,23.15-11.64,23.15-26,23.15-26-10.36-26-23.15Z"/><path class="g" d="M314.09,160.06c-14.88,0-26.99-10.86-26.99-24.2s12.11-24.2,26.99-24.2,26.99,10.86,26.99,24.2-12.11,24.2-26.99,24.2Zm0-46.3c-13.8,0-25.02,9.91-25.02,22.09s11.22,22.09,25.02,22.09,25.02-9.91,25.02-22.09-11.22-22.09-25.02-22.09Z"/><path class="j" d="M365.38,178.34l.1,27.59s21.18,19.32,40.18,.21l.1-29.29-40.38,1.49Z"/><path class="g" d="M386.89,215.62c-2.95-.02-5.89-.49-8.72-1.41-4.84-1.57-9.36-4.1-13.32-7.48-.22-.2-.35-.49-.35-.8l-.1-27.59c0-.57,.42-1.04,.95-1.06l40.38-1.49c.54-.02,1,.44,1.02,1.02,0,.01,0,.03,0,.04l-.1,29.29c0,.29-.11,.57-.31,.77-6.6,6.64-13.47,8.71-19.45,8.71h0Zm-20.42-10.19c3.7,3.03,7.87,5.33,12.32,6.79,9.66,3.05,18.37,.86,25.89-6.53l.09-27.74-38.4,1.41,.1,26.07Z"/><path class="j" d="M483.58,135.86c0-12.78-11.65-23.15-26.01-23.15s-26,10.36-26,23.15,11.64,23.15,26,23.15,26.01-10.36,26.01-23.15Z"/><path class="g" d="M457.58,160.06c-14.88,0-26.99-10.86-26.99-24.2s12.11-24.2,26.99-24.2,26.99,10.86,26.99,24.2-12.11,24.2-26.99,24.2Zm0-46.3c-13.8,0-25.02,9.91-25.02,22.09s11.22,22.09,25.02,22.09,25.02-9.91,25.02-22.09-11.22-22.09-25.02-22.09Z"/><path class="g" d="M338.13,144.86c-.29,0-.56-.13-.75-.37-.15-.19-15.32-18.78-38.11-21.46-.54-.06-.94-.58-.88-1.16s.54-1,1.08-.94h.02c23.58,2.77,39.23,21.99,39.39,22.18,.35,.44,.31,1.11-.11,1.49-.18,.16-.41,.26-.64,.25h0Z"/><path class="g" d="M433.53,144.86c-.54,0-.98-.47-.98-1.06,0-.25,.08-.5,.24-.69,.16-.19,15.8-19.41,39.39-22.18,.54-.06,1.02,.36,1.08,.94,.05,.57-.33,1.09-.86,1.15-22.79,2.68-37.96,21.27-38.11,21.46-.19,.23-.46,.37-.75,.37Z"/><path class="g" d="M315.08,139.95c-.54,0-.98-.47-.98-1.06,0-.23,.07-.45,.19-.63,4.4-6.37,11.23-6.67,11.52-6.68,.54-.02,1,.44,1.02,1.02,.02,.58-.41,1.07-.95,1.09-.07,0-6.19,.3-10.01,5.83-.19,.27-.48,.43-.79,.43h0Z"/><path class="g" d="M456.59,139.95c-.31,0-.61-.16-.79-.43-3.82-5.53-9.95-5.83-10.01-5.83-.54,0-.98-.49-.97-1.07s.46-1.05,1-1.04h.03c.29,0,7.13,.31,11.53,6.68,.32,.47,.23,1.13-.21,1.48-.17,.13-.37,.21-.59,.21h0Z"/><path class="j" d="M331.09,127.57c0-32.12,24.28-58.16,54.23-58.16,29.95,0,54.23,26.04,54.23,58.16,0,32.12-24.28,58.16-54.23,58.16h0c-29.95,0-54.23-26.04-54.23-58.16Z"/><path class="g" d="M385.32,186.79c-30.45,0-55.22-26.56-55.22-59.22s24.77-59.22,55.22-59.22,55.22,26.56,55.22,59.22-24.77,59.22-55.22,59.22Zm0-116.32c-29.36,0-53.25,25.62-53.25,57.1s23.89,57.1,53.25,57.1,53.25-25.62,53.25-57.1-23.89-57.11-53.25-57.11h0Z"/><path class="i" d="M331.27,127.75c-.48-32.12,24.28-58.16,54.23-58.16s53.38,26.22,54.02,58.33c.01,.64-19.1-4.83-33.3-18.43-18.88-18.08-20.69-39.32-20.69-39.32,0,0-3.63,19.71-21.41,38.59-13.27,14.08-32.84,19.48-32.85,18.99h0Z"/><path class="g" d="M439.42,129c-1.97,0-7.96-2.29-12.03-4.17-5.86-2.71-14.4-7.43-21.83-14.54-13.84-13.25-18.63-28.01-20.24-35.35-2.13,6.98-7.64,20.92-20.51,34.58-6.95,7.37-15.45,12.24-21.36,15.02-4.94,2.33-11.5,4.67-12.53,4.22-.37-.17-.61-.55-.63-.98-.24-15.49,5.37-30.43,15.56-41.42,10.43-11.44,24.74-17.86,39.66-17.81,14.57-.04,28.53,6.25,38.7,17.44,10.19,11.13,15.98,26.02,16.3,41.93,0,.43-.23,.83-.6,1.01-.15,.06-.32,.09-.49,.08Zm-52.85-58.34c.47,3.5,3.67,22.12,20.3,38.05,11.89,11.38,27.57,17.08,31.63,18.06-.49-14.74-6.08-28.76-15.7-39.31-9.54-10.5-22.56-16.53-36.23-16.8Zm-2.16,0c-14.01,.26-27.37,6.42-37.16,17.17-9.55,10.29-14.94,24.2-15,38.72,3.99-1.02,19.74-6.41,31.18-18.53,7.11-7.5,12.91-16.3,17.14-25.99,1.61-3.65,2.9-7.46,3.85-11.36Z"/><path class="i" d="M354.12,34.69c0-18.57,14.04-33.63,31.36-33.63,17.32,0,31.36,15.06,31.36,33.63,0,18.57-14.04,33.63-31.36,33.63-17.32,0-31.36-15.06-31.36-33.63h0Z"/><path class="g" d="M385.48,69.38c-17.86,0-32.35-15.53-32.35-34.69,0-19.16,14.48-34.69,32.35-34.69,17.86,0,32.35,15.53,32.35,34.69h0c-.02,19.15-14.49,34.67-32.35,34.69Zm0-67.26c-16.78,0-30.38,14.58-30.38,32.58,0,17.99,13.6,32.58,30.38,32.58,16.78,0,30.38-14.58,30.38-32.58h0c-.02-17.98-13.61-32.56-30.38-32.58Z"/><path class="g" d="M383.54,69.74c-3.97-.03-7.92-.5-11.8-1.39-9.23-2.13-16.44-6.52-20.84-12.69-6.26-8.75-7.15-21.02-2.67-36.48,.15-.56,.7-.88,1.22-.72,.52,.16,.82,.75,.67,1.31v.04c-4.29,14.76-3.51,26.39,2.33,34.57,9.99,13.98,31.68,13.26,31.9,13.25,.54-.02,1,.43,1.02,1.01,.02,.58-.4,1.07-.94,1.1-.05,0-.37,.01-.9,.01h0Z"/><path class="g" d="M384.73,69.34c-.23,0-.46-.09-.63-.25-.58-.53-14.22-13.07-13.99-29.11,.13-8.82,4.46-16.92,12.88-24.06,.43-.36,1.05-.28,1.38,.17,.26,.36,.28,.85,.05,1.23-.04,.06-3.67,6.07-5.32,15.26-1.52,8.44-1.63,21.39,6.46,35.14,.29,.49,.15,1.14-.31,1.46-.16,.11-.34,.16-.53,.16h0Zm-4.43-48.06c-5.36,5.76-8.13,12.03-8.23,18.72-.13,8.9,4.5,16.85,8.33,21.88-3.93-9.33-5.06-19.74-3.23-29.79,.67-3.71,1.72-7.34,3.12-10.81h0Z"/><path class="g" d="M385.19,69.56c-.54,0-.98-.47-.99-1.05,0-.37,.18-.71,.47-.9,.17-.11,16.93-11.21,19.26-29.37,1.48-11.55-3.11-23.52-13.65-35.58-.37-.43-.34-1.1,.06-1.49,.39-.39,1.01-.37,1.38,.05,10.96,12.55,15.73,25.1,14.16,37.32-2.46,19.16-19.46,30.4-20.18,30.87-.15,.1-.33,.15-.51,.15Z"/><path class="g" d="M361.74,134.31c-5.01,0-8.48-3.69-8.53-3.75-.37-.43-.34-1.1,.06-1.49,.38-.37,.97-.37,1.34,.01,.28,.31,7.05,7.43,15.16-.9,.39-.4,1.02-.39,1.39,.03,.38,.42,.36,1.09-.03,1.49h0c-3.39,3.48-6.63,4.61-9.39,4.61h0Z"/><path class="g" d="M408.1,134.31c-5.01,0-8.48-3.69-8.53-3.75-.37-.43-.34-1.1,.06-1.49,.38-.38,.97-.37,1.35,.01,.3,.32,7.06,7.42,15.15-.9,.38-.41,1.01-.41,1.39,0,.38,.41,.38,1.08,0,1.49l-.03,.03c-3.39,3.48-6.62,4.61-9.39,4.61Z"/><path class="g" d="M389.69,142.78c-.27,0-.54-.12-.72-.34-3.24-3.74-7.18-.16-7.35,0-.41,.38-1.04,.32-1.39-.12-.34-.44-.3-1.09,.09-1.47,1.9-1.78,6.45-4.04,10.09,.16,.37,.43,.35,1.1-.05,1.49-.18,.18-.42,.28-.67,.28h0Z"/><path class="g" d="M384.59,159.95c-.54,0-.99-.46-1-1.04,0-.58,.43-1.06,.97-1.07l1.83-.05h.03c.54,0,.99,.46,1,1.04s-.43,1.06-.97,1.07l-1.83,.05h-.03Z"/><path class="f" d="M351.54,153.76c0-6.53,4.94-11.83,11.03-11.83,6.09,0,11.03,5.29,11.03,11.82,0,6.53-4.94,11.83-11.03,11.83h0c-6.09,0-11.03-5.29-11.03-11.82h0Z"/><path class="f" d="M397.95,153.76c0-6.53,4.94-11.83,11.03-11.83,6.09,0,11.03,5.29,11.03,11.82,0,6.53-4.94,11.83-11.03,11.83h0c-6.09,0-11.03-5.29-11.03-11.82h0Z"/></g></g></g></svg>