<?xml version="1.0" encoding="UTF-8"?><svg xmlns="http://www.w3.org/2000/svg" version="1.1" viewBox="0 0 600 600" width="600" height="600" x="0px" y="0px" xmlns:xlink="http://www.w3.org/1999/xlink">
<defs/><!--ITEM: Illustration background 1--><g transform="translate(38.0 166.0) rotate(0.0 231.5 95.5)  scale(0.7289008395741204 0.7248301772228758)"><svg width="635.203" height="263.51" viewBox="0.0 0.0 635.203 263.51"><g>
	<g>
		<polyline fill="#FFFFFF" points="456.801,263.01 456.801,134.13 453.741,134.13 448.641,134.13 448.641,89.26 368.081,89.26     368.081,134.13 359.931,134.13 359.931,159.58 359.931,263.01 376.241,263.01 453.741,263.01   "/>
		<path fill="#1D2445" d="M456.801,263.51c-0.276,0-0.5-0.224-0.5-0.5V134.63h-7.66c-0.276,0-0.5-0.224-0.5-0.5V89.76h-79.56v44.37    c0,0.276-0.224,0.5-0.5,0.5h-7.65v127.88h93.31c0.276,0,0.5,0.224,0.5,0.5s-0.224,0.5-0.5,0.5h-93.81c-0.276,0-0.5-0.224-0.5-0.5    V134.13c0-0.276,0.224-0.5,0.5-0.5h7.65V89.26c0-0.276,0.224-0.5,0.5-0.5h80.56c0.276,0,0.5,0.224,0.5,0.5v44.37h7.66    c0.276,0,0.5,0.224,0.5,0.5v128.88C457.301,263.286,457.078,263.51,456.801,263.51z"/>
	</g>
	<g>
		<polyline fill="#FFFFFF" points="453.741,263.01 453.741,134.13 453.741,127.97 459.041,127.97 474.951,76.98 477.601,76.98     480.401,43.37 482.901,76.98 485.551,76.98 501.461,127.97 506.761,127.97 506.761,155.48 506.761,263.01 500.651,263.01     456.801,263.01   "/>
		<path fill="#1D2445" d="M506.761,263.51h-49.96c-0.276,0-0.5-0.224-0.5-0.5s0.224-0.5,0.5-0.5h49.46V128.47h-4.8    c-0.219,0-0.412-0.143-0.478-0.352l-15.801-50.639h-2.282c-0.262,0-0.479-0.202-0.499-0.463l-2.029-27.285l-2.273,27.29    c-0.021,0.259-0.238,0.458-0.498,0.458h-2.281l-15.801,50.639c-0.065,0.209-0.259,0.352-0.478,0.352h-4.801v134.54    c0,0.276-0.224,0.5-0.5,0.5s-0.5-0.224-0.5-0.5V127.97c0-0.276,0.224-0.5,0.5-0.5h4.933l15.801-50.639    c0.065-0.209,0.259-0.352,0.478-0.352h2.189l2.762-33.151c0.021-0.259,0.238-0.458,0.498-0.458c0.001,0,0.001,0,0.002,0    c0.261,0.001,0.478,0.203,0.497,0.463l2.465,33.146h2.187c0.219,0,0.412,0.143,0.478,0.352l15.801,50.639h4.932    c0.276,0,0.5,0.224,0.5,0.5v135.04C507.261,263.286,507.037,263.51,506.761,263.51z"/>
	</g>
	<g>
		<polygon fill="#FFFFFF" points="241.641,67.8 241.641,263.01 132.531,263.01 132.531,42.31 205.951,42.31 205.951,67.8   "/>
		<path fill="#1D2445" d="M241.641,263.51h-109.11c-0.276,0-0.5-0.224-0.5-0.5V42.31c0-0.276,0.224-0.5,0.5-0.5h73.42    c0.276,0,0.5,0.224,0.5,0.5V67.3h35.19c0.276,0,0.5,0.224,0.5,0.5v195.21C242.141,263.286,241.917,263.51,241.641,263.51z     M133.031,262.51h108.11V68.3h-35.19c-0.276,0-0.5-0.224-0.5-0.5V42.81h-72.42V262.51z"/>
	</g>
	<g>
		<polygon fill="#FFFFFF" points="144.771,99.41 144.771,263.01 37.701,263.01 37.701,188.13 61.151,188.13 61.151,156.52     132.531,107.77   "/>
		<path fill="#1D2445" d="M144.771,263.51H37.701c-0.276,0-0.5-0.224-0.5-0.5v-74.88c0-0.276,0.224-0.5,0.5-0.5h22.95v-31.11    c0-0.165,0.082-0.319,0.218-0.413l83.62-57.11c0.154-0.104,0.353-0.113,0.516-0.029c0.164,0.087,0.267,0.257,0.267,0.442V263.01    C145.271,263.286,145.047,263.51,144.771,263.51z M38.201,262.51h106.07V100.356l-82.62,56.427v31.347c0,0.276-0.224,0.5-0.5,0.5    h-22.95V262.51z"/>
	</g>
	<g>
		<polygon fill="#FFFFFF" points="376.241,159.58 376.241,263.01 270.191,263.01 270.191,159.58 286.511,159.58 286.511,112.67     297.721,112.67 297.721,82.08 312.001,82.08 323.221,0.5 333.411,82.08 348.711,82.08 348.711,112.67 359.931,112.67     359.931,159.58   "/>
		<path fill="#1D2445" d="M376.241,263.51h-106.05c-0.276,0-0.5-0.224-0.5-0.5V159.579c0-0.276,0.224-0.5,0.5-0.5h15.82V112.67    c0-0.276,0.224-0.5,0.5-0.5h10.71V82.079c0-0.276,0.224-0.5,0.5-0.5h13.844l11.161-81.147C322.76,0.185,322.972,0,323.221,0    c0.001,0,0.002,0,0.003,0c0.251,0.002,0.462,0.189,0.493,0.438l10.135,81.141h14.859c0.276,0,0.5,0.224,0.5,0.5v30.091h10.72    c0.276,0,0.5,0.224,0.5,0.5v46.409h15.81c0.276,0,0.5,0.224,0.5,0.5V263.01C376.741,263.286,376.517,263.51,376.241,263.51z     M270.691,262.51h105.05V160.079h-15.81c-0.276,0-0.5-0.224-0.5-0.5V113.17h-10.72c-0.276,0-0.5-0.224-0.5-0.5V82.579h-14.8    c-0.252,0-0.465-0.188-0.496-0.438l-9.718-77.798l-10.701,77.805c-0.034,0.247-0.245,0.432-0.495,0.432h-13.78v30.091    c0,0.276-0.224,0.5-0.5,0.5h-10.71v46.409c0,0.276-0.224,0.5-0.5,0.5h-15.82V262.51z"/>
	</g>
	<g>
		<rect x="196.771" y="104.51" fill="#FFFFFF" width="80.56" height="158.5"/>
		<path fill="#1D2445" d="M277.331,263.51h-80.56c-0.276,0-0.5-0.224-0.5-0.5v-158.5c0-0.276,0.224-0.5,0.5-0.5h80.56    c0.276,0,0.5,0.224,0.5,0.5v158.5C277.831,263.286,277.607,263.51,277.331,263.51z M197.271,262.51h79.56v-157.5h-79.56V262.51z"/>
	</g>
	<g>
		<g>
			<rect x="95.971" y="166.72" fill="#FFFFFF" width="9.17" height="96.29"/>
			<path fill="#1D2445" d="M105.141,263.51h-9.17c-0.276,0-0.5-0.224-0.5-0.5v-96.29c0-0.276,0.224-0.5,0.5-0.5h9.17     c0.276,0,0.5,0.224,0.5,0.5v96.29C105.641,263.286,105.417,263.51,105.141,263.51z M96.471,262.51h8.17v-95.29h-8.17V262.51z"/>
		</g>
		<g>
			<rect x="75.571" y="166.72" fill="#FFFFFF" width="9.18" height="96.29"/>
			<path fill="#1D2445" d="M84.751,263.51h-9.18c-0.276,0-0.5-0.224-0.5-0.5v-96.29c0-0.276,0.224-0.5,0.5-0.5h9.18     c0.276,0,0.5,0.224,0.5,0.5v96.29C85.251,263.286,85.028,263.51,84.751,263.51z M76.071,262.51h8.18v-95.29h-8.18V262.51z"/>
		</g>
		<g>
			<rect x="116.361" y="166.72" fill="#FFFFFF" width="9.18" height="96.29"/>
			<path fill="#1D2445" d="M125.541,263.51h-9.18c-0.276,0-0.5-0.224-0.5-0.5v-96.29c0-0.276,0.224-0.5,0.5-0.5h9.18     c0.276,0,0.5,0.224,0.5,0.5v96.29C126.041,263.286,125.818,263.51,125.541,263.51z M116.861,262.51h8.18v-95.29h-8.18V262.51z"/>
		</g>
	</g>
	<g>
		<polyline fill="#FFFFFF" points="590.381,263.01 599.561,263.01 599.561,155.48 585.281,155.48 585.281,138.14 549.711,123.91     514.921,138.14 514.921,155.48 506.761,155.48 500.651,155.48 500.651,263.01 506.761,263.01 510.841,263.01   "/>
		<path fill="#1D2445" d="M599.561,263.51h-9.18c-0.276,0-0.5-0.224-0.5-0.5s0.224-0.5,0.5-0.5h8.68v-106.53h-13.78    c-0.276,0-0.5-0.224-0.5-0.5v-17.001l-35.067-14.029l-34.292,14.026v17.004c0,0.276-0.224,0.5-0.5,0.5h-13.771v106.53h9.69    c0.276,0,0.5,0.224,0.5,0.5s-0.224,0.5-0.5,0.5h-10.19c-0.276,0-0.5-0.224-0.5-0.5v-107.53c0-0.276,0.224-0.5,0.5-0.5h13.771    v-16.84c0-0.203,0.123-0.386,0.311-0.463l34.79-14.229c0.12-0.049,0.256-0.05,0.375-0.001l35.569,14.229    c0.19,0.075,0.314,0.26,0.314,0.464v16.84h13.78c0.276,0,0.5,0.224,0.5,0.5v107.53C600.061,263.286,599.837,263.51,599.561,263.51    z"/>
	</g>
	<g>
		<g>
			<rect x="510.845" y="167.653" fill="#FFFFFF" width="79.538" height="5.099"/>
			<path fill="#1D2445" d="M590.383,173.252h-79.538c-0.276,0-0.5-0.224-0.5-0.5v-5.099c0-0.276,0.224-0.5,0.5-0.5h79.538     c0.276,0,0.5,0.224,0.5,0.5v5.099C590.883,173.028,590.66,173.252,590.383,173.252z M511.345,172.252h78.538v-4.099h-78.538     V172.252z"/>
		</g>
		<g>
			<rect x="510.845" y="177.851" fill="#FFFFFF" width="79.538" height="5.099"/>
			<path fill="#1D2445" d="M590.383,183.449h-79.538c-0.276,0-0.5-0.224-0.5-0.5v-5.099c0-0.276,0.224-0.5,0.5-0.5h79.538     c0.276,0,0.5,0.224,0.5,0.5v5.099C590.883,183.226,590.66,183.449,590.383,183.449z M511.345,182.449h78.538v-4.099h-78.538     V182.449z"/>
		</g>
		<g>
			<rect x="510.845" y="188.048" fill="#FFFFFF" width="79.538" height="5.099"/>
			<path fill="#1D2445" d="M590.383,193.646h-79.538c-0.276,0-0.5-0.224-0.5-0.5v-5.099c0-0.276,0.224-0.5,0.5-0.5h79.538     c0.276,0,0.5,0.224,0.5,0.5v5.099C590.883,193.423,590.66,193.646,590.383,193.646z M511.345,192.646h78.538v-4.099h-78.538     V192.646z"/>
		</g>
		<g>
			<rect x="510.845" y="198.245" fill="#FFFFFF" width="79.538" height="5.099"/>
			<path fill="#1D2445" d="M590.383,203.844h-79.538c-0.276,0-0.5-0.224-0.5-0.5v-5.099c0-0.276,0.224-0.5,0.5-0.5h79.538     c0.276,0,0.5,0.224,0.5,0.5v5.099C590.883,203.62,590.66,203.844,590.383,203.844z M511.345,202.844h78.538v-4.099h-78.538     V202.844z"/>
		</g>
		<g>
			<rect x="510.845" y="208.441" fill="#FFFFFF" width="79.538" height="5.099"/>
			<path fill="#1D2445" d="M590.383,214.04h-79.538c-0.276,0-0.5-0.224-0.5-0.5v-5.099c0-0.276,0.224-0.5,0.5-0.5h79.538     c0.276,0,0.5,0.224,0.5,0.5v5.099C590.883,213.816,590.66,214.04,590.383,214.04z M511.345,213.04h78.538v-4.099h-78.538V213.04z     "/>
		</g>
		<g>
			<rect x="510.845" y="218.638" fill="#FFFFFF" width="79.538" height="5.099"/>
			<path fill="#1D2445" d="M590.383,224.237h-79.538c-0.276,0-0.5-0.224-0.5-0.5v-5.099c0-0.276,0.224-0.5,0.5-0.5h79.538     c0.276,0,0.5,0.224,0.5,0.5v5.099C590.883,224.014,590.66,224.237,590.383,224.237z M511.345,223.237h78.538v-4.099h-78.538     V223.237z"/>
		</g>
		<g>
			<rect x="510.845" y="228.835" fill="#FFFFFF" width="79.538" height="5.099"/>
			<path fill="#1D2445" d="M590.383,234.434h-79.538c-0.276,0-0.5-0.224-0.5-0.5v-5.099c0-0.276,0.224-0.5,0.5-0.5h79.538     c0.276,0,0.5,0.224,0.5,0.5v5.099C590.883,234.21,590.66,234.434,590.383,234.434z M511.345,233.434h78.538v-4.099h-78.538     V233.434z"/>
		</g>
		<g>
			<rect x="510.845" y="239.033" fill="#FFFFFF" width="79.538" height="5.099"/>
			<path fill="#1D2445" d="M590.383,244.631h-79.538c-0.276,0-0.5-0.224-0.5-0.5v-5.099c0-0.276,0.224-0.5,0.5-0.5h79.538     c0.276,0,0.5,0.224,0.5,0.5v5.099C590.883,244.407,590.66,244.631,590.383,244.631z M511.345,243.631h78.538v-4.099h-78.538     V243.631z"/>
		</g>
		<g>
			<rect x="510.845" y="249.23" fill="#FFFFFF" width="79.538" height="5.099"/>
			<path fill="#1D2445" d="M590.383,254.828h-79.538c-0.276,0-0.5-0.224-0.5-0.5v-5.099c0-0.276,0.224-0.5,0.5-0.5h79.538     c0.276,0,0.5,0.224,0.5,0.5v5.099C590.883,254.604,590.66,254.828,590.383,254.828z M511.345,253.828h78.538v-4.099h-78.538     V253.828z"/>
		</g>
		<g>
			<polyline fill="#FFFFFF" points="590.381,263.01 590.381,259.43 510.841,259.43 510.841,263.01    "/>
			<path fill="#1D2445" d="M590.381,263.51c-0.276,0-0.5-0.224-0.5-0.5v-3.08h-78.54v3.08c0,0.276-0.224,0.5-0.5,0.5     s-0.5-0.224-0.5-0.5v-3.58c0-0.276,0.224-0.5,0.5-0.5h79.54c0.276,0,0.5,0.224,0.5,0.5v3.58     C590.881,263.286,590.658,263.51,590.381,263.51z"/>
		</g>
	</g>
</g>
<g>
	<line fill="#FFFFFF" x1="456.801" y1="263.01" x2="453.741" y2="263.01"/>
	<rect x="453.741" y="262.51" fill="#1D2445" width="3.061" height="1"/>
</g>
<g>
	<line fill="#FFFFFF" x1="0" y1="263.01" x2="635.203" y2="263.01"/>
	<rect x="0" y="262.51" fill="#1D2445" width="635.203" height="1"/>
</g>
</svg></g><!--ITEM: Illustration component 2--><g transform="translate(337.0 117.0) rotate(0.0 65.0 75.5)  scale(0.9962143853357243 0.9946054182941529)"><svg width="130.494" height="151.819" viewBox="0.0 0.0 130.494 151.819"><g>
	<path fill="#FFFFFF" d="M8.5,151.319h113.495c4.418,0,8-3.582,8-8V8.5c0-4.418-3.582-8-8-8H8.5c-4.418,0-8,3.582-8,8v134.819   C0.5,147.737,4.082,151.319,8.5,151.319z"/>
	<path fill="#1D2445" d="M121.994,151.819H8.5c-4.687,0-8.5-3.813-8.5-8.5V8.5C0,3.813,3.813,0,8.5,0h113.494   c4.687,0,8.5,3.813,8.5,8.5v134.819C130.494,148.006,126.681,151.819,121.994,151.819z M8.5,1C4.365,1,1,4.364,1,8.5v134.819   c0,4.136,3.365,7.5,7.5,7.5h113.494c4.136,0,7.5-3.364,7.5-7.5V8.5c0-4.136-3.364-7.5-7.5-7.5H8.5z"/>
</g>
<g>
	<g>
		<path fill="#1D2445" d="M65.247,139.258c-23.978,0-43.484-19.507-43.484-43.484S41.27,52.29,65.247,52.29    c23.977,0,43.484,19.507,43.484,43.484S89.225,139.258,65.247,139.258z M65.247,62.29c-18.463,0-33.484,15.021-33.484,33.484    s15.021,33.484,33.484,33.484c18.463,0,33.484-15.021,33.484-33.484S83.71,62.29,65.247,62.29z"/>
		<path fill="#1D2445" d="M65.247,139.758c-24.253,0-43.984-19.731-43.984-43.984S40.994,51.79,65.247,51.79    s43.984,19.731,43.984,43.984S89.5,139.758,65.247,139.758z M65.247,52.79c-23.702,0-42.984,19.283-42.984,42.984    s19.282,42.984,42.984,42.984c23.701,0,42.984-19.283,42.984-42.984S88.948,52.79,65.247,52.79z M65.247,129.758    c-18.739,0-33.984-15.245-33.984-33.984S46.509,61.79,65.247,61.79s33.984,15.245,33.984,33.984S83.986,129.758,65.247,129.758z     M65.247,62.79c-18.188,0-32.984,14.797-32.984,32.984s14.797,32.984,32.984,32.984s32.984-14.797,32.984-32.984    S83.435,62.79,65.247,62.79z"/>
	</g>
</g>
<g>
	<g>
		<path fill="#FFFFFF" d="M65.247,139.258c-23.978,0-43.484-19.507-43.484-43.484c0-2.761,2.239-5,5-5s5,2.239,5,5    c0,18.463,15.021,33.484,33.484,33.484c18.463,0,33.484-15.021,33.484-33.484S83.71,62.29,65.247,62.29c-2.761,0-5-2.239-5-5    s2.239-5,5-5c23.977,0,43.484,19.507,43.484,43.484S89.225,139.258,65.247,139.258z"/>
		<path fill="#1D2445" d="M65.247,139.758c-24.253,0-43.984-19.731-43.984-43.984c0-3.033,2.467-5.5,5.5-5.5s5.5,2.467,5.5,5.5    c0,18.188,14.797,32.984,32.984,32.984s32.984-14.797,32.984-32.984S83.435,62.79,65.247,62.79c-3.033,0-5.5-2.467-5.5-5.5    s2.467-5.5,5.5-5.5c24.253,0,43.984,19.731,43.984,43.984S89.5,139.758,65.247,139.758z M26.763,91.274    c-2.481,0-4.5,2.019-4.5,4.5c0,23.702,19.282,42.984,42.984,42.984c23.701,0,42.984-19.283,42.984-42.984    S88.948,52.79,65.247,52.79c-2.481,0-4.5,2.019-4.5,4.5s2.019,4.5,4.5,4.5c18.739,0,33.984,15.245,33.984,33.984    s-15.245,33.984-33.984,33.984s-33.984-15.245-33.984-33.984C31.263,93.292,29.244,91.274,26.763,91.274z"/>
	</g>
</g>
<g>
	<g>
		<path fill="#1D2445" d="M51.296,23.187c0,5.031-1.111,11.847-7.108,11.847s-7.108-6.815-7.108-11.847s1.111-11.847,7.108-11.847    S51.296,18.155,51.296,23.187z M39.303,23.187c0,3.627,0.409,9.8,4.885,9.8s4.885-6.173,4.885-9.8s-0.409-9.799-4.885-9.799    S39.303,19.56,39.303,23.187z"/>
		<path fill="#1D2445" d="M58.286,21.841h-2.955v-3.422h2.955V21.841z M58.286,34.565h-2.955v-3.423h2.955V34.565z"/>
		<path fill="#1D2445" d="M76.041,32.518v2.048H62.848v-2.077c3.306-8.307,10.794-9.126,10.794-14.742    c0-2.252-1.434-4.358-3.832-4.358c-2.545,0-4.212,2.398-4.563,4.709l-2.077-0.585c0.702-3.451,3.13-6.172,6.815-6.172    c3.627,0,6.055,2.779,6.055,6.318c0,6.815-8.775,8.425-10.794,14.859H76.041z"/>
		<path fill="#1D2445" d="M93.415,23.187c0,5.031-1.111,11.847-7.108,11.847s-7.108-6.815-7.108-11.847S80.31,11.34,86.307,11.34    S93.415,18.155,93.415,23.187z M81.422,23.187c0,3.627,0.409,9.8,4.885,9.8s4.885-6.173,4.885-9.8s-0.409-9.799-4.885-9.799    S81.422,19.56,81.422,23.187z"/>
	</g>
</g>
</svg></g><!--ITEM: Illustration component 3--><g transform="translate(73.0 167.0) rotate(0.0 145.0 156.0)  scale(0.9968410451019013 0.9998045253972782)"><svg width="290.919" height="312.061" viewBox="0.0 0.0 290.919 312.061"><g>
	<g>
		<g>
			<g>
				<path fill="#FFFFFF" d="M176.733,163.483l-26.489,30.589L113.75,238.83l-23.265,2.272c-2.497,0.244-4.927,0.955-7.161,2.098      l-61.489,31.438l4.39,15.007L93.7,270.179c1.077-0.311,2.125-0.711,3.134-1.197l31.131-14.992      c0.036-0.017,0.062-0.044,0.097-0.062c1.017-0.334,2.004-0.822,2.923-1.477l63.609-45.342l5.972-29.807L176.733,163.483z"/>
			</g>
		</g>
		<g>
			<g>
				<path fill="#1D2445" d="M26.225,290.145c-0.217,0-0.416-0.142-0.479-0.36l-4.391-15.007c-0.067-0.23,0.038-0.476,0.252-0.586      l61.49-31.438c2.3-1.176,4.769-1.899,7.339-2.15l23.059-2.252l36.362-44.597l26.498-30.601c0.157-0.182,0.423-0.225,0.629-0.105      l23.834,13.819c0.185,0.107,0.281,0.321,0.239,0.531l-5.973,29.807c-0.025,0.125-0.097,0.235-0.2,0.309l-63.609,45.342      c-0.916,0.653-1.922,1.166-2.992,1.524c-0.034,0.023-0.065,0.042-0.099,0.058l-31.133,14.993      c-1.033,0.497-2.114,0.91-3.213,1.227l-67.475,19.466C26.318,290.139,26.271,290.145,26.225,290.145z M22.43,274.895      l4.135,14.132l66.996-19.328c1.046-0.301,2.074-0.694,3.057-1.167l31.131-14.992c0.01-0.012,0.042-0.033,0.077-0.052      c1.079-0.362,2.017-0.836,2.869-1.444l63.448-45.227l5.863-29.262l-23.166-13.432l-26.218,30.277l-36.484,44.747      c-0.084,0.103-0.206,0.169-0.339,0.182L90.533,241.6c-2.445,0.239-4.794,0.927-6.981,2.045L22.43,274.895z"/>
			</g>
		</g>
	</g>
	<g>
		<polygon fill="#1D2445" points="176.733,163.483 150.244,194.072 129.359,219.687 147.242,240.862 194.595,207.108     200.567,177.301   "/>
	</g>
	<g>
		<g>
			<g>
				<path fill="#FFFFFF" d="M210.1,167.5c0.004-0.197-0.018-0.396-0.082-0.593l-12.131-37.774L170.83,99.286l-27.769,7.63      c-2.182,0.6-3.14,3.157-1.889,5.042l25.529,38.497l-0.064,36.634l2.192-0.929v8.037h41.333V167.52L210.1,167.5z"/>
			</g>
		</g>
		<g>
			<g>
				<path fill="#1D2445" d="M210.163,194.699h-41.334c-0.276,0-0.5-0.224-0.5-0.5v-7.282l-1.497,0.634      c-0.154,0.064-0.332,0.05-0.472-0.044c-0.14-0.093-0.224-0.25-0.224-0.417l0.064-36.483l-25.446-38.371      c-0.686-1.034-0.829-2.293-0.395-3.455c0.436-1.162,1.371-2.017,2.567-2.346l27.563-7.437c0.183-0.05,0.377,0.007,0.503,0.146      l27.264,29.653c0.048,0.053,0.084,0.115,0.105,0.183l12.131,37.774c0.057,0.173,0.09,0.352,0.102,0.543      c0.042,0.07,0.067,0.146,0.067,0.223v26.678C210.663,194.475,210.44,194.699,210.163,194.699z M169.329,193.699h40.334v-25.984      c-0.041-0.07-0.064-0.147-0.063-0.224c0.003-0.16-0.016-0.301-0.057-0.429l-12.099-37.671L170.665,99.85l-27.472,7.549      c-0.884,0.243-1.575,0.874-1.896,1.732c-0.321,0.858-0.215,1.788,0.292,2.552l25.529,38.497      c0.054,0.082,0.083,0.179,0.083,0.277l-0.063,35.878l1.496-0.634c0.152-0.065,0.331-0.05,0.472,0.044      c0.14,0.093,0.224,0.249,0.224,0.417V193.699z"/>
			</g>
		</g>
	</g>
	<g>
		<g>
			<g>
				<path fill="#FFFFFF" d="M269.718,191.965c-0.232-0.095-0.473-0.174-0.729-0.214l-95.897-14.942      c-6.369-0.588-11.865,4.424-11.865,10.82v5.223c0,13.84,11.219,25.059,25.059,25.059h65.398l-1.387,3.866      c-0.726,2.022-1.098,4.154-1.1,6.302l-0.088,74.087c0.491-0.025,15.748,0.016,15.748,0.016l13.15-70.784      c0.209-1.128,0.315-2.273,0.315-3.42v-26.118C278.32,196.674,274.447,192.636,269.718,191.965z"/>
			</g>
		</g>
		<g>
			<g>
				<path fill="#1D2445" d="M264.856,302.681L264.856,302.681c-0.001,0-15.215-0.041-15.723-0.017      c-0.131,0.009-0.271-0.043-0.37-0.137c-0.099-0.094-0.155-0.226-0.155-0.362l0.088-74.087c0.002-2.209,0.382-4.386,1.129-6.471      l1.147-3.197h-64.687c-14.094,0-25.56-11.466-25.56-25.559v-5.223c-0.001-6.619,5.696-11.938,12.411-11.318l95.929,14.946      c0.251,0.039,0.501,0.11,0.783,0.222c5.119,0.757,8.972,5.208,8.972,10.379v26.118c0,1.176-0.109,2.357-0.324,3.512      l-13.149,70.784C265.303,302.509,265.097,302.681,264.856,302.681z M251.492,301.657c3.843,0,11.134,0.018,12.948,0.023      l13.073-70.375c0.203-1.095,0.307-2.215,0.307-3.329v-26.118c0-4.697-3.514-8.737-8.174-9.398      c-0.041-0.006-0.081-0.017-0.12-0.033c-0.231-0.095-0.427-0.153-0.615-0.183l-95.897-14.942      c-0.295-0.026-0.618-0.041-0.938-0.041c-5.707,0-10.35,4.65-10.35,10.367v5.223c0,13.542,11.018,24.559,24.56,24.559h65.397      c0.163,0,0.315,0.079,0.409,0.212c0.094,0.133,0.116,0.303,0.062,0.457l-1.388,3.866c-0.708,1.976-1.068,4.04-1.07,6.134      l-0.087,73.581C250.033,301.658,250.688,301.657,251.492,301.657z"/>
			</g>
		</g>
	</g>
	<g>
		<g>
			<path fill="#FFFFFF" d="M5.053,309.934l-2.748-3.357c-1.754-2.143-2.272-5.043-1.368-7.661l7.467-21.602l4.382-0.758l1.646,0.033     l10.418,13.663l-8.852,8.011l-5.01,11.183c-0.336,0.506-3.475,1.128-4.014,1.215C6.285,310.772,5.545,310.534,5.053,309.934z"/>
			<path fill="#1D2445" d="M6.643,311.187c-0.769,0-1.489-0.342-1.977-0.937l-2.748-3.357c-1.878-2.294-2.421-5.338-1.454-8.141     l7.468-21.602c0.06-0.172,0.208-0.298,0.388-0.329l4.382-0.758l1.741,0.025c0.152,0.003,0.295,0.076,0.388,0.197l10.418,13.663     c0.157,0.207,0.131,0.5-0.062,0.674l-8.775,7.941l-4.967,11.087c-0.577,0.881-4.354,1.499-4.392,1.505     C6.917,311.176,6.781,311.187,6.643,311.187z M8.781,277.755l-7.371,21.324c-0.854,2.472-0.374,5.157,1.282,7.181l2.748,3.357     c0.351,0.428,0.916,0.639,1.455,0.551c1.049-0.169,3.266-0.699,3.672-1.004l4.976-11.105c0.028-0.063,0.069-0.12,0.12-0.166     l8.512-7.703l-9.992-13.106l-1.405-0.028L8.781,277.755z"/>
		</g>
		<g>
			<path fill="#FFFFFF" d="M25.834,289.828l-3.104-10.854l10.85-3.103c1.963-0.561,4.009,0.575,4.57,2.537l1.072,3.747     c0.561,1.963-0.575,4.009-2.537,4.57L25.834,289.828z"/>
			<path fill="#1D2445" d="M25.833,290.328c-0.084,0-0.168-0.021-0.243-0.063c-0.115-0.064-0.201-0.172-0.237-0.3l-3.104-10.854     c-0.076-0.265,0.077-0.542,0.343-0.618l10.851-3.103c0.378-0.108,0.767-0.163,1.155-0.163c1.862,0,3.521,1.251,4.032,3.043     l1.071,3.747c0.309,1.077,0.179,2.21-0.365,3.19c-0.544,0.98-1.438,1.689-2.515,1.997l-10.851,3.103     C25.926,290.321,25.879,290.328,25.833,290.328z M23.348,279.317l2.829,9.893l10.369-2.965c0.821-0.235,1.501-0.775,1.916-1.521     c0.414-0.746,0.513-1.609,0.278-2.43l-1.071-3.747c-0.472-1.65-2.282-2.671-3.951-2.194L23.348,279.317z"/>
		</g>
		<g>
			<g>
				<g>
					<path fill="#FFFFFF" d="M34.109,287.53c-0.519-1.716-2.33-2.687-4.046-2.168l-4.935,1.492l-0.32-0.473l5.052-4.358       c1.12-0.969,1.567-2.504,1.139-3.921l-2.223-7.375l-4.705,2.579l-1.573,0.464l-7.38,2.172l-1.675,0.494l-2.084,0.361       l-7.314,21.179c-0.904,2.618-0.386,5.518,1.368,7.661l2.748,3.357c0.876,1.071,2.539,0.988,3.304-0.165l7.641-11.506       l8.724-7.896L34.109,287.53z"/>
				</g>
			</g>
			<g>
				<g>
					<path fill="#1D2445" d="M9.75,310.248L9.75,310.248c-0.77,0-1.489-0.342-1.977-0.937l-2.748-3.357       c-1.851-2.261-2.407-5.38-1.454-8.141l7.313-21.179c0.06-0.172,0.208-0.299,0.388-0.33l2.084-0.361l10.521-3.102l4.658-2.553       c0.132-0.073,0.291-0.081,0.43-0.024c0.14,0.057,0.246,0.174,0.289,0.319l2.223,7.375c0.484,1.602-0.022,3.346-1.29,4.443       l-4.286,3.697l4.018-1.215c0.354-0.107,0.719-0.161,1.085-0.161c1.637,0,3.11,1.095,3.584,2.663       c0.08,0.264-0.069,0.543-0.334,0.623l-6.171,1.866l-8.595,7.779l-7.606,11.454C11.406,309.821,10.609,310.248,9.75,310.248z        M11.734,277.239l-7.217,20.9c-0.841,2.435-0.35,5.187,1.282,7.181l2.748,3.357c0.297,0.363,0.735,0.57,1.203,0.57l0,0       c0.523,0,1.008-0.26,1.298-0.695l7.641-11.506c0.023-0.035,0.051-0.066,0.081-0.094l8.725-7.896       c0.056-0.05,0.12-0.087,0.191-0.108l5.755-1.74c-0.587-1.128-1.976-1.748-3.233-1.369l-4.936,1.492       c-0.211,0.065-0.436-0.017-0.559-0.198l-0.32-0.473c-0.143-0.21-0.104-0.493,0.088-0.659l5.053-4.358       c0.969-0.839,1.356-2.172,0.986-3.397l-2.045-6.784l-4.164,2.282c-0.031,0.017-0.064,0.031-0.099,0.041l-10.629,3.13       L11.734,277.239z"/>
				</g>
			</g>
		</g>
		<g>
			<path fill="#FFFFFF" d="M20.268,279.715c-2.112,0.638-4.34-0.558-4.978-2.67c-0.112-0.369-0.169-0.739-0.173-1.102l7.38-2.172     c0.186,0.292,0.335,0.615,0.44,0.963C23.575,276.845,22.379,279.077,20.268,279.715z"/>
			<path fill="#1D2445" d="M19.112,280.387c-1.963,0-3.731-1.315-4.301-3.197c-0.125-0.413-0.189-0.83-0.194-1.241     c-0.002-0.224,0.145-0.422,0.358-0.485l7.38-2.172c0.215-0.063,0.443,0.023,0.563,0.21c0.213,0.332,0.38,0.698,0.498,1.087     c0.717,2.374-0.63,4.888-3.003,5.605C19.989,280.322,19.551,280.387,19.112,280.387z M15.642,276.31     c0.024,0.197,0.066,0.394,0.126,0.591c0.442,1.464,1.817,2.486,3.344,2.486c0.341,0,0.682-0.051,1.012-0.15     c1.845-0.558,2.893-2.513,2.335-4.359c-0.055-0.179-0.122-0.351-0.202-0.515L15.642,276.31z"/>
		</g>
	</g>
	<g>
		<g>
			<path fill="#FFFFFF" d="M266.337,295.564h-6.518l1.338-7.568c0.361-2.04,2.134-3.527,4.205-3.527h2.936L266.337,295.564z"/>
			<path fill="#1D2445" d="M266.337,296.064h-6.519c-0.147,0-0.288-0.065-0.383-0.179c-0.096-0.113-0.136-0.263-0.109-0.408     l1.339-7.568c0.403-2.283,2.379-3.94,4.697-3.94h2.937c0.147,0,0.288,0.065,0.383,0.179c0.096,0.113,0.136,0.263,0.109,0.408     l-1.962,11.095C266.787,295.89,266.579,296.064,266.337,296.064z M260.415,295.064h5.503l1.785-10.095h-2.341     c-1.833,0-3.394,1.31-3.713,3.114L260.415,295.064z"/>
		</g>
		<g>
			<rect x="249.08" y="293.223" fill="#99644C" width="15.595" height="5.671"/>
		</g>
		<g>
			<g>
				<g>
					<path fill="#FFFFFF" d="M289.592,306.191c-0.418-1.203-1.419-2.111-2.657-2.41l-13.438-3.249       c-2.547-0.616-4.798-2.104-6.362-4.208l-3.09-4.155c-0.707-0.95-1.821-1.511-3.006-1.511h-12.226v2.607l-1.581,4.326       c-1.028,2.813-1.541,5.789-1.513,8.784l0.02,2.192h19.025h2.732h22.924L289.592,306.191z"/>
				</g>
			</g>
			<g>
				<g>
					<path fill="#1D2445" d="M290.419,309.068h-44.681c-0.274,0-0.497-0.221-0.5-0.496l-0.02-2.192       c-0.028-3.068,0.491-6.083,1.543-8.96l1.551-4.243v-2.519c0-0.276,0.224-0.5,0.5-0.5h12.227c1.336,0,2.609,0.64,3.406,1.713       l3.09,4.155c1.49,2.005,3.649,3.433,6.078,4.02l13.438,3.249c1.41,0.341,2.536,1.362,3.013,2.732l0.827,2.377       c0.053,0.153,0.028,0.322-0.065,0.454C290.733,308.99,290.581,309.068,290.419,309.068z M246.234,308.068h43.482l-0.597-1.713       c-0.363-1.047-1.224-1.828-2.302-2.088l-13.438-3.249c-2.656-0.642-5.017-2.203-6.646-4.396l-3.09-4.155       c-0.608-0.82-1.582-1.309-2.604-1.309h-11.727v2.107c0,0.059-0.011,0.117-0.03,0.172l-1.581,4.326       c-1.011,2.764-1.51,5.661-1.482,8.608L246.234,308.068z"/>
				</g>
			</g>
		</g>
		<g>
			<rect x="245.886" y="308.216" fill="#FFFFFF" width="44.522" height="3.344"/>
			<path fill="#1D2445" d="M290.409,312.061h-44.522c-0.276,0-0.5-0.224-0.5-0.5v-3.344c0-0.276,0.224-0.5,0.5-0.5h44.522     c0.276,0,0.5,0.224,0.5,0.5v3.344C290.909,311.837,290.685,312.061,290.409,312.061z M246.386,311.061h43.522v-2.344h-43.522     V311.061z"/>
		</g>
		<g>
			<circle fill="#FFFFFF" cx="254.201" cy="301.307" r="3.995"/>
			<path fill="#1D2445" d="M254.201,305.802c-2.479,0-4.495-2.017-4.495-4.495s2.017-4.495,4.495-4.495     c2.479,0,4.495,2.016,4.495,4.495S256.68,305.802,254.201,305.802z M254.201,297.812c-1.927,0-3.495,1.568-3.495,3.495     c0,1.927,1.568,3.495,3.495,3.495c1.927,0,3.495-1.568,3.495-3.495C257.697,299.38,256.128,297.812,254.201,297.812z"/>
		</g>
	</g>
	<g>
		<path fill="#1D2445" d="M240.618,187.365l-60.672-9.924l-9.357-0.801c-5.036-0.431-9.363,3.541-9.363,8.596v15.871    c0,9.28,7.523,16.802,16.802,16.802h62.59V187.365z"/>
	</g>
	<g>
		<path fill="#1D2445" d="M172.496,101.199l16.572,7.733c5.163,2.409,8.515,7.536,8.652,13.232l0.168,6.97l-31.187,21.322    l-24.745-37.461c0,0,2.724-9.954,4.874-10.13L172.496,101.199z"/>
	</g>
	<g>
		<rect x="166.433" y="174.395" fill="#1D2445" width="43.73" height="17.804"/>
	</g>
	<g>
		<path fill="#FFFFFF" d="M180.594,218.861c-0.163,0-0.324-0.08-0.42-0.228c-0.149-0.232-0.084-0.542,0.148-0.691    c0.784-0.508,4.206-3.487,8.168-6.937c4.582-3.99,9.775-8.511,13.187-11.229c0.857-0.682,1.958-0.924,3.021-0.658    c1.064,0.265,1.927,0.994,2.365,2.001c0.11,0.253-0.005,0.548-0.258,0.658c-0.254,0.109-0.548-0.005-0.658-0.259    c-0.313-0.72-0.93-1.241-1.69-1.43s-1.545-0.017-2.157,0.47c-3.395,2.704-8.579,7.218-13.153,11.201    c-4.154,3.618-7.437,6.475-8.281,7.022C180.782,218.835,180.688,218.861,180.594,218.861z"/>
	</g>
	<g>
		<path fill="#1D2445" d="M149.496,92.532l12.154,14.626c4.242,5.105,3.849,12.613-0.903,17.247l-5.607,5.468l32.846-14.369    c2.709-1.185,2.906-4.952,0.336-6.413l-31.591-18.24L149.496,92.532z"/>
	</g>
	<g>
		<g>
			
				<rect x="143.927" y="44.634" transform="matrix(-0.9582 0.286 -0.286 -0.9582 305.7774 72.2506)" width="7.371" height="27.641" fill="#000000"/>
		</g>
		<g>
			<path fill="#1D2445" d="M146.551,78.834l9.036,1.164l-10.08-33.774c-0.592-1.982-2.678-3.109-4.66-2.518l-1.614,0.482     c-7.691,2.296-11.532,10.901-8.104,18.159l3.79,8.026C137.1,74.992,141.484,78.181,146.551,78.834z"/>
		</g>
		<g>
			<path fill="#1D2445" d="M137.107,49.656c-2.79-0.773-5.676-0.996-8.542-0.556c-1.357,0.208-2.692,0.543-3.997,0.965     c-2.779,0.897-4.997,3.07-6.745,5.34c-1.076,1.398-1.818,3.027-2.35,4.701c-0.626,1.966-0.187,2.601,1.276,4.016     c2.392,2.313,4.632,4.14,7.955,4.931c2.181,0.519,1.374-1.309,1.496-2.932c0.099-1.314-0.017-2.582,0.165-3.901     c0.457-3.304,1.92-6.971,5.178-8.475c1.466-0.677,2.965-1.17,4.595-1.249c0.855-0.042,1.728-0.007,2.573,0.132     c0.46,0.075,1.425,0.751,1.862,0.535C140.374,52.113,139.405,50.293,137.107,49.656z"/>
		</g>
		<g>
			<g>
				<g>
					<path fill="#FFFFFF" d="M170.669,73.512l-1.888-6.327l1.397-1.683c0.886-1.068,0.344-2.694-1.005-3.017l-1.933-0.463       l-0.005-0.015l-0.636-0.301c-0.711-0.337-1.136-1.082-1.063-1.865l0.216-2.332c0.022-0.238-0.002-0.479-0.07-0.708       l-1.885-6.317l-2.956,3.968l-1.096-3.674l-10.418,3.109l1.523,5.103l-7.203,2.15c-1.804,0.538-2.83,2.438-2.292,4.242       l0.474,1.589c0.518,1.736,2.295,2.736,4.035,2.331l1.035,3.466l-2.826,4.197l-0.47,0.631l-0.869-0.338l0.069,6.951       l12.77,13.207c1.251,1.294,3.441,0.406,3.438-1.394l-0.032-17.868l8.021,0.175C169.539,78.383,171.396,75.947,170.669,73.512z"/>
				</g>
			</g>
			<g>
				<g>
					<path fill="#1D2445" d="M156.995,98.528c-0.672,0-1.305-0.272-1.782-0.766l-12.77-13.206c-0.089-0.092-0.14-0.215-0.141-0.343       l-0.069-6.951c-0.002-0.166,0.079-0.322,0.216-0.416c0.137-0.095,0.312-0.115,0.466-0.055l0.514,0.2l0.242-0.325l2.681-3.982       l-0.841-2.816c-1.881,0.204-3.625-0.958-4.162-2.755l-0.474-1.589c-0.299-1-0.189-2.057,0.307-2.976s1.32-1.589,2.321-1.888       l6.724-2.007l-1.381-4.624c-0.037-0.127-0.023-0.264,0.04-0.381c0.063-0.117,0.169-0.204,0.297-0.241l10.418-3.109       c0.264-0.081,0.543,0.072,0.622,0.336l0.812,2.719l2.359-3.169c0.113-0.152,0.301-0.227,0.488-0.194       c0.187,0.033,0.338,0.168,0.393,0.349l1.886,6.317c0.087,0.29,0.117,0.593,0.089,0.898l-0.216,2.332       c-0.053,0.572,0.261,1.121,0.779,1.367l0.637,0.302c0.004,0.002,0.008,0.004,0.012,0.006l1.828,0.438       c0.803,0.192,1.438,0.774,1.698,1.558c0.261,0.783,0.103,1.63-0.425,2.265l-1.226,1.477l1.812,6.071       c0.388,1.297,0.146,2.664-0.663,3.75c-0.81,1.087-2.05,1.71-3.402,1.71l0,0l-7.604-0.165l0.03,17.356       c0.001,0.672-0.253,1.299-0.717,1.763C158.321,98.257,157.665,98.528,156.995,98.528z M143.301,84.004l12.631,13.063       c0.369,0.381,0.781,0.461,1.063,0.461c0.406,0,0.804-0.165,1.09-0.452c0.194-0.195,0.426-0.536,0.425-1.055l-0.031-17.868       c0-0.135,0.054-0.264,0.15-0.358c0.095-0.094,0.211-0.144,0.36-0.143l8.02,0.175c0.001,0,0.002,0,0.003,0       c1.106,0,2.054-0.476,2.672-1.306c0.618-0.83,0.803-1.874,0.506-2.866l-1.888-6.327c-0.048-0.16-0.012-0.334,0.095-0.462       l1.396-1.683c0.305-0.367,0.396-0.857,0.246-1.311c-0.151-0.453-0.519-0.79-0.982-0.901l-1.933-0.463       c-0.07-0.017-0.135-0.048-0.189-0.091l-0.55-0.26c-0.897-0.425-1.438-1.375-1.348-2.363l0.216-2.333       c0.017-0.177,0-0.35-0.051-0.518l-1.602-5.364l-2.359,3.169c-0.114,0.152-0.302,0.227-0.488,0.194       c-0.187-0.033-0.338-0.168-0.393-0.349l-0.953-3.195l-9.46,2.823l1.381,4.624c0.037,0.127,0.023,0.264-0.04,0.381       c-0.063,0.117-0.169,0.204-0.297,0.241l-7.203,2.15c-0.744,0.222-1.357,0.721-1.727,1.405c-0.369,0.684-0.45,1.47-0.228,2.215       l0.474,1.589c0.432,1.447,1.954,2.332,3.442,1.987c0.261-0.06,0.518,0.091,0.593,0.344l1.035,3.466       c0.042,0.143,0.019,0.298-0.064,0.422l-3.31,4.847c-0.135,0.18-0.372,0.249-0.583,0.167l-0.18-0.07L143.301,84.004z"/>
				</g>
			</g>
		</g>
		<g>
			<path fill="#1D2445" d="M155.996,49.612l-10.668,3.184l1.633,5.471c-1.665,0.644-3.265,1.234-3.53,1.225     c-0.402-0.013,4.72,3.101,7.923,5.026c0.88,0.529,1.948-0.302,1.655-1.285l-1.044-3.499c-0.177-0.595,0.161-1.221,0.755-1.398     l5.399-1.612L155.996,49.612z"/>
		</g>
		<g>
			<path fill="#1D2445" d="M160.667,60.728c-0.081,0-0.162-0.019-0.237-0.06c-0.243-0.131-0.334-0.435-0.202-0.678l0.718-1.328     c0.202-0.376,0.554-0.662,0.963-0.784l3.417-1.02c0.264-0.081,0.543,0.072,0.622,0.336c0.078,0.265-0.072,0.543-0.337,0.622     l-3.416,1.02c-0.156,0.047-0.292,0.157-0.369,0.301l-0.719,1.328C161.017,60.633,160.845,60.728,160.667,60.728z"/>
		</g>
		<g>
			<path fill="#1D2445" d="M167.919,71.012c-0.645,0-1.27-0.267-1.716-0.733l-0.647-0.678c-0.119-0.125-0.166-0.303-0.123-0.47     c0.043-0.167,0.17-0.301,0.335-0.352l3.11-0.975c0.128-0.041,0.268-0.027,0.384,0.036c0.118,0.063,0.206,0.17,0.245,0.299     l0.663,2.224c0.045,0.151,0.016,0.314-0.078,0.441c-0.094,0.126-0.242,0.201-0.399,0.202l-1.765,0.007     C167.927,71.012,167.919,71.012,167.919,71.012z M166.834,69.493l0.092,0.096c0.258,0.269,0.62,0.424,0.993,0.424v0.5l0.005-0.5     l1.097-0.004l-0.327-1.098L166.834,69.493z"/>
		</g>
		<g>
			<g>
				<path fill="#FFFFFF" d="M129.452,56.104c-0.157,0.047-0.325,0.068-0.498,0.06c-0.828-0.038-1.468-0.739-1.43-1.567      c0.129-2.811,1.034-5.223,2.687-7.169c0.535-0.63,1.483-0.709,2.114-0.171c0.631,0.537,0.708,1.483,0.171,2.114      c-1.23,1.447-1.877,3.202-1.976,5.363C130.491,55.39,130.046,55.927,129.452,56.104z"/>
				<path fill="#1D2445" d="M129.027,56.666c-0.008,0-0.088-0.002-0.097-0.002c-0.532-0.024-1.024-0.255-1.384-0.65      c-0.36-0.395-0.546-0.906-0.521-1.44c0.134-2.922,1.077-5.435,2.805-7.469c0.685-0.808,2.01-0.917,2.82-0.229      c0.839,0.714,0.941,1.979,0.228,2.819c-1.155,1.36-1.763,3.016-1.858,5.063c-0.037,0.848-0.61,1.582-1.425,1.825      C129.41,56.639,129.219,56.666,129.027,56.666z M131.356,47.401c-0.295,0-0.573,0.128-0.764,0.352      c-1.58,1.861-2.444,4.172-2.568,6.868c-0.012,0.267,0.081,0.522,0.261,0.72c0.18,0.198,0.426,0.313,0.692,0.325l0.05,0.501v-0.5      c0.096,0,0.191-0.014,0.283-0.041c0.406-0.121,0.692-0.488,0.712-0.912c0.105-2.277,0.791-4.13,2.095-5.665      c0.356-0.42,0.306-1.053-0.114-1.41C131.823,47.485,131.592,47.401,131.356,47.401z"/>
			</g>
		</g>
		<g>
			<path fill="#1D2445" d="M157.14,84.719c-0.181,0-0.354-0.098-0.443-0.27l-1.661-3.201c-0.412-0.794-0.374-1.721,0.101-2.479     c0.476-0.758,1.306-1.201,2.186-1.171l2.411,0.065c0.275,0.007,0.493,0.237,0.486,0.513c-0.008,0.271-0.229,0.487-0.5,0.487     c-0.004,0-0.009,0-0.014,0l-2.411-0.065c-0.551-0.007-1.025,0.249-1.311,0.703c-0.285,0.455-0.308,1.011-0.061,1.488l1.66,3.201     c0.128,0.245,0.032,0.547-0.213,0.674C157.296,84.701,157.218,84.719,157.14,84.719z"/>
		</g>
		<g>
			<path fill="#1D2445" d="M148.035,42.342l-0.469,0.14c-1.982,0.592-3.109,2.678-2.518,4.66l3.72,12.463l16.619-4.96l-1.042-3.491     C162.274,44.217,154.972,40.272,148.035,42.342z"/>
			<path fill="#1D2445" d="M148.768,60.106c-0.082,0-0.164-0.02-0.237-0.06c-0.117-0.063-0.204-0.17-0.242-0.297l-3.72-12.463     c-0.324-1.087-0.206-2.235,0.333-3.232c0.539-0.998,1.435-1.726,2.521-2.05l0.469-0.14c1.271-0.38,2.582-0.572,3.897-0.572     c5.967,0,11.327,3.997,13.035,9.72l1.042,3.491c0.037,0.127,0.023,0.264-0.04,0.381c-0.063,0.116-0.169,0.203-0.297,0.241     l-16.619,4.96C148.864,60.099,148.816,60.106,148.768,60.106z M151.789,42.291c-1.218,0-2.434,0.178-3.612,0.53l-0.469,0.14     c-0.83,0.248-1.515,0.805-1.927,1.567s-0.502,1.64-0.254,2.471l3.576,11.984l15.661-4.674l-0.899-3.012     C162.283,45.995,157.318,42.291,151.789,42.291z"/>
		</g>
	</g>
	<g>
		<g>
			<g>
				<path fill="#FFFFFF" d="M161.646,107.156l-7.846-9.441L139.512,55.82c-0.4-1.174-1.142-2.141-2.07-2.855      c-0.089-0.166-0.195-0.326-0.327-0.474l-11.197-12.487L106.647,24.31l0.02-0.008l-4.507-4.338l0.046,0.005l-8.4-16.898      c-0.108-0.264-0.409-0.391-0.673-0.284c-0.004,0.002-0.008,0.003-0.012,0.005c-0.711,0.389-1.082,1.33-0.832,2.295l1.352,3.908      l-7.361-7.332c-0.187-0.216-0.513-0.24-0.729-0.053c-0.003,0.003-0.007,0.006-0.01,0.009c-0.524,0.569-0.577,1.513-0.106,2.323      l-3.541-3.28c-0.195-0.208-0.522-0.219-0.73-0.024c-0.003,0.003-0.006,0.006-0.01,0.009C80.63,1.266,80.621,2.278,81.2,3.089      l7.439,8.822c-0.439-0.274-0.865-0.567-1.261-0.9l-1.127-0.95l-7.1-8.998c-0.155-0.24-0.475-0.308-0.715-0.153      c-0.004,0.002-0.007,0.005-0.011,0.007c-0.626,0.514-0.815,1.508-0.39,2.41l4.704,8.213l4.759,9.065      c0.43,0.724,0.197,1.657-0.517,2.087c-0.235,0.14-0.501,0.214-0.768,0.221l-6.758,0.053c-0.751-0.051-1.4,0.515-1.451,1.267      c-0.004,0.034-0.003,0.072-0.002,0.11c0.014,0.329,0.255,0.605,0.582,0.663l14.47,3.227l0-0.019      c0.793,0.192,1.597,0.27,2.397,0.26l16.878,19.705l11.817,12.12l14.875,46.467c0.322,1.761,1.01,3.524,2.136,5.209l12.47,18.69      l1.67-0.94l5.45-5.32C165.496,119.776,165.896,112.266,161.646,107.156z"/>
			</g>
		</g>
		<g>
			<g>
				<path fill="#1D2445" d="M153.626,131.165c-0.162,0-0.32-0.079-0.416-0.222l-12.47-18.69c-1.119-1.675-1.863-3.491-2.213-5.397      l-14.822-46.292L111.97,48.528L95.221,28.974c-0.744-0.006-1.467-0.088-2.153-0.243c-0.044,0.002-0.082-0.001-0.123-0.01      l-14.471-3.227c-0.54-0.096-0.948-0.562-0.973-1.13c-0.001-0.071-0.001-0.134,0.005-0.189c0.065-0.949,0.881-1.712,1.854-1.712      c0.012,0,0.117,0.004,0.129,0.004l6.721-0.054c0.177-0.005,0.358-0.057,0.516-0.151c0.477-0.287,0.632-0.916,0.344-1.402      l-4.772-9.087l-4.694-8.197c-0.535-1.129-0.319-2.367,0.506-3.045c0.615-0.409,1.169-0.194,1.463,0.26l0.694,0.88      c0.019-0.499,0.188-0.97,0.509-1.346c0.024-0.028,0.062-0.063,0.091-0.085c0.305-0.294,1.025-0.313,1.395,0.082l2.366,2.19      c0.052-0.462,0.235-0.891,0.548-1.23c0.522-0.46,1.134-0.353,1.486,0.056l5.802,5.778l-0.645-1.864      c-0.314-1.21,0.128-2.386,1.065-2.897c0.185-0.079,0.313-0.104,0.445-0.104c0.415,0,0.784,0.248,0.942,0.632l8.329,16.754      c0.037,0.042,0.068,0.09,0.09,0.143l4.325,4.163c0.023,0.023,0.045,0.047,0.063,0.073l19.157,15.601l11.253,12.541      c0.129,0.144,0.241,0.3,0.343,0.476c1.009,0.799,1.753,1.843,2.156,3.025l14.259,41.808l7.787,9.37      c4.383,5.269,3.972,13.144-0.937,17.928l-5.449,5.32c-0.031,0.03-0.066,0.056-0.104,0.078l-1.67,0.94      C153.794,131.145,153.71,131.165,153.626,131.165z M95.45,27.973c0.146,0,0.285,0.064,0.38,0.175l16.878,19.706l11.796,12.096      c0.054,0.056,0.094,0.123,0.118,0.197l14.874,46.467c0.34,1.834,1.033,3.523,2.076,5.084l12.212,18.305l1.209-0.68l5.403-5.274      c4.537-4.422,4.917-11.701,0.865-16.572l-7.846-9.441c-0.039-0.047-0.068-0.101-0.089-0.158l-14.289-41.895      c-0.35-1.027-1.008-1.933-1.901-2.62c-0.057-0.043-0.103-0.098-0.137-0.161c-0.077-0.145-0.161-0.268-0.259-0.376      l-11.195-12.487l-19.215-15.64c-0.049-0.039-0.088-0.086-0.118-0.138l-4.399-4.234c-0.092-0.089-0.145-0.206-0.152-0.328      L93.36,3.294c-0.524,0.225-0.771,0.953-0.586,1.669l1.34,3.869c0.076,0.22-0.01,0.463-0.207,0.587      c-0.197,0.123-0.454,0.095-0.618-0.069l-7.36-7.332c-0.397,0.351-0.414,1.064-0.06,1.674c0.124,0.214,0.073,0.487-0.12,0.641      c-0.193,0.154-0.47,0.145-0.652-0.024l-3.541-3.28c-0.407,0.398-0.377,1.167,0.052,1.769l7.414,8.79      c0.159,0.188,0.157,0.464-0.004,0.65c-0.163,0.186-0.437,0.227-0.643,0.096c-0.528-0.33-0.947-0.629-1.318-0.942l-1.128-0.95      c-0.025-0.022-0.049-0.046-0.07-0.073l-7.1-8.998c-0.479,0.311-0.586,1.072-0.271,1.74l4.685,8.178l4.769,9.081      c0.556,0.935,0.246,2.177-0.702,2.748c-0.306,0.182-0.655,0.283-1.012,0.293l-6.769,0.053c-0.003,0-0.005,0-0.008,0      c-0.544,0-0.918,0.352-0.948,0.801c0.003,0.15,0.072,0.229,0.168,0.246l14.363,3.202c0.045-0.003,0.092,0,0.138,0.012      c0.676,0.164,1.396,0.247,2.142,0.247l0.131-0.001C95.447,27.973,95.449,27.973,95.45,27.973z"/>
			</g>
		</g>
	</g>
	<g>
		<path fill="#1D2445" d="M90.681,10.406c-0.141,0-0.281-0.059-0.38-0.175l-6.059-7.084c-0.18-0.21-0.155-0.525,0.055-0.705    c0.211-0.179,0.525-0.156,0.705,0.055l6.059,7.084c0.18,0.21,0.155,0.525-0.055,0.705C90.911,10.366,90.796,10.406,90.681,10.406z    "/>
	</g>
</g>
</svg></g><!--ITEM: Illustration component 4--><g transform="translate(400.0 199.0) rotate(0.0 68.5 76.0)  scale(0.8705045113737451 0.873477878598068)"><svg width="157.38" height="174.017" viewBox="0.0 0.0 157.38 174.017"><rect x="140.386" y="48.013" fill="#1D2445" width="15.494" height="15.814"/>
<g>
	<g>
		<path fill="#1D2445" d="M112.511,169.517H34.503c-16.57,0-30.003-13.433-30.003-30.003V34.503C4.5,17.933,17.933,4.5,34.503,4.5    h78.008c16.57,0,30.003,13.433,30.003,30.003v105.01C142.514,156.084,129.081,169.517,112.511,169.517z"/>
	</g>
	<g>
		<path fill="#FFFFFF" d="M112.511,173.517H34.503c-18.749,0-34.003-15.253-34.003-34.003V34.503C0.5,15.754,15.754,0.5,34.503,0.5    h78.008c18.749,0,34.003,15.254,34.003,34.003v105.01C146.514,158.263,131.26,173.517,112.511,173.517z M34.503,8.5    C20.165,8.5,8.5,20.165,8.5,34.503v105.01c0,14.338,11.665,26.003,26.003,26.003h78.008c14.338,0,26.003-11.665,26.003-26.003    V34.503c0-14.338-11.665-26.003-26.003-26.003H34.503z"/>
		<path fill="#1D2445" d="M112.511,174.017H34.503C15.478,174.017,0,158.539,0,139.514V34.503C0,15.478,15.478,0,34.503,0h78.008    c19.025,0,34.503,15.478,34.503,34.503v105.01C147.014,158.539,131.536,174.017,112.511,174.017z M34.503,1    C16.029,1,1,16.03,1,34.503v105.01c0,18.474,15.029,33.503,33.503,33.503h78.008c18.474,0,33.503-15.029,33.503-33.503V34.503    C146.014,16.03,130.984,1,112.511,1H34.503z M112.511,166.017H34.503C19.889,166.017,8,154.127,8,139.514V34.503    C8,19.889,19.889,8,34.503,8h78.008c14.614,0,26.503,11.889,26.503,26.503v105.01    C139.014,154.127,127.125,166.017,112.511,166.017z M34.503,9C20.441,9,9,20.441,9,34.503v105.01    c0,14.063,11.441,25.503,25.503,25.503h78.008c14.062,0,25.503-11.44,25.503-25.503V34.503C138.014,20.441,126.573,9,112.511,9    H34.503z"/>
	</g>
</g>
<g>
	<path fill="#FFFFFF" d="M73.507,54.008c18.196,0,33,14.804,33,33s-14.804,33-33,33s-33-14.804-33-33S55.311,54.008,73.507,54.008    M73.507,112.008c13.785,0,25-11.215,25-25s-11.215-25-25-25s-25,11.215-25,25S59.722,112.008,73.507,112.008 M73.507,53.008   c-18.748,0-34,15.252-34,34s15.252,34,34,34s34-15.252,34-34S92.254,53.008,73.507,53.008L73.507,53.008z M73.507,111.008   c-13.234,0-24-10.767-24-24s10.766-24,24-24s24,10.767,24,24S86.74,111.008,73.507,111.008L73.507,111.008z"/>
</g>
<g>
	<path fill="#FFFFFF" d="M73.507,43.008c24.262,0,44,19.738,44,44s-19.738,44-44,44s-44-19.738-44-44S49.245,43.008,73.507,43.008    M73.507,123.008c19.851,0,36-16.15,36-36s-16.149-36-36-36s-36,16.15-36,36S53.656,123.008,73.507,123.008 M73.507,42.008   c-24.813,0-45,20.187-45,45s20.187,45,45,45s45-20.187,45-45S98.32,42.008,73.507,42.008L73.507,42.008z M73.507,122.008   c-19.299,0-35-15.701-35-35s15.701-35,35-35s35,15.701,35,35S92.806,122.008,73.507,122.008L73.507,122.008z"/>
</g>
<g>
	<path fill="#FFFFFF" d="M73.507,32.008c30.327,0,55,24.673,55,55s-24.673,55-55,55s-55-24.673-55-55S43.18,32.008,73.507,32.008    M73.507,134.008c25.916,0,47-21.084,47-47s-21.084-47-47-47s-47,21.084-47,47S47.591,134.008,73.507,134.008 M73.507,31.008   c-30.878,0-56,25.122-56,56s25.122,56,56,56s56-25.122,56-56S104.385,31.008,73.507,31.008L73.507,31.008z M73.507,133.008   c-25.365,0-46-20.636-46-46s20.635-46,46-46s46,20.636,46,46S98.871,133.008,73.507,133.008L73.507,133.008z"/>
</g>
<g>
	<path fill="#FFFFFF" d="M102.507,92.008c-2.761,0-5-2.239-5-5c0-13.234-10.766-24-24-24c-2.761,0-5-2.239-5-5s2.239-5,5-5   c18.748,0,34,15.252,34,34C107.507,89.77,105.268,92.008,102.507,92.008z"/>
</g>
<g>
	<path fill="#FFFFFF" d="M73.507,132.008c-24.813,0-45-20.187-45-45c0-2.761,2.239-5,5-5s5,2.239,5,5c0,19.299,15.701,35,35,35   s35-15.701,35-35s-15.701-35-35-35c-2.761,0-5-2.239-5-5s2.239-5,5-5c24.813,0,45,20.187,45,45S98.32,132.008,73.507,132.008z"/>
</g>
<g>
	<path fill="#FFFFFF" d="M73.507,143.008c-30.878,0-56-25.122-56-56c0-13.831,5.084-27.112,14.316-37.396   c1.844-2.056,5.005-2.227,7.061-0.381c2.055,1.845,2.225,5.006,0.381,7.061c-7.582,8.446-11.757,19.355-11.757,30.716   c0,25.364,20.635,46,46,46s46-20.636,46-46s-20.635-46-46-46c-2.761,0-5-2.239-5-5s2.239-5,5-5c30.878,0,56,25.122,56,56   S104.385,143.008,73.507,143.008z"/>
</g>
<g>
	<path fill="#FFFFFF" d="M154.88,69.161h-4.827c-1.105,0-2-0.895-2-2V44.68c0-1.105,0.895-2,2-2h4.827c1.105,0,2,0.895,2,2v22.481   C156.88,68.265,155.985,69.161,154.88,69.161z"/>
	<path fill="#1D2445" d="M154.88,69.661h-4.827c-1.378,0-2.5-1.122-2.5-2.5V44.68c0-1.378,1.122-2.5,2.5-2.5h4.827   c1.378,0,2.5,1.122,2.5,2.5v22.481C157.38,68.539,156.258,69.661,154.88,69.661z M150.053,43.18c-0.827,0-1.5,0.673-1.5,1.5v22.481   c0,0.827,0.673,1.5,1.5,1.5h4.827c0.827,0,1.5-0.673,1.5-1.5V44.68c0-0.827-0.673-1.5-1.5-1.5H150.053z"/>
</g>
</svg></g><!--ITEM: Illustration component 5--><g transform="translate(421.0 328.0) rotate(0.0 65.0 75.5)  scale(0.9962143853357243 0.9946054182941529)"><svg width="130.494" height="151.819" viewBox="0.0 0.0 130.494 151.819"><g>
	<path fill="#FFFFFF" d="M8.5,151.319h113.495c4.418,0,8-3.582,8-8V8.5c0-4.418-3.582-8-8-8H8.5c-4.418,0-8,3.582-8,8v134.819   C0.5,147.737,4.082,151.319,8.5,151.319z"/>
	<path fill="#1D2445" d="M121.994,151.819H8.5c-4.687,0-8.5-3.813-8.5-8.5V8.5C0,3.813,3.813,0,8.5,0h113.494   c4.687,0,8.5,3.813,8.5,8.5v134.819C130.494,148.006,126.681,151.819,121.994,151.819z M8.5,1C4.365,1,1,4.364,1,8.5v134.819   c0,4.136,3.365,7.5,7.5,7.5h113.494c4.136,0,7.5-3.364,7.5-7.5V8.5c0-4.136-3.364-7.5-7.5-7.5H8.5z"/>
</g>
<g>
	<g>
		<path fill="#1D2445" d="M65.247,139.258c-23.978,0-43.484-19.507-43.484-43.484S41.27,52.29,65.247,52.29    c23.977,0,43.484,19.507,43.484,43.484S89.225,139.258,65.247,139.258z M65.247,62.29c-18.463,0-33.484,15.021-33.484,33.484    s15.021,33.484,33.484,33.484c18.463,0,33.484-15.021,33.484-33.484S83.71,62.29,65.247,62.29z"/>
		<path fill="#1D2445" d="M65.247,139.758c-24.253,0-43.984-19.731-43.984-43.984S40.994,51.79,65.247,51.79    s43.984,19.731,43.984,43.984S89.5,139.758,65.247,139.758z M65.247,52.79c-23.702,0-42.984,19.283-42.984,42.984    s19.282,42.984,42.984,42.984c23.701,0,42.984-19.283,42.984-42.984S88.948,52.79,65.247,52.79z M65.247,129.758    c-18.739,0-33.984-15.245-33.984-33.984S46.509,61.79,65.247,61.79s33.984,15.245,33.984,33.984S83.986,129.758,65.247,129.758z     M65.247,62.79c-18.188,0-32.984,14.797-32.984,32.984s14.797,32.984,32.984,32.984s32.984-14.797,32.984-32.984    S83.435,62.79,65.247,62.79z"/>
	</g>
</g>
<g>
	<g>
		<path fill="#FFFFFF" d="M65.247,139.258c-23.978,0-43.484-19.507-43.484-43.484c0-2.761,2.239-5,5-5s5,2.239,5,5    c0,18.463,15.021,33.484,33.484,33.484c18.463,0,33.484-15.021,33.484-33.484S83.71,62.29,65.247,62.29c-2.761,0-5-2.239-5-5    s2.239-5,5-5c23.977,0,43.484,19.507,43.484,43.484S89.225,139.258,65.247,139.258z"/>
		<path fill="#1D2445" d="M65.247,139.758c-24.253,0-43.984-19.731-43.984-43.984c0-3.033,2.467-5.5,5.5-5.5s5.5,2.467,5.5,5.5    c0,18.188,14.797,32.984,32.984,32.984s32.984-14.797,32.984-32.984S83.435,62.79,65.247,62.79c-3.033,0-5.5-2.467-5.5-5.5    s2.467-5.5,5.5-5.5c24.253,0,43.984,19.731,43.984,43.984S89.5,139.758,65.247,139.758z M26.763,91.274    c-2.481,0-4.5,2.019-4.5,4.5c0,23.702,19.282,42.984,42.984,42.984c23.701,0,42.984-19.283,42.984-42.984    S88.948,52.79,65.247,52.79c-2.481,0-4.5,2.019-4.5,4.5s2.019,4.5,4.5,4.5c18.739,0,33.984,15.245,33.984,33.984    s-15.245,33.984-33.984,33.984s-33.984-15.245-33.984-33.984C31.263,93.292,29.244,91.274,26.763,91.274z"/>
	</g>
</g>
<g>
	<g>
		<path fill="#1D2445" d="M51.296,23.187c0,5.031-1.111,11.847-7.108,11.847s-7.108-6.815-7.108-11.847s1.111-11.847,7.108-11.847    S51.296,18.155,51.296,23.187z M39.303,23.187c0,3.627,0.409,9.8,4.885,9.8s4.885-6.173,4.885-9.8s-0.409-9.799-4.885-9.799    S39.303,19.56,39.303,23.187z"/>
		<path fill="#1D2445" d="M58.286,21.841h-2.955v-3.422h2.955V21.841z M58.286,34.565h-2.955v-3.423h2.955V34.565z"/>
		<path fill="#1D2445" d="M76.041,32.518v2.048H62.848v-2.077c3.306-8.307,10.794-9.126,10.794-14.742    c0-2.252-1.434-4.358-3.832-4.358c-2.545,0-4.212,2.398-4.563,4.709l-2.077-0.585c0.702-3.451,3.13-6.172,6.815-6.172    c3.627,0,6.055,2.779,6.055,6.318c0,6.815-8.775,8.425-10.794,14.859H76.041z"/>
		<path fill="#1D2445" d="M93.415,23.187c0,5.031-1.111,11.847-7.108,11.847s-7.108-6.815-7.108-11.847S80.31,11.34,86.307,11.34    S93.415,18.155,93.415,23.187z M81.422,23.187c0,3.627,0.409,9.8,4.885,9.8s4.885-6.173,4.885-9.8s-0.409-9.799-4.885-9.799    S81.422,19.56,81.422,23.187z"/>
	</g>
</g>
</svg></g><!--ITEM: Illustration component 6--><g transform="translate(169.0 189.0) rotate(0.0 6.5 6.5)  scale(1.0295398748713074 1.0236220472440944)"><svg width="12.627" height="12.7" viewBox="0.0 0.0 12.627 12.7"><g>
	<g>
		
			<rect x="4.154" y="0.262" transform="matrix(0.7117 0.7025 -0.7025 0.7117 6.2809 -2.6045)" fill="#1D2445" width="4.319" height="12.176"/>
		<path fill="#1D2445" d="M3.574,12.7c-0.131,0-0.258-0.052-0.351-0.144L0.149,9.522C-0.048,9.327-0.05,9.011,0.144,8.815    l8.554-8.666C8.791,0.054,8.918,0.001,9.05,0c0.001,0,0.002,0,0.003,0c0.131,0,0.258,0.052,0.351,0.144l3.074,3.034    c0.197,0.194,0.199,0.511,0.005,0.707L3.93,12.551C3.835,12.647,3.675,12.719,3.574,12.7z M1.207,9.161l2.362,2.332l7.851-7.955    L9.058,1.207L1.207,9.161z"/>
	</g>
	<g>
		<path fill="#1D2445" d="M4.827,10.591L2.093,7.892C1.512,7.319,1.506,6.384,2.079,5.803l3.632-3.68    C6.285,1.542,7.22,1.536,7.801,2.109l2.734,2.698c0.581,0.573,0.587,1.509,0.014,2.089l-3.632,3.68    C6.343,11.158,5.407,11.164,4.827,10.591z"/>
		<path fill="#1D2445" d="M5.864,11.517c-0.523,0-1.017-0.203-1.389-0.57L1.742,8.248C1.366,7.877,1.157,7.382,1.153,6.854    s0.199-1.026,0.57-1.402l3.632-3.68C6.097,1.019,7.4,1.011,8.152,1.753l2.734,2.698c0.376,0.371,0.585,0.866,0.588,1.395    s-0.199,1.026-0.57,1.402l-3.632,3.68C6.897,11.307,6.397,11.517,5.864,11.517z M6.763,2.183c-0.264,0-0.511,0.103-0.696,0.291    l-3.632,3.68C2.251,6.34,2.151,6.586,2.153,6.847c0.001,0.261,0.105,0.506,0.291,0.689l2.734,2.698    c0.372,0.368,1.016,0.362,1.382-0.009l3.632-3.68c0.184-0.186,0.284-0.432,0.282-0.693c-0.002-0.261-0.105-0.505-0.291-0.689    L7.45,2.465C7.266,2.283,7.022,2.183,6.763,2.183z"/>
	</g>
	<g>
		<circle fill="#1D2445" cx="6.314" cy="6.35" r="2.511"/>
		<path fill="#FFFFFF" d="M6.313,9.361c-0.797,0-1.548-0.308-2.115-0.868C3.017,7.327,3.004,5.416,4.17,4.235    c1.13-1.146,3.114-1.159,4.259-0.028c1.182,1.166,1.194,3.077,0.028,4.258C7.887,9.043,7.125,9.361,6.313,9.361z M6.313,4.339    c-0.542,0-1.05,0.212-1.431,0.598c-0.779,0.79-0.771,2.066,0.019,2.845c0.765,0.755,2.09,0.746,2.844-0.019    c0.779-0.79,0.771-2.065-0.018-2.844C7.348,4.545,6.846,4.339,6.313,4.339z"/>
	</g>
</g>
</svg></g><!--ITEM: Illustration background 7--><g transform="translate(438.0 269.0) rotate(0.0 47.5 100.5) translate(0.0 64.0) scale(1.03090546054345 1.0300877880786556)"><svg width="91.18197894736842" height="132.02758208955225" viewBox="0.0 62.130626865671644 91.18197894736842 132.02758208955225"><polygon fill="#ffffff" points="62.009,21.531 62.009,0 0,0 0,195.129 92.152,195.129 92.152,21.531 "/>
</svg></g><!--ITEM: Illustration component 8--><g transform="translate(436.0 410.0) rotate(0.0 50.0 14.0)  scale(0.9914340101522843 0.9671848013816926)"><svg width="100.864" height="28.95" viewBox="0.0 0.0 100.864 28.95"><g>
	<path fill="#FFFFFF" d="M9.806,27.852h76.189c7.388,0,13.377-5.989,13.377-13.377v0c0-7.388-5.989-13.377-13.377-13.377H9.806   c-5.139,0-9.306,4.166-9.306,9.306v8.142C0.5,23.686,4.666,27.852,9.806,27.852z"/>
	<path fill="#1D2445" d="M85.995,28.352H9.806C4.399,28.352,0,23.953,0,18.546v-8.142c0-5.407,4.399-9.806,9.805-9.806h76.189   c7.652,0,13.877,6.225,13.877,13.877C99.872,22.127,93.647,28.352,85.995,28.352z M9.806,1.598C4.95,1.598,1,5.549,1,10.404v8.142   c0,4.855,3.95,8.806,8.805,8.806h76.189c7.1,0,12.877-5.776,12.877-12.876c0-7.101-5.776-12.877-12.877-12.877H9.806z"/>
</g>
<g>
	<path fill="#1D2445" d="M86.389,28.95c-7.982,0-14.475-6.494-14.475-14.475S78.407,0,86.389,0s14.475,6.494,14.475,14.475   S94.37,28.95,86.389,28.95z M86.389,2C79.51,2,73.914,7.596,73.914,14.475S79.51,26.95,86.389,26.95s12.475-5.596,12.475-12.475   S93.268,2,86.389,2z"/>
</g>
</svg></g><!--ITEM: Illustration component 9--><g transform="translate(437.0 362.0) rotate(0.0 50.0 14.0)  scale(0.9914340101522843 0.9671848013816926)"><svg width="100.864" height="28.95" viewBox="0.0 0.0 100.864 28.95"><g>
	<path fill="#FFFFFF" d="M9.806,27.852h76.189c7.388,0,13.377-5.989,13.377-13.377v0c0-7.388-5.989-13.377-13.377-13.377H9.806   c-5.139,0-9.306,4.166-9.306,9.306v8.142C0.5,23.686,4.666,27.852,9.806,27.852z"/>
	<path fill="#1D2445" d="M85.995,28.352H9.806C4.399,28.352,0,23.953,0,18.546v-8.142c0-5.407,4.399-9.806,9.805-9.806h76.189   c7.652,0,13.877,6.225,13.877,13.877C99.872,22.127,93.647,28.352,85.995,28.352z M9.806,1.598C4.95,1.598,1,5.549,1,10.404v8.142   c0,4.855,3.95,8.806,8.805,8.806h76.189c7.1,0,12.877-5.776,12.877-12.876c0-7.101-5.776-12.877-12.877-12.877H9.806z"/>
</g>
<g>
	<path fill="#1D2445" d="M86.389,28.95c-7.982,0-14.475-6.494-14.475-14.475S78.407,0,86.389,0s14.475,6.494,14.475,14.475   S94.37,28.95,86.389,28.95z M86.389,2C79.51,2,73.914,7.596,73.914,14.475S79.51,26.95,86.389,26.95s12.475-5.596,12.475-12.475   S93.268,2,86.389,2z"/>
</g>
</svg></g><!--ITEM: Illustration component 10--><g transform="translate(515.0 371.0) rotate(0.0 7.5 6.5)  scale(0.7263922518159807 0.7602339181286549)"><svg width="20.65" height="17.1" viewBox="0.0 0.0 20.65 17.1"><g>
	<path fill="#1d2445" d="M1.404,1.404L1.404,1.404c-1.872,1.872-1.872,4.906,0,6.778l8.918,8.918l6.778-6.778L8.182,1.404   C6.31-0.468,3.275-0.468,1.404,1.404z"/>
	<path fill="#1d2445" d="M19.246,1.404L19.246,1.404c1.872,1.872,1.872,4.906,0,6.778L10.328,17.1L3.55,10.322l8.918-8.918   C14.34-0.468,17.374-0.468,19.246,1.404z"/>
</g>
</svg></g><!--ITEM: Illustration component 11--><g transform="translate(514.0 412.0) rotate(0.0 8.0 9.5) translate(0.0 3.0) scale(0.7536859955720948 0.7395873880887505)"><svg width="21.229" height="21.63368421052631" viewBox="0.0 4.056315789473684 21.229 21.63368421052631"><g>
	<g>
		<path fill="#1d2445" d="M18.076,25.52l-3.926-1.59c-0.865-0.351-1.432-1.191-1.432-2.125V10.412c0-2.062,2.511-3.076,3.942-1.591    l1.232,1.278c2.14,2.219,3.336,5.182,3.336,8.265v5.031C21.229,25.021,19.583,26.13,18.076,25.52z"/>
	</g>
	<g>
		<path fill="#1d2445" d="M3.153,25.52l3.926-1.59c0.865-0.351,1.432-1.191,1.432-2.125V10.412C8.511,8.35,6,7.337,4.568,8.821    l-1.232,1.278C1.196,12.319,0,15.281,0,18.364v5.031C0,25.021,1.646,26.13,3.153,25.52z"/>
	</g>
	<g>
		<path fill="#1d2445" d="M3.861,17.551c-0.352,0-0.692-0.186-0.875-0.514c-0.269-0.483-0.094-1.092,0.388-1.36l6.204-3.446V1    c0-0.552,0.448-1,1-1s1,0.448,1,1v11.819c0,0.363-0.197,0.698-0.514,0.874l-6.718,3.732C4.192,17.51,4.025,17.551,3.861,17.551z"/>
	</g>
	<g>
		<path fill="#1d2445" d="M17.294,17.551c-0.164,0-0.331-0.041-0.485-0.126l-6.718-3.732c-0.317-0.176-0.514-0.511-0.514-0.874V1    c0-0.552,0.448-1,1-1s1,0.448,1,1v11.23l6.204,3.446c0.482,0.268,0.657,0.877,0.388,1.36    C17.987,17.365,17.646,17.551,17.294,17.551z"/>
	</g>
</g>
</svg></g><!--ITEM: Illustration component 12--><g transform="translate(447.0 365.0) rotate(0.0 29.0 11.0)  scale(0.7813447212081207 0.7838107453327633)"><svg width="74.231" height="28.068" viewBox="0.0 0.0 74.231 28.068"><g>
	<g>
		<path fill="#1d2445" d="M51.677,28.068c-0.045,0-0.09-0.006-0.135-0.019c-0.208-0.058-0.354-0.243-0.364-0.459l-0.785-17.335    l-0.667,11.624c-0.012,0.208-0.153,0.388-0.353,0.449s-0.417-0.008-0.544-0.175l-3.446-4.518l-6.549,4.623    c-0.11,0.077-0.248,0.104-0.38,0.083c-0.133-0.025-0.25-0.102-0.325-0.214l-3.262-4.893l-7.139,10.612    c-0.121,0.179-0.341,0.261-0.55,0.202c-0.208-0.058-0.354-0.243-0.364-0.459l-0.785-17.333l-0.667,11.622    c-0.012,0.208-0.152,0.388-0.353,0.449c-0.2,0.061-0.417-0.008-0.544-0.175l-3.446-4.518l-6.549,4.623    c-0.11,0.077-0.248,0.104-0.38,0.083c-0.133-0.025-0.25-0.102-0.325-0.214l-3.262-4.893L3.366,27.847    c-0.121,0.179-0.342,0.261-0.55,0.202c-0.208-0.058-0.354-0.243-0.364-0.459L1.666,10.255L0.999,21.879    c-0.016,0.276-0.255,0.486-0.528,0.47c-0.275-0.016-0.486-0.252-0.47-0.528L1.226,0.473c0.015-0.265,0.234-0.471,0.499-0.471    c0.001,0,0.002,0,0.003,0C1.995,0.004,2.213,0.214,2.225,0.48l1.157,25.552l6.709-9.974c0.093-0.138,0.249-0.221,0.415-0.221    c0,0,0,0,0.001,0c0.167,0,0.323,0.084,0.415,0.223l3.391,5.086l6.523-4.605c0.221-0.154,0.523-0.108,0.686,0.105l2.919,3.827    l1.148-20c0.015-0.266,0.233-0.498,0.502-0.471c0.266,0.001,0.484,0.211,0.497,0.478l1.157,25.552l6.709-9.974    c0.093-0.138,0.249-0.221,0.415-0.221c0.16-0.033,0.323,0.083,0.416,0.223l3.391,5.086l6.524-4.605    c0.22-0.154,0.522-0.108,0.686,0.105l2.918,3.827l1.148-20c0.015-0.265,0.234-0.471,0.499-0.471c0.001,0,0.002,0,0.003,0    c0.266,0.001,0.484,0.211,0.497,0.478l1.157,25.552l6.709-9.975c0.093-0.138,0.249-0.221,0.415-0.221c0,0,0,0,0.001,0    c0.167,0,0.323,0.084,0.415,0.223l3.391,5.086l6.523-4.605c0.219-0.152,0.516-0.109,0.681,0.098l3.88,4.901    c0.171,0.217,0.135,0.531-0.082,0.703c-0.217,0.171-0.532,0.135-0.703-0.082l-3.586-4.53l-6.556,4.628    c-0.11,0.077-0.248,0.104-0.38,0.083c-0.133-0.025-0.25-0.102-0.325-0.214l-3.262-4.893l-7.139,10.612    C51.997,27.987,51.84,28.068,51.677,28.068z"/>
	</g>
</g>
</svg></g><!--ITEM: Illustration component 13--><g transform="translate(444.0 414.0) rotate(0.0 31.0 9.0)  scale(0.8290321717968604 0.8169934640522876)"><svg width="74.786" height="22.032" viewBox="0.0 0.0 74.786 22.032"><g>
	<g>
		<path fill="#1d2445" d="M8.293,22.032c-0.253,0-0.505-0.062-0.757-0.197C4.971,20.453,5.352,15.31,5.72,10.336    C6,6.558,6.29,2.652,5.147,1.398C4.906,1.134,4.615,1.007,4.229,1C3.92,0.978,3.674,1.087,3.47,1.294    C2.463,2.316,2.575,5.67,2.685,8.913c0.145,4.285,0.294,8.715-1.952,9.893c-0.245,0.127-0.547,0.034-0.675-0.21    c-0.128-0.245-0.034-0.547,0.21-0.675c1.69-0.886,1.545-5.183,1.417-8.974C1.564,5.333,1.448,1.92,2.758,0.591    C3.156,0.188,3.654-0.005,4.249,0C4.909,0.013,5.46,0.257,5.886,0.725c1.432,1.573,1.14,5.513,0.832,9.685    C6.389,14.849,6.016,19.88,8.01,20.954c0.792,0.425,2.181-1.258,3.407-2.744c1.319-1.599,2.565-3.108,3.851-3.267    c0.86-0.106,1.557,0.741,2.295,1.637c0.43,0.522,1.074,1.331,1.4,1.284c0.274-0.018,0.517,0.183,0.54,0.458    c0.022,0.275-0.182,0.517-0.458,0.54c-0.846,0.06-1.528-0.764-2.254-1.645c-0.433-0.526-1.086-1.291-1.401-1.281    c-0.89,0.11-2.118,1.598-3.202,2.911C10.843,20.477,9.56,22.032,8.293,22.032z"/>
	</g>
	<g>
		<path fill="#1d2445" d="M26.72,22.032c-0.252,0-0.505-0.062-0.756-0.197c-2.565-1.382-2.185-6.525-1.816-11.499    c0.28-3.777,0.569-7.684-0.573-8.938C23.333,1.134,23.042,1.007,22.656,1c-0.318-0.022-0.556,0.087-0.759,0.293    c-1.007,1.022-0.895,4.376-0.785,7.619c0.145,4.285,0.294,8.715-1.952,9.893c-0.246,0.127-0.547,0.034-0.675-0.21    c-0.128-0.245-0.034-0.547,0.21-0.675c1.69-0.886,1.545-5.183,1.417-8.974c-0.122-3.613-0.237-7.027,1.073-8.355    C21.583,0.188,22.082-0.005,22.675,0c0.661,0.013,1.211,0.257,1.638,0.725c1.433,1.573,1.141,5.513,0.832,9.685    c-0.329,4.439-0.702,9.47,1.293,10.544c0.787,0.425,2.181-1.258,3.407-2.744c1.319-1.598,2.565-3.108,3.851-3.266    c0.861-0.106,1.557,0.741,2.296,1.638c0.43,0.522,1.065,1.331,1.4,1.283c0.27-0.018,0.517,0.183,0.54,0.458    c0.022,0.275-0.182,0.517-0.458,0.54c-0.846,0.06-1.528-0.764-2.254-1.645c-0.433-0.526-1.091-1.291-1.402-1.281    c-0.89,0.11-2.118,1.598-3.201,2.911C29.27,20.477,27.987,22.032,26.72,22.032z"/>
	</g>
	<g>
		<path fill="#1d2445" d="M45.147,22.032c-0.253,0-0.505-0.062-0.757-0.197c-2.565-1.382-2.185-6.525-1.816-11.5    c0.28-3.777,0.569-7.683-0.574-8.937C41.76,1.134,41.469,1.007,41.083,1c-0.297-0.022-0.556,0.087-0.759,0.293    c-1.007,1.022-0.895,4.376-0.785,7.62c0.145,4.284,0.293,8.714-1.952,9.893c-0.245,0.127-0.547,0.034-0.675-0.21    c-0.128-0.245-0.034-0.547,0.21-0.675c1.69-0.886,1.545-5.183,1.417-8.973c-0.122-3.614-0.237-7.027,1.073-8.355    C40.01,0.188,40.509-0.005,41.103,0c0.66,0.013,1.211,0.257,1.638,0.725c1.432,1.572,1.14,5.513,0.831,9.685    c-0.329,4.439-0.702,9.471,1.293,10.544c0.791,0.425,2.181-1.258,3.407-2.744c1.319-1.599,2.565-3.108,3.851-3.267    c0.861-0.106,1.557,0.741,2.295,1.637c0.43,0.522,1.088,1.331,1.4,1.284c0.269-0.02,0.517,0.183,0.54,0.458    c0.022,0.275-0.182,0.517-0.458,0.54c-0.846,0.06-1.528-0.764-2.254-1.645c-0.433-0.526-1.095-1.291-1.401-1.281    c-0.89,0.11-2.118,1.598-3.202,2.911C47.697,20.477,46.414,22.032,45.147,22.032z"/>
	</g>
	<g>
		<path fill="#1d2445" d="M63.574,22.032c-0.253,0-0.505-0.062-0.757-0.197c-2.565-1.382-2.185-6.525-1.816-11.499    c0.28-3.777,0.569-7.683-0.573-8.938C60.187,1.134,59.896,1.007,59.51,1c-0.307-0.022-0.556,0.087-0.759,0.293    c-1.007,1.022-0.895,4.376-0.785,7.619c0.145,4.285,0.294,8.715-1.952,9.893c-0.246,0.127-0.547,0.034-0.675-0.21    c-0.128-0.245-0.034-0.547,0.21-0.675c1.69-0.886,1.545-5.183,1.417-8.974c-0.122-3.613-0.237-7.027,1.073-8.355    C58.437,0.188,58.938-0.005,59.529,0c0.661,0.013,1.211,0.257,1.638,0.725c1.432,1.573,1.14,5.513,0.831,9.685    c-0.329,4.439-0.701,9.471,1.293,10.544c0.791,0.425,2.18-1.258,3.407-2.744c1.319-1.599,2.565-3.108,3.851-3.267    c0.861-0.106,1.556,0.741,2.295,1.637c0.43,0.521,1.083,1.298,1.401,1.284c0.27-0.018,0.517,0.183,0.54,0.458    c0.022,0.275-0.182,0.517-0.458,0.54c-0.847,0.067-1.528-0.764-2.254-1.645c-0.433-0.525-1.099-1.29-1.401-1.281    c-0.89,0.11-2.118,1.598-3.202,2.911C66.124,20.477,64.841,22.032,63.574,22.032z"/>
	</g>
</g>
</svg></g></svg>