<svg xmlns="http://www.w3.org/2000/svg" xmlns:xlink="http://www.w3.org/1999/xlink" width="500" zoomAndPan="magnify" viewBox="0 0 375 374.999991" height="500" preserveAspectRatio="xMidYMid meet" version="1.0"><defs><g/><clipPath id="id1"><path d="M 105.8125 31.417969 L 269.3125 31.417969 L 269.3125 266.167969 L 105.8125 266.167969 Z M 105.8125 31.417969 " clip-rule="nonzero"/></clipPath></defs><g clip-path="url(#id1)"><path fill="rgb(26.669312%, 9.799194%, 36.859131%)" d="M 269.289062 116.460938 C 269.332031 118.246094 269.316406 120.027344 269.246094 121.8125 C 269.175781 123.59375 269.050781 125.375 268.871094 127.152344 C 268.691406 128.925781 268.457031 130.695312 268.167969 132.457031 C 267.878906 134.21875 267.535156 135.96875 267.140625 137.707031 C 266.742188 139.449219 266.292969 141.175781 265.789062 142.886719 C 265.289062 144.601562 264.734375 146.296875 264.125 147.972656 C 263.519531 149.652344 262.859375 151.3125 262.152344 152.949219 C 261.441406 154.585938 260.683594 156.199219 259.875 157.792969 C 259.066406 159.382812 258.207031 160.949219 257.300781 162.484375 C 256.398438 164.023438 255.445312 165.535156 254.449219 167.011719 C 253.449219 168.492188 252.40625 169.941406 251.320312 171.355469 C 250.230469 172.773438 249.101562 174.152344 247.929688 175.5 C 246.757812 176.84375 245.546875 178.152344 244.292969 179.425781 C 243.039062 180.695312 241.75 181.925781 240.417969 183.121094 C 239.089844 184.3125 237.726562 185.460938 236.328125 186.570312 C 234.925781 187.675781 233.496094 188.742188 232.03125 189.761719 C 230.566406 190.78125 229.070312 191.753906 227.542969 192.679688 C 226.019531 193.609375 224.46875 194.488281 222.886719 195.320312 C 221.308594 196.152344 219.707031 196.933594 218.078125 197.667969 C 216.449219 198.402344 214.800781 199.085938 213.132812 199.714844 C 211.464844 200.347656 209.777344 200.929688 208.070312 201.457031 C 206.367188 201.984375 204.644531 202.460938 202.910156 202.882812 C 201.175781 203.304688 199.429688 203.671875 197.675781 203.984375 C 195.917969 204.300781 194.152344 204.5625 192.378906 204.765625 C 190.605469 204.972656 188.828125 205.125 187.046875 205.21875 C 185.261719 205.316406 183.480469 205.359375 181.695312 205.34375 C 179.910156 205.332031 178.125 205.261719 176.34375 205.140625 C 174.566406 205.015625 172.789062 204.839844 171.019531 204.605469 C 169.25 204.375 167.488281 204.085938 165.734375 203.746094 C 163.984375 203.40625 162.242188 203.011719 160.515625 202.5625 C 158.789062 202.113281 157.074219 201.613281 155.378906 201.0625 C 153.679688 200.507812 152.003906 199.902344 150.34375 199.246094 L 150.34375 243.878906 C 150.34375 244.605469 150.308594 245.332031 150.238281 246.058594 C 150.164062 246.785156 150.058594 247.503906 149.917969 248.21875 C 149.773438 248.9375 149.597656 249.640625 149.386719 250.339844 C 149.175781 251.039062 148.929688 251.722656 148.648438 252.398438 C 148.371094 253.070312 148.058594 253.730469 147.714844 254.371094 C 147.371094 255.015625 146.996094 255.640625 146.59375 256.246094 C 146.1875 256.851562 145.753906 257.4375 145.292969 258 C 144.828125 258.566406 144.339844 259.105469 143.824219 259.621094 C 143.308594 260.136719 142.769531 260.625 142.207031 261.085938 C 141.640625 261.550781 141.058594 261.984375 140.449219 262.390625 C 139.84375 262.792969 139.21875 263.167969 138.578125 263.511719 C 137.933594 263.855469 137.273438 264.167969 136.601562 264.445312 C 135.925781 264.726562 135.242188 264.972656 134.542969 265.183594 C 133.847656 265.394531 133.140625 265.570312 132.425781 265.714844 C 131.710938 265.855469 130.988281 265.960938 130.261719 266.035156 C 129.539062 266.105469 128.808594 266.140625 128.082031 266.140625 C 127.351562 266.140625 126.625 266.105469 125.898438 266.035156 C 125.171875 265.964844 124.453125 265.855469 123.738281 265.714844 C 123.023438 265.574219 122.316406 265.394531 121.617188 265.183594 C 120.917969 264.972656 120.234375 264.726562 119.558594 264.449219 C 118.886719 264.171875 118.226562 263.859375 117.585938 263.515625 C 116.941406 263.171875 116.316406 262.796875 115.710938 262.390625 C 115.105469 261.988281 114.519531 261.554688 113.957031 261.089844 C 113.390625 260.628906 112.851562 260.140625 112.335938 259.625 C 111.820312 259.109375 111.332031 258.566406 110.867188 258.003906 C 110.40625 257.441406 109.972656 256.855469 109.566406 256.25 C 109.160156 255.644531 108.785156 255.019531 108.441406 254.375 C 108.097656 253.730469 107.789062 253.074219 107.507812 252.398438 C 107.230469 251.726562 106.984375 251.039062 106.773438 250.34375 C 106.5625 249.644531 106.382812 248.9375 106.242188 248.222656 C 106.097656 247.507812 105.992188 246.785156 105.921875 246.058594 C 105.847656 245.335938 105.8125 244.605469 105.8125 243.878906 L 105.8125 158.949219 C 105.8125 158.21875 105.847656 157.492188 105.921875 156.769531 C 105.992188 156.042969 106.097656 155.324219 106.242188 154.609375 C 106.382812 153.890625 106.558594 153.1875 106.773438 152.488281 C 106.984375 151.792969 107.230469 151.105469 107.507812 150.433594 C 107.785156 149.757812 108.097656 149.101562 108.441406 148.457031 C 108.785156 147.816406 109.160156 147.191406 109.566406 146.585938 C 109.96875 145.980469 110.402344 145.394531 110.867188 144.832031 C 111.328125 144.265625 111.816406 143.726562 112.332031 143.210938 C 112.847656 142.695312 113.386719 142.207031 113.953125 141.746094 C 114.515625 141.285156 115.097656 140.851562 115.707031 140.445312 C 116.3125 140.039062 116.9375 139.664062 117.578125 139.320312 C 118.222656 138.976562 118.878906 138.667969 119.554688 138.386719 C 120.226562 138.109375 120.914062 137.863281 121.609375 137.652344 C 122.308594 137.441406 123.015625 137.265625 123.730469 137.121094 C 124.445312 136.980469 125.164062 136.871094 125.890625 136.800781 C 126.617188 136.730469 127.34375 136.695312 128.070312 136.695312 C 128.710938 136.695312 129.347656 136.730469 129.976562 136.785156 C 130.628906 136.730469 131.292969 136.695312 131.96875 136.695312 C 133.625 136.6875 135.257812 136.867188 136.871094 137.230469 C 138.484375 137.589844 140.039062 138.125 141.53125 138.835938 C 143.027344 139.546875 144.421875 140.414062 145.71875 141.4375 C 147.019531 142.460938 148.1875 143.613281 149.230469 144.902344 C 150.613281 146.636719 152.128906 148.253906 153.765625 149.75 C 155.40625 151.25 157.152344 152.609375 159.007812 153.832031 C 160.863281 155.054688 162.800781 156.128906 164.820312 157.046875 C 166.84375 157.964844 168.925781 158.722656 171.066406 159.3125 C 173.207031 159.90625 175.378906 160.328125 177.585938 160.578125 C 179.792969 160.828125 182.007812 160.90625 184.226562 160.808594 C 186.445312 160.710938 188.644531 160.441406 190.820312 160 C 192.996094 159.554688 195.125 158.945312 197.207031 158.171875 C 199.289062 157.394531 201.292969 156.460938 203.230469 155.367188 C 205.164062 154.273438 207 153.039062 208.738281 151.660156 C 210.480469 150.277344 212.101562 148.769531 213.605469 147.136719 C 215.105469 145.5 216.472656 143.757812 217.703125 141.90625 C 218.929688 140.058594 220.007812 138.121094 220.933594 136.105469 C 221.859375 134.085938 222.621094 132.007812 223.21875 129.867188 C 223.816406 127.730469 224.246094 125.554688 224.503906 123.351562 C 224.757812 121.144531 224.84375 118.933594 224.753906 116.714844 C 223.875 94.339844 205.480469 76.363281 183.097656 75.980469 C 181.316406 75.949219 179.539062 76.03125 177.765625 76.222656 C 175.996094 76.417969 174.242188 76.71875 172.507812 77.132812 C 170.773438 77.546875 169.074219 78.070312 167.40625 78.699219 C 165.738281 79.324219 164.117188 80.058594 162.542969 80.890625 C 160.96875 81.722656 159.449219 82.652344 157.992188 83.675781 C 156.53125 84.699219 155.144531 85.808594 153.828125 87.007812 C 152.507812 88.207031 151.269531 89.484375 150.113281 90.839844 C 148.957031 92.195312 147.886719 93.617188 146.910156 95.109375 C 145.910156 96.648438 144.738281 98.039062 143.394531 99.289062 C 142.046875 100.535156 140.570312 101.597656 138.960938 102.480469 C 137.351562 103.359375 135.65625 104.027344 133.882812 104.488281 C 132.105469 104.945312 130.300781 105.179688 128.464844 105.191406 L 127.878906 105.191406 C 110.339844 105.191406 99.871094 85.738281 109.445312 71.046875 C 110.699219 69.113281 112.03125 67.234375 113.433594 65.40625 C 114.839844 63.578125 116.3125 61.808594 117.859375 60.101562 C 119.402344 58.390625 121.015625 56.742188 122.691406 55.160156 C 124.367188 53.578125 126.101562 52.066406 127.898438 50.621094 C 129.695312 49.179688 131.546875 47.808594 133.453125 46.511719 C 135.359375 45.214844 137.3125 43.996094 139.316406 42.851562 C 141.316406 41.710938 143.363281 40.652344 145.449219 39.671875 C 147.535156 38.695312 149.65625 37.800781 151.816406 36.988281 C 153.972656 36.179688 156.160156 35.457031 158.375 34.820312 C 160.59375 34.183594 162.828125 33.636719 165.089844 33.179688 C 167.347656 32.71875 169.621094 32.351562 171.910156 32.074219 C 174.199219 31.796875 176.492188 31.613281 178.796875 31.515625 C 181.097656 31.421875 183.402344 31.417969 185.707031 31.507812 C 188.007812 31.59375 190.304688 31.773438 192.59375 32.046875 C 194.882812 32.316406 197.160156 32.679688 199.417969 33.128906 C 201.679688 33.582031 203.917969 34.125 206.136719 34.753906 C 208.351562 35.382812 210.542969 36.101562 212.703125 36.902344 C 214.863281 37.707031 216.988281 38.597656 219.078125 39.570312 C 221.164062 40.542969 223.214844 41.597656 225.21875 42.734375 C 227.226562 43.867188 229.183594 45.082031 231.089844 46.375 C 233 47.664062 234.855469 49.03125 236.65625 50.46875 C 238.457031 51.910156 240.195312 53.417969 241.878906 54.996094 C 243.558594 56.570312 245.171875 58.214844 246.722656 59.917969 C 248.273438 61.625 249.753906 63.390625 251.164062 65.214844 C 252.570312 67.039062 253.90625 68.914062 255.167969 70.84375 C 256.425781 72.773438 257.609375 74.75 258.710938 76.773438 C 259.816406 78.796875 260.835938 80.863281 261.773438 82.96875 C 262.714844 85.070312 263.566406 87.210938 264.335938 89.382812 C 265.105469 91.554688 265.785156 93.757812 266.378906 95.984375 C 266.972656 98.210938 267.476562 100.457031 267.890625 102.726562 C 268.308594 104.992188 268.632812 107.273438 268.863281 109.566406 C 269.097656 111.859375 269.242188 114.15625 269.289062 116.460938 Z M 269.289062 116.460938 " fill-opacity="1" fill-rule="nonzero"/></g><g fill="rgb(98.81897%, 39.99939%, 0.389099%)" fill-opacity="1"><g transform="translate(14.7355, 342.935728)"><g><path d="M 14.515625 0 L 3.40625 0 L 3.40625 -40.25 L 18.65625 -40.25 C 24.882812 -40.25 29.484375 -39.125 32.453125 -36.875 C 35.421875 -34.625 36.90625 -31.347656 36.90625 -27.046875 C 36.90625 -24.171875 36.128906 -21.691406 34.578125 -19.609375 C 33.023438 -17.535156 30.832031 -15.941406 28 -14.828125 C 25.164062 -13.710938 21.785156 -13.15625 17.859375 -13.15625 L 14.515625 -13.15625 Z M 18.984375 -31.125 L 14.515625 -31.125 L 14.515625 -22.328125 L 18.421875 -22.328125 C 20.765625 -22.328125 22.550781 -22.6875 23.78125 -23.40625 C 25.007812 -24.125 25.625 -25.296875 25.625 -26.921875 C 25.625 -28.359375 25.09375 -29.414062 24.03125 -30.09375 C 22.976562 -30.78125 21.296875 -31.125 18.984375 -31.125 Z M 18.984375 -31.125 "/></g></g></g><g fill="rgb(98.81897%, 39.99939%, 0.389099%)" fill-opacity="1"><g transform="translate(66.144651, 342.935728)"><g><path d="M 32.765625 -30.546875 L 14.5625 -30.546875 L 14.5625 -25.0625 L 31.296875 -25.0625 L 31.296875 -15.359375 L 14.5625 -15.359375 L 14.5625 -9.6875 L 33.21875 -9.6875 L 32.53125 0 L 3.40625 0 L 3.40625 -40.25 L 32.765625 -40.25 Z M 32.765625 -30.546875 "/></g></g></g><g fill="rgb(98.81897%, 39.99939%, 0.389099%)" fill-opacity="1"><g transform="translate(114.039818, 342.935728)"><g><path d="M 38.890625 -10.4375 L 41.5 -1.703125 C 40.59375 -0.984375 39.378906 -0.40625 37.859375 0.03125 C 36.347656 0.46875 34.820312 0.6875 33.28125 0.6875 C 30.289062 0.6875 27.8125 0.140625 25.84375 -0.953125 C 23.882812 -2.054688 22.300781 -3.609375 21.09375 -5.609375 L 17.34375 -11.90625 C 16.894531 -12.65625 16.460938 -13.21875 16.046875 -13.59375 C 15.628906 -13.976562 15.117188 -14.226562 14.515625 -14.34375 L 14.515625 0 L 3.40625 0 L 3.40625 -40.25 L 17 -40.25 C 23.195312 -40.25 27.78125 -39.078125 30.75 -36.734375 C 33.71875 -34.390625 35.203125 -31.140625 35.203125 -26.984375 C 35.203125 -24.035156 34.347656 -21.585938 32.640625 -19.640625 C 30.941406 -17.691406 28.695312 -16.320312 25.90625 -15.53125 C 27.34375 -15.082031 28.476562 -14.234375 29.3125 -12.984375 L 30.328125 -11.453125 C 31.273438 -9.972656 32.726562 -9.234375 34.6875 -9.234375 C 35.40625 -9.234375 36.113281 -9.316406 36.8125 -9.484375 C 37.519531 -9.660156 38.210938 -9.976562 38.890625 -10.4375 Z M 16.890625 -31.125 L 14.515625 -31.125 L 14.515625 -23.125 L 17.40625 -23.125 C 19.863281 -23.125 21.570312 -23.453125 22.53125 -24.109375 C 23.5 -24.773438 23.984375 -25.804688 23.984375 -27.203125 C 23.984375 -28.722656 23.328125 -29.753906 22.015625 -30.296875 C 20.710938 -30.847656 19.003906 -31.125 16.890625 -31.125 Z M 16.890625 -31.125 "/></g></g></g><g fill="rgb(98.81897%, 39.99939%, 0.389099%)" fill-opacity="1"><g transform="translate(167.092602, 342.935728)"><g><path d="M -2.203125 0 L 15.53125 -40.25 L 24.9375 -40.25 L 42.0625 0 L 30.609375 0 L 27.78125 -7.203125 L 12.1875 -7.203125 L 9.234375 0 Z M 16.046875 -16.546875 L 24.03125 -16.546875 L 20.125 -26.421875 Z M 16.046875 -16.546875 "/></g></g></g><g fill="rgb(98.81897%, 39.99939%, 0.389099%)" fill-opacity="1"><g transform="translate(221.335608, 342.935728)"><g><path d="M 16.953125 0.5625 C 11.890625 0.5625 7.9375 -0.507812 5.09375 -2.65625 C 2.257812 -4.8125 0.65625 -7.953125 0.28125 -12.078125 L 10.765625 -13.609375 C 10.847656 -12.171875 11.484375 -11.003906 12.671875 -10.109375 C 13.859375 -9.222656 15.398438 -8.78125 17.296875 -8.78125 C 20.765625 -8.78125 22.5 -9.6875 22.5 -11.5 C 22.5 -12.332031 22.015625 -13.003906 21.046875 -13.515625 C 20.085938 -14.023438 18.515625 -14.546875 16.328125 -15.078125 C 11.640625 -16.210938 8.195312 -17.722656 6 -19.609375 C 3.8125 -21.503906 2.738281 -24.171875 2.78125 -27.609375 C 2.8125 -30.210938 3.5 -32.503906 4.84375 -34.484375 C 6.1875 -36.472656 8.078125 -38.023438 10.515625 -39.140625 C 12.953125 -40.253906 15.816406 -40.8125 19.109375 -40.8125 C 23.148438 -40.8125 26.484375 -39.789062 29.109375 -37.75 C 31.734375 -35.707031 33.234375 -32.929688 33.609375 -29.421875 L 23.703125 -27.71875 C 23.503906 -28.8125 22.921875 -29.707031 21.953125 -30.40625 C 20.992188 -31.113281 19.835938 -31.46875 18.484375 -31.46875 C 17.191406 -31.46875 16.160156 -31.210938 15.390625 -30.703125 C 14.617188 -30.191406 14.234375 -29.5 14.234375 -28.625 C 14.234375 -27.832031 14.617188 -27.140625 15.390625 -26.546875 C 16.160156 -25.960938 17.625 -25.410156 19.78125 -24.890625 C 22.882812 -24.128906 25.484375 -23.265625 27.578125 -22.296875 C 29.671875 -21.335938 31.253906 -20.101562 32.328125 -18.59375 C 33.410156 -17.082031 33.953125 -15.097656 33.953125 -12.640625 C 33.953125 -10.035156 33.242188 -7.738281 31.828125 -5.75 C 30.410156 -3.769531 28.425781 -2.222656 25.875 -1.109375 C 23.320312 0.00390625 20.347656 0.5625 16.953125 0.5625 Z M 16.953125 0.5625 "/></g></g></g><g fill="rgb(98.81897%, 39.99939%, 0.389099%)" fill-opacity="1"><g transform="translate(270.250965, 342.935728)"><g><path d="M 22.453125 0.5625 C 18.097656 0.601562 14.351562 -0.164062 11.21875 -1.75 C 8.082031 -3.34375 5.679688 -5.628906 4.015625 -8.609375 C 2.359375 -11.597656 1.53125 -15.191406 1.53125 -19.390625 C 1.53125 -23.691406 2.4375 -27.445312 4.25 -30.65625 C 6.0625 -33.875 8.59375 -36.367188 11.84375 -38.140625 C 15.09375 -39.921875 18.890625 -40.8125 23.234375 -40.8125 C 27.203125 -40.8125 30.671875 -39.976562 33.640625 -38.3125 C 36.609375 -36.65625 38.914062 -34.34375 40.5625 -31.375 C 42.207031 -28.40625 43.03125 -24.921875 43.03125 -20.921875 C 43.03125 -16.679688 42.171875 -12.957031 40.453125 -9.75 C 38.734375 -6.539062 36.320312 -4.023438 33.21875 -2.203125 C 30.125 -0.390625 26.535156 0.53125 22.453125 0.5625 Z M 22.171875 -9.359375 C 25.078125 -9.359375 27.378906 -10.382812 29.078125 -12.4375 C 30.773438 -14.5 31.625 -17.25 31.625 -20.6875 C 31.625 -23.789062 30.820312 -26.265625 29.21875 -28.109375 C 27.613281 -29.960938 25.46875 -30.890625 22.78125 -30.890625 C 20.820312 -30.890625 19.101562 -30.40625 17.625 -29.4375 C 16.15625 -28.476562 15.015625 -27.15625 14.203125 -25.46875 C 13.390625 -23.789062 12.984375 -21.859375 12.984375 -19.671875 C 12.984375 -16.421875 13.796875 -13.890625 15.421875 -12.078125 C 17.046875 -10.265625 19.296875 -9.359375 22.171875 -9.359375 Z M 22.171875 -9.359375 "/></g></g></g><g fill="rgb(98.81897%, 39.99939%, 0.389099%)" fill-opacity="1"><g transform="translate(328.971481, 342.935728)"><g><path d="M 3.40625 0 L 3.40625 -40.25 L 14.734375 -40.25 L 14.734375 -9.859375 L 31.515625 -9.859375 L 30.84375 0 Z M 3.40625 0 "/></g></g></g></svg>